%TF.GenerationSoftware,KiCad,Pcbnew,(6.0.6)*%
%TF.CreationDate,2023-05-08T04:55:46+09:00*%
%TF.ProjectId,128KB_64pin_Touch_L,3132384b-425f-4363-9470-696e5f546f75,rev?*%
%TF.SameCoordinates,Original*%
%TF.FileFunction,Paste,Top*%
%TF.FilePolarity,Positive*%
%FSLAX46Y46*%
G04 Gerber Fmt 4.6, Leading zero omitted, Abs format (unit mm)*
G04 Created by KiCad (PCBNEW (6.0.6)) date 2023-05-08 04:55:46*
%MOMM*%
%LPD*%
G01*
G04 APERTURE LIST*
%ADD10R,1.340000X1.140000*%
%ADD11R,1.200000X0.950000*%
%ADD12R,0.540000X0.940000*%
%ADD13R,1.150000X1.150000*%
%ADD14R,1.400000X1.000000*%
%ADD15R,2.000000X2.000000*%
%ADD16R,0.600000X0.620000*%
%ADD17R,1.000000X1.400000*%
%ADD18R,0.870000X0.420000*%
%ADD19R,0.800000X1.000000*%
%ADD20R,1.000000X0.800000*%
G04 APERTURE END LIST*
D10*
%TO.C,D2*%
X140140000Y-81000000D03*
X143240000Y-81000000D03*
%TD*%
D11*
%TO.C,LED9*%
X133400000Y-100600000D03*
X131300000Y-100600000D03*
%TD*%
D12*
%TO.C,C13*%
X158390000Y-99920000D03*
X159990000Y-99920000D03*
%TD*%
D13*
%TO.C,R13*%
X169820000Y-88980000D03*
X172170000Y-88980000D03*
%TD*%
%TO.C,R20*%
X138940000Y-90310000D03*
X141290000Y-90310000D03*
%TD*%
%TO.C,R17*%
X123600000Y-117390000D03*
X121250000Y-117390000D03*
%TD*%
%TO.C,R15*%
X169660000Y-105790000D03*
X172010000Y-105790000D03*
%TD*%
D14*
%TO.C,R1*%
X153940000Y-87680000D03*
X153940000Y-89580000D03*
%TD*%
D15*
%TO.C,S1*%
X146625000Y-97655000D03*
X140625000Y-97655000D03*
%TD*%
D11*
%TO.C,LED3*%
X169860000Y-102180000D03*
X171960000Y-102180000D03*
%TD*%
%TO.C,LED2*%
X169980000Y-92610000D03*
X172080000Y-92610000D03*
%TD*%
%TO.C,LED7*%
X153190000Y-99110000D03*
X155290000Y-99110000D03*
%TD*%
%TO.C,LED1*%
X167380000Y-77880000D03*
X169480000Y-77880000D03*
%TD*%
D13*
%TO.C,R21*%
X133480000Y-97610000D03*
X131130000Y-97610000D03*
%TD*%
%TO.C,R11*%
X168850000Y-81040000D03*
X171200000Y-81040000D03*
%TD*%
D11*
%TO.C,LED5*%
X123580000Y-114140000D03*
X121480000Y-114140000D03*
%TD*%
D16*
%TO.C,C2*%
X129940000Y-91660000D03*
X130860000Y-91660000D03*
%TD*%
D17*
%TO.C,R3*%
X148780000Y-87830000D03*
X146880000Y-87830000D03*
%TD*%
D13*
%TO.C,R16*%
X151870000Y-117520000D03*
X149520000Y-117520000D03*
%TD*%
D17*
%TO.C,R4*%
X137390000Y-80960000D03*
X135490000Y-80960000D03*
%TD*%
D16*
%TO.C,C10*%
X158500000Y-98470000D03*
X159420000Y-98470000D03*
%TD*%
D18*
%TO.C,Z4*%
X145365000Y-87725000D03*
X143115000Y-87725000D03*
%TD*%
D13*
%TO.C,R19*%
X152920000Y-96160000D03*
X155270000Y-96160000D03*
%TD*%
D18*
%TO.C,Z5*%
X130175000Y-93845000D03*
X132425000Y-93845000D03*
%TD*%
D19*
%TO.C,R14*%
X146315000Y-93220000D03*
X144715000Y-93220000D03*
%TD*%
D11*
%TO.C,LED4*%
X151780000Y-114350000D03*
X149680000Y-114350000D03*
%TD*%
%TO.C,LED6*%
X142650000Y-107820000D03*
X144750000Y-107820000D03*
%TD*%
D20*
%TO.C,R12*%
X148670000Y-94410000D03*
X148670000Y-92810000D03*
%TD*%
D18*
%TO.C,Z2*%
X158685000Y-87655000D03*
X160935000Y-87655000D03*
%TD*%
D13*
%TO.C,R18*%
X142540000Y-104550000D03*
X144890000Y-104550000D03*
%TD*%
D11*
%TO.C,LED8*%
X139140000Y-92660000D03*
X141240000Y-92660000D03*
%TD*%
D19*
%TO.C,R5*%
X131550000Y-88060000D03*
X129950000Y-88060000D03*
%TD*%
D18*
%TO.C,Z3*%
X149505000Y-89945000D03*
X147255000Y-89945000D03*
%TD*%
D14*
%TO.C,R2*%
X151390000Y-87710000D03*
X151390000Y-89610000D03*
%TD*%
M02*
