M48
; DRILL file {KiCad (6.0.6)} date Mon May  8 04:55:52 2023
; FORMAT={-:-/ absolute / metric / decimal}
; #@! TF.CreationDate,2023-05-08T04:55:52+09:00
; #@! TF.GenerationSoftware,Kicad,Pcbnew,(6.0.6)
; #@! TF.FileFunction,Plated,1,4,PTH
FMAT,2
METRIC
; #@! TA.AperFunction,Plated,PTH,ViaDrill
T1C0.600
; #@! TA.AperFunction,Plated,PTH,ComponentDrill
T2C0.950
%
G90
G05
T1
X118.88Y-100.06
X119.12Y-103.06
X119.2Y-94.59
X119.99Y-115.67
X120.42Y-104.76
X120.57Y-92.89
X120.68Y-106.62
X120.71Y-108.93
X120.84Y-111.56
X121.35Y-102.4
X121.72Y-90.87
X122.3Y-88.01
X123.12Y-105.24
X123.42Y-102.9
X124.11Y-109.41
X124.27Y-100.62
X124.49Y-94.18
X124.97Y-107.42
X125.28Y-92.99
X126.13Y-94.18
X127.21Y-88.47
X127.84Y-105.19
X128.01Y-86.27
X128.09Y-109.01
X129.49Y-83.56
X131.21Y-102.46
X131.54Y-108.18
X131.69Y-111.49
X131.7Y-80.45
X131.73Y-89.3
X132.11Y-115.97
X132.23Y-106.08
X133.08Y-91.99
X133.68Y-88.86
X133.96Y-104.18
X134.26Y-86.34
X134.46Y-79.3
X135.27Y-109.49
X135.37Y-94.26
X135.55Y-107.96
X135.63Y-116.76
X136.031Y-98.527
X136.47Y-88.2
X136.69Y-109.41
X137.01Y-107.97
X137.19Y-118.4
X137.44Y-102.72
X137.75Y-112.2
X138.07Y-82.78
X138.09Y-79.02
X138.38Y-87.01
X138.55Y-116.31
X138.76Y-98.256
X139.66Y-118.24
X140.11Y-88.35
X141.07Y-116.28
X141.23Y-82.68
X141.27Y-78.34
X141.61Y-110.02
X141.74Y-87.12
X142.18Y-88.71
X142.29Y-114.42
X142.5Y-118.27
X143.38Y-116.31
X143.58Y-91.81
X143.74Y-106.14
X143.86Y-103.23
X143.87Y-77.81
X144.04Y-82.57
X144.54Y-97.57
X145.5Y-118.24
X145.93Y-106.21
X147.05Y-77.19
X147.29Y-79.18
X150.03Y-112.5
X152.83Y-91.55
X153.07Y-112.56
X153.75Y-101.19
X153.9Y-97.67
X154.11Y-116.9
X155.07Y-112.89
X155.29Y-86.42
X155.45Y-77.66
X156.29Y-75.74
X156.62Y-97.56
X156.71Y-99.2
X156.96Y-100.76
X157.999Y-89.96
X158.24Y-76.7
X158.62Y-96.93
X158.743Y-88.767
X159.71Y-93.65
X160.15Y-75.39
X160.17Y-88.594
X160.19Y-81.98
X160.44Y-80.13
X160.75Y-78.25
X160.87Y-83.73
X161.08Y-86.42
X161.093Y-89.647
X161.32Y-118.26
X161.36Y-93.86
X161.39Y-95.66
X161.47Y-99.51
X162.86Y-74.51
X162.94Y-76.54
X163.24Y-84.75
X163.32Y-91.88
X163.34Y-79.65
X163.53Y-86.78
X164.61Y-77.9
X164.72Y-103.31
X165.05Y-75.86
X165.2Y-117.53
X165.485Y-97.662
X165.89Y-80.21
X166.39Y-95.09
X166.61Y-74.87
X166.76Y-82.17
X168.54Y-100.64
X168.65Y-107.78
X169.02Y-103.96
X169.99Y-74.99
X170.24Y-118.01
X170.6Y-85.98
X170.65Y-83.37
X171.01Y-115.39
X171.36Y-110.41
X171.68Y-87.13
X172.08Y-108.18
X172.61Y-99.54
X172.69Y-85.95
X172.85Y-112.27
X173.4Y-104.12
X173.65Y-109.85
X173.75Y-87.53
X173.85Y-77.3
X173.92Y-94.44
X173.93Y-79.69
X174.09Y-89.52
T2
X136.451Y-84.94
X138.951Y-84.94
X141.451Y-84.94
X143.951Y-84.94
X146.451Y-84.94
X148.951Y-84.94
X151.451Y-84.94
X153.951Y-84.94
X156.451Y-84.94
X158.951Y-84.94
T0
M30
