%TF.GenerationSoftware,KiCad,Pcbnew,(6.0.6)*%
%TF.CreationDate,2023-05-08T04:55:46+09:00*%
%TF.ProjectId,128KB_64pin_Touch_L,3132384b-425f-4363-9470-696e5f546f75,rev?*%
%TF.SameCoordinates,Original*%
%TF.FileFunction,Profile,NP*%
%FSLAX46Y46*%
G04 Gerber Fmt 4.6, Leading zero omitted, Abs format (unit mm)*
G04 Created by KiCad (PCBNEW (6.0.6)) date 2023-05-08 04:55:46*
%MOMM*%
%LPD*%
G01*
G04 APERTURE LIST*
%TA.AperFunction,Profile*%
%ADD10C,0.100000*%
%TD*%
G04 APERTURE END LIST*
D10*
X130708613Y-115174000D02*
X130482613Y-115371000D01*
X127343784Y-111305796D02*
X125607784Y-112814796D01*
X170256913Y-119766460D02*
X170501913Y-119766460D01*
X171530517Y-73752157D02*
X173137687Y-75587661D01*
X170922502Y-119536839D02*
X175039516Y-113064994D01*
X131503132Y-117199230D02*
G75*
G03*
X131883175Y-117370821I379168J333130D01*
G01*
X124867588Y-97321635D02*
G75*
G03*
X124867588Y-97321635I-2600000J0D01*
G01*
X119352493Y-119164205D02*
G75*
G03*
X119587588Y-119489635I490907J107005D01*
G01*
X159508701Y-119766460D02*
X163642701Y-119766460D01*
X169396360Y-119113013D02*
X169903360Y-119620013D01*
X130708564Y-115173944D02*
G75*
G03*
X130791959Y-112682213I-1113964J1284544D01*
G01*
X121352242Y-86120439D02*
G75*
G03*
X117710496Y-93103208I78144858J-45196161D01*
G01*
X129954671Y-80717606D02*
X129954671Y-79407606D01*
X130482579Y-115370970D02*
G75*
G03*
X130529156Y-116079209I377421J-330830D01*
G01*
X134809179Y-118870821D02*
G75*
G03*
X133309175Y-117370821I-1499979J21D01*
G01*
X174620517Y-80872217D02*
G75*
G03*
X175120517Y-80372157I-17J500017D01*
G01*
X118810517Y-112752217D02*
G75*
G03*
X119310517Y-112252157I-17J500017D01*
G01*
X171530538Y-73752139D02*
G75*
G03*
X171153000Y-73580000I-377638J-328161D01*
G01*
X159540000Y-73580000D02*
X171153000Y-73580000D01*
X175120517Y-76672157D02*
X175120517Y-80372157D01*
X164856807Y-118966566D02*
X169042807Y-118966566D01*
X122074588Y-85926847D02*
G75*
G03*
X121352239Y-86120437I-275988J-414653D01*
G01*
X129872545Y-80992208D02*
G75*
G03*
X129954671Y-80717606I-418045J274608D01*
G01*
X125567588Y-118034635D02*
X125567588Y-119021635D01*
X131883175Y-117370821D02*
X133309175Y-117370821D01*
X175120543Y-76672157D02*
G75*
G03*
X174620517Y-76172157I-500043J-43D01*
G01*
X118650517Y-112752157D02*
X118810517Y-112752157D01*
X174120517Y-85472157D02*
X174620517Y-85472157D01*
X170501913Y-119766413D02*
G75*
G03*
X170922502Y-119536839I187J499713D01*
G01*
X175039529Y-113065003D02*
G75*
G03*
X175120517Y-112792157I-418629J272703D01*
G01*
X131503156Y-117199209D02*
X130529156Y-116079209D01*
X134809175Y-119270821D02*
X134809175Y-118870821D01*
X153867588Y-78251635D02*
G75*
G03*
X153867588Y-78251635I-2600000J0D01*
G01*
X158986538Y-119371262D02*
G75*
G03*
X153843086Y-119354721I-2573088J-415168D01*
G01*
X125607746Y-112814763D02*
G75*
G03*
X125753163Y-114928512I1131454J-984037D01*
G01*
X135309175Y-119770821D02*
X153350175Y-119770821D01*
X134809179Y-119270821D02*
G75*
G03*
X135309175Y-119770821I500021J21D01*
G01*
X175120517Y-85972157D02*
X175120517Y-112792157D01*
X174620517Y-80872157D02*
X174120517Y-80872157D01*
X125735403Y-117660927D02*
G75*
G03*
X125567588Y-118034635I331897J-373573D01*
G01*
X129872524Y-80992195D02*
X126452524Y-86258195D01*
X118810517Y-108052157D02*
X118210496Y-108050208D01*
X130369000Y-78915000D02*
X159540000Y-73580000D01*
X125735406Y-117660930D02*
X126932406Y-116619930D01*
X163996254Y-119620013D02*
X164503254Y-119113013D01*
X169903361Y-119620012D02*
G75*
G03*
X170256913Y-119766460I353539J353512D01*
G01*
X125067588Y-119521588D02*
G75*
G03*
X125567588Y-119021635I12J499988D01*
G01*
X169396364Y-119113009D02*
G75*
G03*
X169042807Y-118966566I-353564J-353591D01*
G01*
X129741959Y-111475213D02*
X130791959Y-112682213D01*
X173620543Y-84972157D02*
G75*
G03*
X174120517Y-85472157I499957J-43D01*
G01*
X119587588Y-119489635D02*
X120702588Y-119521635D01*
X125753163Y-114928512D02*
X126885163Y-115912512D01*
X174422517Y-76172157D02*
X174620517Y-76172157D01*
X119310517Y-108552157D02*
X119310517Y-112252157D01*
X126932362Y-116619892D02*
G75*
G03*
X126885163Y-115912512I-377262J330092D01*
G01*
X174120517Y-80872217D02*
G75*
G03*
X173620517Y-81372157I-17J-499983D01*
G01*
X153350175Y-119770810D02*
G75*
G03*
X153843086Y-119354721I-175J500210D01*
G01*
X158986591Y-119371250D02*
G75*
G03*
X159508701Y-119766460I491209J106450D01*
G01*
X119310543Y-108552157D02*
G75*
G03*
X118810517Y-108052157I-500043J-43D01*
G01*
X120702588Y-119521635D02*
X125067588Y-119521635D01*
X163642701Y-119766472D02*
G75*
G03*
X163996254Y-119620013I-1J499972D01*
G01*
X118650517Y-112752128D02*
G75*
G03*
X118161464Y-113356211I83J-500072D01*
G01*
X117710496Y-93103208D02*
X117710496Y-107550208D01*
X173620517Y-81372157D02*
X173620517Y-84972157D01*
X173137683Y-75587664D02*
G75*
G03*
X174422517Y-76172157I1282217J1114164D01*
G01*
X164856807Y-118966581D02*
G75*
G03*
X164503254Y-119113013I-7J-500019D01*
G01*
X124364556Y-87413896D02*
X122074556Y-85926896D01*
X129741999Y-111475178D02*
G75*
G03*
X127343784Y-111305796I-1283799J-1114422D01*
G01*
X175120543Y-85972157D02*
G75*
G03*
X174620517Y-85472157I-500043J-43D01*
G01*
X117710492Y-107550208D02*
G75*
G03*
X118210496Y-108050208I500008J8D01*
G01*
X130369014Y-78915083D02*
G75*
G03*
X129954671Y-79407606I85786J-492717D01*
G01*
X124364553Y-87413908D02*
G75*
G03*
X126452523Y-86258195I466147J1621808D01*
G01*
X118161464Y-113356211D02*
X119352464Y-119164211D01*
M02*
