%FSLAX45Y45*%
G04 Gerber Fmt 4.5, Leading zero omitted, Abs format (unit mm)*
G04 Created by KiCad (PCBNEW (6.0.6)) date 2023-05-08 04:55:53*
%MOMM*%
%LPD*%
G01*
G04 APERTURE LIST*
%TA.AperFunction,Profile*%
%ADD10C,0.100000*%
%TD*%
%ADD11C,0.200000*%
G04 APERTURE END LIST*
D10*
X13070861Y-11517400D02*
X13048261Y-11537100D01*
X12734378Y-11130580D02*
X12560778Y-11281480D01*
X17025691Y-11976646D02*
X17050191Y-11976646D01*
X17153052Y-7375216D02*
X17313769Y-7558766D01*
X17092250Y-11953684D02*
X17503952Y-11306499D01*
X13150313Y-11719923D02*
G75*
G03*
X13188317Y-11737082I37917J33313D01*
G01*
X12486759Y-9732164D02*
G75*
G03*
X12486759Y-9732164I-260000J0D01*
G01*
X11935249Y-11916420D02*
G75*
G03*
X11958759Y-11948963I49091J10701D01*
G01*
X15950870Y-11976646D02*
X16364270Y-11976646D01*
X16939636Y-11911301D02*
X16990336Y-11962001D01*
X13070856Y-11517394D02*
G75*
G03*
X13079196Y-11268221I-111396J128454D01*
G01*
X12135224Y-8612044D02*
G75*
G03*
X11771050Y-9310321I7814486J-4519616D01*
G01*
X12995467Y-8071761D02*
X12995467Y-7940761D01*
X13048258Y-11537097D02*
G75*
G03*
X13052916Y-11607921I37742J-33083D01*
G01*
X13480918Y-11887082D02*
G75*
G03*
X13330917Y-11737082I-149998J2D01*
G01*
X17462052Y-8087222D02*
G75*
G03*
X17512052Y-8037216I-2J50002D01*
G01*
X11881052Y-11275222D02*
G75*
G03*
X11931052Y-11225216I-2J50002D01*
G01*
X17153054Y-7375214D02*
G75*
G03*
X17115300Y-7358000I-37764J-32816D01*
G01*
X15954000Y-7358000D02*
X17115300Y-7358000D01*
X17512052Y-7667216D02*
X17512052Y-8037216D01*
X16485681Y-11896657D02*
X16904281Y-11896657D01*
X12207459Y-8592685D02*
G75*
G03*
X12135224Y-8612044I-27599J-41465D01*
G01*
X12987254Y-8099221D02*
G75*
G03*
X12995467Y-8071761I-41805J27461D01*
G01*
X12556759Y-11803463D02*
X12556759Y-11902163D01*
X13188317Y-11737082D02*
X13330917Y-11737082D01*
X17512054Y-7667216D02*
G75*
G03*
X17462052Y-7617216I-50004J-4D01*
G01*
X11865052Y-11275216D02*
X11881052Y-11275216D01*
X17412052Y-8547216D02*
X17462052Y-8547216D01*
X17050191Y-11976641D02*
G75*
G03*
X17092250Y-11953684I19J49971D01*
G01*
X17503953Y-11306500D02*
G75*
G03*
X17512052Y-11279216I-41863J27270D01*
G01*
X13150316Y-11719921D02*
X13052916Y-11607921D01*
X13480917Y-11927082D02*
X13480917Y-11887082D01*
X15386759Y-7825163D02*
G75*
G03*
X15386759Y-7825163I-260000J0D01*
G01*
X15898654Y-11937126D02*
G75*
G03*
X15384309Y-11935472I-257309J-41517D01*
G01*
X12560775Y-11281476D02*
G75*
G03*
X12575316Y-11492851I113145J-98404D01*
G01*
X13530917Y-11977082D02*
X15335017Y-11977082D01*
X13480918Y-11927082D02*
G75*
G03*
X13530917Y-11977082I50002J2D01*
G01*
X17512052Y-8597216D02*
X17512052Y-11279216D01*
X17462052Y-8087216D02*
X17412052Y-8087216D01*
X12573540Y-11766093D02*
G75*
G03*
X12556759Y-11803463I33190J-37357D01*
G01*
X12987252Y-8099219D02*
X12645252Y-8625820D01*
X11881052Y-10805216D02*
X11821050Y-10805021D01*
X13036900Y-7891500D02*
X15954000Y-7358000D01*
X12573541Y-11766093D02*
X12693241Y-11661993D01*
X16399625Y-11962001D02*
X16450325Y-11911301D01*
X16990336Y-11962001D02*
G75*
G03*
X17025691Y-11976646I35354J35351D01*
G01*
X12506759Y-11952159D02*
G75*
G03*
X12556759Y-11902163I1J49999D01*
G01*
X16939636Y-11911301D02*
G75*
G03*
X16904281Y-11896657I-35356J-35359D01*
G01*
X12974196Y-11147521D02*
X13079196Y-11268221D01*
X17362054Y-8497216D02*
G75*
G03*
X17412052Y-8547216I49996J-4D01*
G01*
X11958759Y-11948963D02*
X12070259Y-11952163D01*
X12575316Y-11492851D02*
X12688516Y-11591251D01*
X17442252Y-7617216D02*
X17462052Y-7617216D01*
X11931052Y-10855216D02*
X11931052Y-11225216D01*
X12693236Y-11661989D02*
G75*
G03*
X12688516Y-11591251I-37726J33009D01*
G01*
X17412052Y-8087222D02*
G75*
G03*
X17362052Y-8137216I-2J-49998D01*
G01*
X15335017Y-11977081D02*
G75*
G03*
X15384309Y-11935472I-18J50021D01*
G01*
X15898659Y-11937125D02*
G75*
G03*
X15950870Y-11976646I49121J10645D01*
G01*
X11931054Y-10855216D02*
G75*
G03*
X11881052Y-10805216I-50004J-4D01*
G01*
X12070259Y-11952163D02*
X12506759Y-11952163D01*
X16364270Y-11976647D02*
G75*
G03*
X16399625Y-11962001I0J49997D01*
G01*
X11865052Y-11275213D02*
G75*
G03*
X11816146Y-11335621I8J-50007D01*
G01*
X11771050Y-9310321D02*
X11771050Y-10755021D01*
X17362052Y-8137216D02*
X17362052Y-8497216D01*
X17313768Y-7558766D02*
G75*
G03*
X17442252Y-7617216I128222J111416D01*
G01*
X16485681Y-11896658D02*
G75*
G03*
X16450325Y-11911301I-1J-50002D01*
G01*
X12436456Y-8741390D02*
X12207456Y-8592690D01*
X12974200Y-11147518D02*
G75*
G03*
X12734378Y-11130580I-128380J-111442D01*
G01*
X17512054Y-8597216D02*
G75*
G03*
X17462052Y-8547216I-50004J-4D01*
G01*
X11771049Y-10755021D02*
G75*
G03*
X11821050Y-10805021I50001J1D01*
G01*
X13036901Y-7891508D02*
G75*
G03*
X12995467Y-7940761I8579J-49272D01*
G01*
X12436455Y-8741391D02*
G75*
G03*
X12645252Y-8625820I46615J162181D01*
G01*
X11816146Y-11335621D02*
X11935246Y-11916421D01*
D11*
X12023669Y-12292558D02*
X12023669Y-12092558D01*
X12071288Y-12092558D01*
X12099859Y-12102082D01*
X12118907Y-12121130D01*
X12128430Y-12140177D01*
X12137954Y-12178272D01*
X12137954Y-12206844D01*
X12128430Y-12244939D01*
X12118907Y-12263987D01*
X12099859Y-12283034D01*
X12071288Y-12292558D01*
X12023669Y-12292558D01*
X12223669Y-12292558D02*
X12223669Y-12159225D01*
X12223669Y-12197320D02*
X12233192Y-12178272D01*
X12242716Y-12168749D01*
X12261764Y-12159225D01*
X12280811Y-12159225D01*
X12347478Y-12292558D02*
X12347478Y-12159225D01*
X12347478Y-12092558D02*
X12337954Y-12102082D01*
X12347478Y-12111606D01*
X12357002Y-12102082D01*
X12347478Y-12092558D01*
X12347478Y-12111606D01*
X12471288Y-12292558D02*
X12452240Y-12283034D01*
X12442716Y-12263987D01*
X12442716Y-12092558D01*
X12576050Y-12292558D02*
X12557002Y-12283034D01*
X12547478Y-12263987D01*
X12547478Y-12092558D01*
X12804621Y-12292558D02*
X12804621Y-12092558D01*
X12871288Y-12235415D01*
X12937954Y-12092558D01*
X12937954Y-12292558D01*
X13118907Y-12292558D02*
X13118907Y-12187796D01*
X13109383Y-12168749D01*
X13090335Y-12159225D01*
X13052240Y-12159225D01*
X13033192Y-12168749D01*
X13118907Y-12283034D02*
X13099859Y-12292558D01*
X13052240Y-12292558D01*
X13033192Y-12283034D01*
X13023669Y-12263987D01*
X13023669Y-12244939D01*
X13033192Y-12225892D01*
X13052240Y-12216368D01*
X13099859Y-12216368D01*
X13118907Y-12206844D01*
X13214145Y-12159225D02*
X13214145Y-12359225D01*
X13214145Y-12168749D02*
X13233192Y-12159225D01*
X13271288Y-12159225D01*
X13290335Y-12168749D01*
X13299859Y-12178272D01*
X13309383Y-12197320D01*
X13309383Y-12254463D01*
X13299859Y-12273511D01*
X13290335Y-12283034D01*
X13271288Y-12292558D01*
X13233192Y-12292558D01*
X13214145Y-12283034D01*
X13395097Y-12273511D02*
X13404621Y-12283034D01*
X13395097Y-12292558D01*
X13385573Y-12283034D01*
X13395097Y-12273511D01*
X13395097Y-12292558D01*
X13395097Y-12168749D02*
X13404621Y-12178272D01*
X13395097Y-12187796D01*
X13385573Y-12178272D01*
X13395097Y-12168749D01*
X13395097Y-12187796D01*
M02*
