%TF.GenerationSoftware,KiCad,Pcbnew,(6.0.6)*%
%TF.CreationDate,2023-05-08T04:55:46+09:00*%
%TF.ProjectId,128KB_64pin_Touch_L,3132384b-425f-4363-9470-696e5f546f75,rev?*%
%TF.SameCoordinates,Original*%
%TF.FileFunction,Soldermask,Bot*%
%TF.FilePolarity,Negative*%
%FSLAX46Y46*%
G04 Gerber Fmt 4.6, Leading zero omitted, Abs format (unit mm)*
G04 Created by KiCad (PCBNEW (6.0.6)) date 2023-05-08 04:55:46*
%MOMM*%
%LPD*%
G01*
G04 APERTURE LIST*
G04 Aperture macros list*
%AMRoundRect*
0 Rectangle with rounded corners*
0 $1 Rounding radius*
0 $2 $3 $4 $5 $6 $7 $8 $9 X,Y pos of 4 corners*
0 Add a 4 corners polygon primitive as box body*
4,1,4,$2,$3,$4,$5,$6,$7,$8,$9,$2,$3,0*
0 Add four circle primitives for the rounded corners*
1,1,$1+$1,$2,$3*
1,1,$1+$1,$4,$5*
1,1,$1+$1,$6,$7*
1,1,$1+$1,$8,$9*
0 Add four rect primitives between the rounded corners*
20,1,$1+$1,$2,$3,$4,$5,0*
20,1,$1+$1,$4,$5,$6,$7,0*
20,1,$1+$1,$6,$7,$8,$9,0*
20,1,$1+$1,$8,$9,$2,$3,0*%
G04 Aperture macros list end*
%ADD10R,0.800000X1.000000*%
%ADD11R,0.600000X0.750000*%
%ADD12C,1.000000*%
%ADD13C,0.500000*%
%ADD14R,0.940000X0.540000*%
%ADD15RoundRect,0.250000X-0.600000X-0.725000X0.600000X-0.725000X0.600000X0.725000X-0.600000X0.725000X0*%
%ADD16O,1.700000X1.950000*%
%ADD17R,1.000000X0.800000*%
%ADD18R,1.140000X1.340000*%
%ADD19R,0.620000X0.600000*%
%ADD20C,2.500000*%
%ADD21R,0.600000X0.620000*%
%ADD22R,0.850000X1.200000*%
%ADD23R,0.500000X1.000000*%
%ADD24R,0.650000X1.425000*%
%ADD25R,2.950000X2.750000*%
%ADD26R,0.420000X0.870000*%
%ADD27R,0.300000X1.300000*%
%ADD28R,1.800000X2.200000*%
%ADD29R,0.450000X0.700000*%
%ADD30R,1.850000X3.500000*%
%ADD31R,1.475000X0.300000*%
%ADD32R,0.300000X1.475000*%
%ADD33R,1.000000X1.400000*%
%ADD34R,0.700000X0.650000*%
G04 APERTURE END LIST*
D10*
%TO.C,R8*%
X148540000Y-92400000D03*
X146940000Y-92400000D03*
%TD*%
%TO.C,R10*%
X166450000Y-86260000D03*
X168050000Y-86260000D03*
%TD*%
D11*
%TO.C,R39*%
X164230000Y-105535000D03*
X164230000Y-106635000D03*
%TD*%
D12*
%TO.C,TP14*%
X168720000Y-96210000D03*
%TD*%
D11*
%TO.C,R35*%
X160230000Y-105535000D03*
X160230000Y-106635000D03*
%TD*%
D13*
%TO.C,TP62*%
X148230000Y-108035000D03*
%TD*%
D11*
%TO.C,R30*%
X155230000Y-105535000D03*
X155230000Y-106635000D03*
%TD*%
D14*
%TO.C,C14*%
X155460000Y-90050000D03*
X155460000Y-88450000D03*
%TD*%
D12*
%TO.C,TP31*%
X165350000Y-101670000D03*
%TD*%
D11*
%TO.C,R28*%
X153230000Y-105535000D03*
X153230000Y-106635000D03*
%TD*%
%TO.C,R29*%
X154230000Y-105535000D03*
X154230000Y-106635000D03*
%TD*%
%TO.C,R31*%
X156230000Y-105535000D03*
X156230000Y-106635000D03*
%TD*%
D13*
%TO.C,TP69*%
X155230000Y-108035000D03*
%TD*%
%TO.C,TP71*%
X157230000Y-108035000D03*
%TD*%
D12*
%TO.C,TP19*%
X168210000Y-92450000D03*
%TD*%
D15*
%TO.C,J1*%
X136451000Y-84940000D03*
D16*
X138951000Y-84940000D03*
X141451000Y-84940000D03*
X143951000Y-84940000D03*
X146451000Y-84940000D03*
X148951000Y-84940000D03*
X151451000Y-84940000D03*
X153951000Y-84940000D03*
X156451000Y-84940000D03*
X158951000Y-84940000D03*
%TD*%
D13*
%TO.C,TP65*%
X151230000Y-108035000D03*
%TD*%
%TO.C,TP74*%
X160230000Y-108035000D03*
%TD*%
%TO.C,TP73*%
X159230000Y-108035000D03*
%TD*%
%TO.C,TP77*%
X163230000Y-108035000D03*
%TD*%
D12*
%TO.C,TP13*%
X141020000Y-100990000D03*
%TD*%
%TO.C,TP11*%
X134750000Y-90570000D03*
%TD*%
D17*
%TO.C,R9*%
X166505000Y-87810000D03*
X166505000Y-89410000D03*
%TD*%
D12*
%TO.C,TP22*%
X173030000Y-96350000D03*
%TD*%
D11*
%TO.C,R22*%
X147230000Y-105535000D03*
X147230000Y-106635000D03*
%TD*%
%TO.C,R37*%
X162230000Y-105535000D03*
X162230000Y-106635000D03*
%TD*%
D14*
%TO.C,C7*%
X150080000Y-90530000D03*
X150080000Y-92130000D03*
%TD*%
D11*
%TO.C,R32*%
X157230000Y-105535000D03*
X157230000Y-106635000D03*
%TD*%
D18*
%TO.C,D1*%
X131710000Y-87310000D03*
X131710000Y-84210000D03*
%TD*%
D19*
%TO.C,C4*%
X133970000Y-95080000D03*
X133970000Y-94160000D03*
%TD*%
%TO.C,C5*%
X140270000Y-93060000D03*
X140270000Y-92140000D03*
%TD*%
D11*
%TO.C,R34*%
X159230000Y-105535000D03*
X159230000Y-106635000D03*
%TD*%
D12*
%TO.C,TP17*%
X166010000Y-92420000D03*
%TD*%
D13*
%TO.C,TP72*%
X158230000Y-108035000D03*
%TD*%
D11*
%TO.C,R33*%
X158230000Y-105535000D03*
X158230000Y-106635000D03*
%TD*%
D12*
%TO.C,TP29*%
X164530000Y-89410000D03*
%TD*%
D11*
%TO.C,R40*%
X165230000Y-105535000D03*
X165230000Y-106635000D03*
%TD*%
%TO.C,R36*%
X161230000Y-105535000D03*
X161230000Y-106635000D03*
%TD*%
D12*
%TO.C,TP48*%
X149120000Y-94120000D03*
%TD*%
D13*
%TO.C,TP64*%
X150230000Y-108035000D03*
%TD*%
%TO.C,TP79*%
X165230000Y-108035000D03*
%TD*%
D20*
%TO.C,TP8*%
X144050000Y-79820000D03*
%TD*%
D21*
%TO.C,C3*%
X134800000Y-96660000D03*
X135720000Y-96660000D03*
%TD*%
D17*
%TO.C,R7*%
X138740000Y-91290000D03*
X138740000Y-92890000D03*
%TD*%
D13*
%TO.C,TP75*%
X161230000Y-108035000D03*
%TD*%
D12*
%TO.C,TP50*%
X149940000Y-102820000D03*
%TD*%
%TO.C,TP30*%
X162870000Y-103200000D03*
%TD*%
D13*
%TO.C,TP66*%
X152230000Y-108035000D03*
%TD*%
D19*
%TO.C,C12*%
X156740000Y-89990000D03*
X156740000Y-89070000D03*
%TD*%
D11*
%TO.C,R27*%
X152230000Y-105535000D03*
X152230000Y-106635000D03*
%TD*%
D20*
%TO.C,TP26*%
X134820000Y-113720000D03*
%TD*%
D11*
%TO.C,R25*%
X150230000Y-105535000D03*
X150230000Y-106635000D03*
%TD*%
D13*
%TO.C,TP63*%
X149230000Y-108035000D03*
%TD*%
D22*
%TO.C,Z1*%
X128040000Y-91955000D03*
X131090000Y-91955000D03*
%TD*%
D12*
%TO.C,TP47*%
X150140000Y-99220000D03*
%TD*%
%TO.C,TP43*%
X171650000Y-89000000D03*
%TD*%
D20*
%TO.C,TP9*%
X124740000Y-90480000D03*
%TD*%
D12*
%TO.C,TP21*%
X172600000Y-92530000D03*
%TD*%
D21*
%TO.C,C8*%
X134270000Y-108650000D03*
X133350000Y-108650000D03*
%TD*%
D11*
%TO.C,R26*%
X151230000Y-105535000D03*
X151230000Y-106635000D03*
%TD*%
%TO.C,R38*%
X163230000Y-105535000D03*
X163230000Y-106635000D03*
%TD*%
D13*
%TO.C,TP76*%
X162230000Y-108035000D03*
%TD*%
D23*
%TO.C,Q3*%
X168245000Y-88195000D03*
X169545000Y-88195000D03*
X168895000Y-90095000D03*
%TD*%
D13*
%TO.C,TP61*%
X147230000Y-108035000D03*
%TD*%
D24*
%TO.C,IC1*%
X134860000Y-100378000D03*
X136130000Y-100378000D03*
X137400000Y-100378000D03*
X138670000Y-100378000D03*
X138670000Y-106202000D03*
X137400000Y-106202000D03*
X136130000Y-106202000D03*
X134860000Y-106202000D03*
D25*
X136765000Y-103290000D03*
%TD*%
D20*
%TO.C,TP41*%
X145740000Y-89950000D03*
%TD*%
D12*
%TO.C,TP39*%
X151930000Y-103170000D03*
%TD*%
D26*
%TO.C,Z6*%
X141770000Y-92890000D03*
X141770000Y-90640000D03*
%TD*%
D11*
%TO.C,R24*%
X149230000Y-105535000D03*
X149230000Y-106635000D03*
%TD*%
D13*
%TO.C,TP70*%
X156230000Y-108035000D03*
%TD*%
D12*
%TO.C,TP49*%
X149170000Y-100970000D03*
%TD*%
D27*
%TO.C,J2*%
X166035000Y-110345000D03*
X165535000Y-110345000D03*
X165035000Y-110345000D03*
X164535000Y-110345000D03*
X164035000Y-110345000D03*
X163535000Y-110345000D03*
X163035000Y-110345000D03*
X162535000Y-110345000D03*
X162035000Y-110345000D03*
X161535000Y-110345000D03*
X161035000Y-110345000D03*
X160535000Y-110345000D03*
X160035000Y-110345000D03*
X159535000Y-110345000D03*
X159035000Y-110345000D03*
X158535000Y-110345000D03*
X158035000Y-110345000D03*
X157535000Y-110345000D03*
X157035000Y-110345000D03*
X156535000Y-110345000D03*
X156035000Y-110345000D03*
X155535000Y-110345000D03*
X155035000Y-110345000D03*
X154535000Y-110345000D03*
X154035000Y-110345000D03*
X153535000Y-110345000D03*
X153035000Y-110345000D03*
X152535000Y-110345000D03*
X152035000Y-110345000D03*
X151535000Y-110345000D03*
X151035000Y-110345000D03*
X150535000Y-110345000D03*
X150035000Y-110345000D03*
X149535000Y-110345000D03*
X149035000Y-110345000D03*
X148535000Y-110345000D03*
X148035000Y-110345000D03*
X147535000Y-110345000D03*
X147035000Y-110345000D03*
X146535000Y-110345000D03*
D28*
X167935000Y-113595000D03*
X144635000Y-113595000D03*
%TD*%
D29*
%TO.C,Q1*%
X138450000Y-96510000D03*
X137150000Y-96510000D03*
X137800000Y-94510000D03*
%TD*%
D12*
%TO.C,TP16*%
X170920000Y-96290000D03*
%TD*%
D30*
%TO.C,C1*%
X129250000Y-96690000D03*
X129250000Y-101990000D03*
%TD*%
D12*
%TO.C,TP38*%
X166470000Y-84320000D03*
%TD*%
D20*
%TO.C,TP1*%
X139430000Y-113670000D03*
%TD*%
D31*
%TO.C,IC2*%
X163463000Y-93725000D03*
X163463000Y-94225000D03*
X163463000Y-94725000D03*
X163463000Y-95225000D03*
X163463000Y-95725000D03*
X163463000Y-96225000D03*
X163463000Y-96725000D03*
X163463000Y-97225000D03*
X163463000Y-97725000D03*
X163463000Y-98225000D03*
X163463000Y-98725000D03*
X163463000Y-99225000D03*
X163463000Y-99725000D03*
X163463000Y-100225000D03*
X163463000Y-100725000D03*
X163463000Y-101225000D03*
D32*
X161475000Y-103213000D03*
X160975000Y-103213000D03*
X160475000Y-103213000D03*
X159975000Y-103213000D03*
X159475000Y-103213000D03*
X158975000Y-103213000D03*
X158475000Y-103213000D03*
X157975000Y-103213000D03*
X157475000Y-103213000D03*
X156975000Y-103213000D03*
X156475000Y-103213000D03*
X155975000Y-103213000D03*
X155475000Y-103213000D03*
X154975000Y-103213000D03*
X154475000Y-103213000D03*
X153975000Y-103213000D03*
D31*
X151987000Y-101225000D03*
X151987000Y-100725000D03*
X151987000Y-100225000D03*
X151987000Y-99725000D03*
X151987000Y-99225000D03*
X151987000Y-98725000D03*
X151987000Y-98225000D03*
X151987000Y-97725000D03*
X151987000Y-97225000D03*
X151987000Y-96725000D03*
X151987000Y-96225000D03*
X151987000Y-95725000D03*
X151987000Y-95225000D03*
X151987000Y-94725000D03*
X151987000Y-94225000D03*
X151987000Y-93725000D03*
D32*
X153975000Y-91737000D03*
X154475000Y-91737000D03*
X154975000Y-91737000D03*
X155475000Y-91737000D03*
X155975000Y-91737000D03*
X156475000Y-91737000D03*
X156975000Y-91737000D03*
X157475000Y-91737000D03*
X157975000Y-91737000D03*
X158475000Y-91737000D03*
X158975000Y-91737000D03*
X159475000Y-91737000D03*
X159975000Y-91737000D03*
X160475000Y-91737000D03*
X160975000Y-91737000D03*
X161475000Y-91737000D03*
%TD*%
D19*
%TO.C,C9*%
X153920000Y-90090000D03*
X153920000Y-89170000D03*
%TD*%
D13*
%TO.C,TP67*%
X153230000Y-108035000D03*
%TD*%
D12*
%TO.C,TP12*%
X136830000Y-90520000D03*
%TD*%
D20*
%TO.C,TP51*%
X144660000Y-94870000D03*
%TD*%
D29*
%TO.C,Q2*%
X140000000Y-94460000D03*
X141300000Y-94460000D03*
X140650000Y-96460000D03*
%TD*%
D19*
%TO.C,C6*%
X139530000Y-108570000D03*
X139530000Y-109490000D03*
%TD*%
D14*
%TO.C,C11*%
X152670000Y-90100000D03*
X152670000Y-88500000D03*
%TD*%
D12*
%TO.C,TP20*%
X170420000Y-92500000D03*
%TD*%
D11*
%TO.C,R23*%
X148230000Y-105535000D03*
X148230000Y-106635000D03*
%TD*%
D33*
%TO.C,R6*%
X135150000Y-92660000D03*
X137050000Y-92660000D03*
%TD*%
D12*
%TO.C,TP15*%
X140020000Y-98270000D03*
%TD*%
D13*
%TO.C,TP78*%
X164230000Y-108035000D03*
%TD*%
D34*
%TO.C,FB1*%
X129515000Y-87785000D03*
X129515000Y-89135000D03*
%TD*%
D13*
%TO.C,TP68*%
X154230000Y-108035000D03*
%TD*%
M02*
