%FSLAX45Y45*%
G04 Gerber Fmt 4.5, Leading zero omitted, Abs format (unit mm)*
G04 Created by KiCad (PCBNEW (6.0.6)) date 2023-05-08 04:55:53*
%MOMM*%
%LPD*%
G01*
G04 APERTURE LIST*
%TA.AperFunction,Profile*%
%ADD10C,0.100000*%
%TD*%
%ADD11C,0.200000*%
%ADD12C,0.060000*%
%ADD13C,0.095000*%
G04 APERTURE END LIST*
D10*
X13070861Y-11517400D02*
X13048261Y-11537100D01*
X12734378Y-11130580D02*
X12560778Y-11281480D01*
X17025691Y-11976646D02*
X17050191Y-11976646D01*
X17153052Y-7375216D02*
X17313769Y-7558766D01*
X17092250Y-11953684D02*
X17503952Y-11306499D01*
X13150313Y-11719923D02*
G75*
G03*
X13188317Y-11737082I37917J33313D01*
G01*
X12486759Y-9732164D02*
G75*
G03*
X12486759Y-9732164I-260000J0D01*
G01*
X11935249Y-11916420D02*
G75*
G03*
X11958759Y-11948963I49091J10701D01*
G01*
X15950870Y-11976646D02*
X16364270Y-11976646D01*
X16939636Y-11911301D02*
X16990336Y-11962001D01*
X13070856Y-11517394D02*
G75*
G03*
X13079196Y-11268221I-111396J128454D01*
G01*
X12135224Y-8612044D02*
G75*
G03*
X11771050Y-9310321I7814486J-4519616D01*
G01*
X12995467Y-8071761D02*
X12995467Y-7940761D01*
X13048258Y-11537097D02*
G75*
G03*
X13052916Y-11607921I37742J-33083D01*
G01*
X13480918Y-11887082D02*
G75*
G03*
X13330917Y-11737082I-149998J2D01*
G01*
X17462052Y-8087222D02*
G75*
G03*
X17512052Y-8037216I-2J50002D01*
G01*
X11881052Y-11275222D02*
G75*
G03*
X11931052Y-11225216I-2J50002D01*
G01*
X17153054Y-7375214D02*
G75*
G03*
X17115300Y-7358000I-37764J-32816D01*
G01*
X15954000Y-7358000D02*
X17115300Y-7358000D01*
X17512052Y-7667216D02*
X17512052Y-8037216D01*
X16485681Y-11896657D02*
X16904281Y-11896657D01*
X12207459Y-8592685D02*
G75*
G03*
X12135224Y-8612044I-27599J-41465D01*
G01*
X12987254Y-8099221D02*
G75*
G03*
X12995467Y-8071761I-41805J27461D01*
G01*
X12556759Y-11803463D02*
X12556759Y-11902163D01*
X13188317Y-11737082D02*
X13330917Y-11737082D01*
X17512054Y-7667216D02*
G75*
G03*
X17462052Y-7617216I-50004J-4D01*
G01*
X11865052Y-11275216D02*
X11881052Y-11275216D01*
X17412052Y-8547216D02*
X17462052Y-8547216D01*
X17050191Y-11976641D02*
G75*
G03*
X17092250Y-11953684I19J49971D01*
G01*
X17503953Y-11306500D02*
G75*
G03*
X17512052Y-11279216I-41863J27270D01*
G01*
X13150316Y-11719921D02*
X13052916Y-11607921D01*
X13480917Y-11927082D02*
X13480917Y-11887082D01*
X15386759Y-7825163D02*
G75*
G03*
X15386759Y-7825163I-260000J0D01*
G01*
X15898654Y-11937126D02*
G75*
G03*
X15384309Y-11935472I-257309J-41517D01*
G01*
X12560775Y-11281476D02*
G75*
G03*
X12575316Y-11492851I113145J-98404D01*
G01*
X13530917Y-11977082D02*
X15335017Y-11977082D01*
X13480918Y-11927082D02*
G75*
G03*
X13530917Y-11977082I50002J2D01*
G01*
X17512052Y-8597216D02*
X17512052Y-11279216D01*
X17462052Y-8087216D02*
X17412052Y-8087216D01*
X12573540Y-11766093D02*
G75*
G03*
X12556759Y-11803463I33190J-37357D01*
G01*
X12987252Y-8099219D02*
X12645252Y-8625820D01*
X11881052Y-10805216D02*
X11821050Y-10805021D01*
X13036900Y-7891500D02*
X15954000Y-7358000D01*
X12573541Y-11766093D02*
X12693241Y-11661993D01*
X16399625Y-11962001D02*
X16450325Y-11911301D01*
X16990336Y-11962001D02*
G75*
G03*
X17025691Y-11976646I35354J35351D01*
G01*
X12506759Y-11952159D02*
G75*
G03*
X12556759Y-11902163I1J49999D01*
G01*
X16939636Y-11911301D02*
G75*
G03*
X16904281Y-11896657I-35356J-35359D01*
G01*
X12974196Y-11147521D02*
X13079196Y-11268221D01*
X17362054Y-8497216D02*
G75*
G03*
X17412052Y-8547216I49996J-4D01*
G01*
X11958759Y-11948963D02*
X12070259Y-11952163D01*
X12575316Y-11492851D02*
X12688516Y-11591251D01*
X17442252Y-7617216D02*
X17462052Y-7617216D01*
X11931052Y-10855216D02*
X11931052Y-11225216D01*
X12693236Y-11661989D02*
G75*
G03*
X12688516Y-11591251I-37726J33009D01*
G01*
X17412052Y-8087222D02*
G75*
G03*
X17362052Y-8137216I-2J-49998D01*
G01*
X15335017Y-11977081D02*
G75*
G03*
X15384309Y-11935472I-18J50021D01*
G01*
X15898659Y-11937125D02*
G75*
G03*
X15950870Y-11976646I49121J10645D01*
G01*
X11931054Y-10855216D02*
G75*
G03*
X11881052Y-10805216I-50004J-4D01*
G01*
X12070259Y-11952163D02*
X12506759Y-11952163D01*
X16364270Y-11976647D02*
G75*
G03*
X16399625Y-11962001I0J49997D01*
G01*
X11865052Y-11275213D02*
G75*
G03*
X11816146Y-11335621I8J-50007D01*
G01*
X11771050Y-9310321D02*
X11771050Y-10755021D01*
X17362052Y-8137216D02*
X17362052Y-8497216D01*
X17313768Y-7558766D02*
G75*
G03*
X17442252Y-7617216I128222J111416D01*
G01*
X16485681Y-11896658D02*
G75*
G03*
X16450325Y-11911301I-1J-50002D01*
G01*
X12436456Y-8741390D02*
X12207456Y-8592690D01*
X12974200Y-11147518D02*
G75*
G03*
X12734378Y-11130580I-128380J-111442D01*
G01*
X17512054Y-8597216D02*
G75*
G03*
X17462052Y-8547216I-50004J-4D01*
G01*
X11771049Y-10755021D02*
G75*
G03*
X11821050Y-10805021I50001J1D01*
G01*
X13036901Y-7891508D02*
G75*
G03*
X12995467Y-7940761I8579J-49272D01*
G01*
X12436455Y-8741391D02*
G75*
G03*
X12645252Y-8625820I46615J162181D01*
G01*
X11816146Y-11335621D02*
X11935246Y-11916421D01*
D11*
D12*
X11858000Y-9976000D02*
X11918000Y-10036000D01*
X11918000Y-9976000D02*
X11858000Y-10036000D01*
X11882000Y-10276000D02*
X11942000Y-10336000D01*
X11942000Y-10276000D02*
X11882000Y-10336000D01*
X11890000Y-9429000D02*
X11950000Y-9489000D01*
X11950000Y-9429000D02*
X11890000Y-9489000D01*
X11969000Y-11537000D02*
X12029000Y-11597000D01*
X12029000Y-11537000D02*
X11969000Y-11597000D01*
X12012000Y-10446000D02*
X12072000Y-10506000D01*
X12072000Y-10446000D02*
X12012000Y-10506000D01*
X12027000Y-9259000D02*
X12087000Y-9319000D01*
X12087000Y-9259000D02*
X12027000Y-9319000D01*
X12038000Y-10632000D02*
X12098000Y-10692000D01*
X12098000Y-10632000D02*
X12038000Y-10692000D01*
X12041000Y-10863000D02*
X12101000Y-10923000D01*
X12101000Y-10863000D02*
X12041000Y-10923000D01*
X12054000Y-11126000D02*
X12114000Y-11186000D01*
X12114000Y-11126000D02*
X12054000Y-11186000D01*
X12105000Y-10210000D02*
X12165000Y-10270000D01*
X12165000Y-10210000D02*
X12105000Y-10270000D01*
X12142000Y-9057000D02*
X12202000Y-9117000D01*
X12202000Y-9057000D02*
X12142000Y-9117000D01*
X12200000Y-8771000D02*
X12260000Y-8831000D01*
X12260000Y-8771000D02*
X12200000Y-8831000D01*
X12282000Y-10494000D02*
X12342000Y-10554000D01*
X12342000Y-10494000D02*
X12282000Y-10554000D01*
X12312000Y-10260000D02*
X12372000Y-10320000D01*
X12372000Y-10260000D02*
X12312000Y-10320000D01*
X12381000Y-10911000D02*
X12441000Y-10971000D01*
X12441000Y-10911000D02*
X12381000Y-10971000D01*
X12397000Y-10032000D02*
X12457000Y-10092000D01*
X12457000Y-10032000D02*
X12397000Y-10092000D01*
X12419000Y-9388000D02*
X12479000Y-9448000D01*
X12479000Y-9388000D02*
X12419000Y-9448000D01*
X12467000Y-10712000D02*
X12527000Y-10772000D01*
X12527000Y-10712000D02*
X12467000Y-10772000D01*
X12498000Y-9269000D02*
X12558000Y-9329000D01*
X12558000Y-9269000D02*
X12498000Y-9329000D01*
X12583000Y-9388000D02*
X12643000Y-9448000D01*
X12643000Y-9388000D02*
X12583000Y-9448000D01*
X12691000Y-8817000D02*
X12751000Y-8877000D01*
X12751000Y-8817000D02*
X12691000Y-8877000D01*
X12754000Y-10489000D02*
X12814000Y-10549000D01*
X12814000Y-10489000D02*
X12754000Y-10549000D01*
X12771000Y-8597000D02*
X12831000Y-8657000D01*
X12831000Y-8597000D02*
X12771000Y-8657000D01*
X12779000Y-10871000D02*
X12839000Y-10931000D01*
X12839000Y-10871000D02*
X12779000Y-10931000D01*
X12919000Y-8326000D02*
X12979000Y-8386000D01*
X12979000Y-8326000D02*
X12919000Y-8386000D01*
X13091000Y-10216000D02*
X13151000Y-10276000D01*
X13151000Y-10216000D02*
X13091000Y-10276000D01*
X13124000Y-10788000D02*
X13184000Y-10848000D01*
X13184000Y-10788000D02*
X13124000Y-10848000D01*
X13139000Y-11119000D02*
X13199000Y-11179000D01*
X13199000Y-11119000D02*
X13139000Y-11179000D01*
X13140000Y-8015000D02*
X13200000Y-8075000D01*
X13200000Y-8015000D02*
X13140000Y-8075000D01*
X13143000Y-8900000D02*
X13203000Y-8960000D01*
X13203000Y-8900000D02*
X13143000Y-8960000D01*
X13181000Y-11567000D02*
X13241000Y-11627000D01*
X13241000Y-11567000D02*
X13181000Y-11627000D01*
X13193000Y-10578000D02*
X13253000Y-10638000D01*
X13253000Y-10578000D02*
X13193000Y-10638000D01*
X13278000Y-9169000D02*
X13338000Y-9229000D01*
X13338000Y-9169000D02*
X13278000Y-9229000D01*
X13338000Y-8856000D02*
X13398000Y-8916000D01*
X13398000Y-8856000D02*
X13338000Y-8916000D01*
X13366000Y-10388000D02*
X13426000Y-10448000D01*
X13426000Y-10388000D02*
X13366000Y-10448000D01*
X13396000Y-8604000D02*
X13456000Y-8664000D01*
X13456000Y-8604000D02*
X13396000Y-8664000D01*
X13416000Y-7900000D02*
X13476000Y-7960000D01*
X13476000Y-7900000D02*
X13416000Y-7960000D01*
X13497000Y-10919000D02*
X13557000Y-10979000D01*
X13557000Y-10919000D02*
X13497000Y-10979000D01*
X13507000Y-9396000D02*
X13567000Y-9456000D01*
X13567000Y-9396000D02*
X13507000Y-9456000D01*
X13525000Y-10766000D02*
X13585000Y-10826000D01*
X13585000Y-10766000D02*
X13525000Y-10826000D01*
X13533000Y-11646000D02*
X13593000Y-11706000D01*
X13593000Y-11646000D02*
X13533000Y-11706000D01*
X13573150Y-9822694D02*
X13633150Y-9882694D01*
X13633150Y-9822694D02*
X13573150Y-9882694D01*
X13617000Y-8790000D02*
X13677000Y-8850000D01*
X13677000Y-8790000D02*
X13617000Y-8850000D01*
X13639000Y-10911000D02*
X13699000Y-10971000D01*
X13699000Y-10911000D02*
X13639000Y-10971000D01*
X13671000Y-10767000D02*
X13731000Y-10827000D01*
X13731000Y-10767000D02*
X13671000Y-10827000D01*
X13689000Y-11810000D02*
X13749000Y-11870000D01*
X13749000Y-11810000D02*
X13689000Y-11870000D01*
X13714000Y-10242000D02*
X13774000Y-10302000D01*
X13774000Y-10242000D02*
X13714000Y-10302000D01*
X13745000Y-11190000D02*
X13805000Y-11250000D01*
X13805000Y-11190000D02*
X13745000Y-11250000D01*
X13777000Y-8248000D02*
X13837000Y-8308000D01*
X13837000Y-8248000D02*
X13777000Y-8308000D01*
X13779000Y-7872000D02*
X13839000Y-7932000D01*
X13839000Y-7872000D02*
X13779000Y-7932000D01*
X13808000Y-8671000D02*
X13868000Y-8731000D01*
X13868000Y-8671000D02*
X13808000Y-8731000D01*
X13825000Y-11601000D02*
X13885000Y-11661000D01*
X13885000Y-11601000D02*
X13825000Y-11661000D01*
X13845950Y-9795555D02*
X13905950Y-9855555D01*
X13905950Y-9795555D02*
X13845950Y-9855555D01*
X13936000Y-11794000D02*
X13996000Y-11854000D01*
X13996000Y-11794000D02*
X13936000Y-11854000D01*
X13981000Y-8805000D02*
X14041000Y-8865000D01*
X14041000Y-8805000D02*
X13981000Y-8865000D01*
X14077000Y-11598000D02*
X14137000Y-11658000D01*
X14137000Y-11598000D02*
X14077000Y-11658000D01*
X14093000Y-8238000D02*
X14153000Y-8298000D01*
X14153000Y-8238000D02*
X14093000Y-8298000D01*
X14097000Y-7804000D02*
X14157000Y-7864000D01*
X14157000Y-7804000D02*
X14097000Y-7864000D01*
X14131000Y-10972000D02*
X14191000Y-11032000D01*
X14191000Y-10972000D02*
X14131000Y-11032000D01*
X14144000Y-8682000D02*
X14204000Y-8742000D01*
X14204000Y-8682000D02*
X14144000Y-8742000D01*
X14188000Y-8841000D02*
X14248000Y-8901000D01*
X14248000Y-8841000D02*
X14188000Y-8901000D01*
X14199000Y-11412000D02*
X14259000Y-11472000D01*
X14259000Y-11412000D02*
X14199000Y-11472000D01*
X14220000Y-11797000D02*
X14280000Y-11857000D01*
X14280000Y-11797000D02*
X14220000Y-11857000D01*
X14308000Y-11601000D02*
X14368000Y-11661000D01*
X14368000Y-11601000D02*
X14308000Y-11661000D01*
X14328000Y-9151000D02*
X14388000Y-9211000D01*
X14388000Y-9151000D02*
X14328000Y-9211000D01*
X14344000Y-10584000D02*
X14404000Y-10644000D01*
X14404000Y-10584000D02*
X14344000Y-10644000D01*
X14356000Y-10293000D02*
X14416000Y-10353000D01*
X14416000Y-10293000D02*
X14356000Y-10353000D01*
X14357000Y-7751000D02*
X14417000Y-7811000D01*
X14417000Y-7751000D02*
X14357000Y-7811000D01*
X14374000Y-8227000D02*
X14434000Y-8287000D01*
X14434000Y-8227000D02*
X14374000Y-8287000D01*
X14424000Y-9727000D02*
X14484000Y-9787000D01*
X14484000Y-9727000D02*
X14424000Y-9787000D01*
X14520000Y-11794000D02*
X14580000Y-11854000D01*
X14580000Y-11794000D02*
X14520000Y-11854000D01*
X14563000Y-10591000D02*
X14623000Y-10651000D01*
X14623000Y-10591000D02*
X14563000Y-10651000D01*
X14675000Y-7689000D02*
X14735000Y-7749000D01*
X14735000Y-7689000D02*
X14675000Y-7749000D01*
X14699000Y-7888000D02*
X14759000Y-7948000D01*
X14759000Y-7888000D02*
X14699000Y-7948000D01*
X14973000Y-11220000D02*
X15033000Y-11280000D01*
X15033000Y-11220000D02*
X14973000Y-11280000D01*
X15253000Y-9125000D02*
X15313000Y-9185000D01*
X15313000Y-9125000D02*
X15253000Y-9185000D01*
X15277000Y-11226000D02*
X15337000Y-11286000D01*
X15337000Y-11226000D02*
X15277000Y-11286000D01*
X15345000Y-10089000D02*
X15405000Y-10149000D01*
X15405000Y-10089000D02*
X15345000Y-10149000D01*
X15360000Y-9737000D02*
X15420000Y-9797000D01*
X15420000Y-9737000D02*
X15360000Y-9797000D01*
X15381000Y-11660000D02*
X15441000Y-11720000D01*
X15441000Y-11660000D02*
X15381000Y-11720000D01*
X15477000Y-11259000D02*
X15537000Y-11319000D01*
X15537000Y-11259000D02*
X15477000Y-11319000D01*
X15499000Y-8612000D02*
X15559000Y-8672000D01*
X15559000Y-8612000D02*
X15499000Y-8672000D01*
X15515000Y-7736000D02*
X15575000Y-7796000D01*
X15575000Y-7736000D02*
X15515000Y-7796000D01*
X15599000Y-7544000D02*
X15659000Y-7604000D01*
X15659000Y-7544000D02*
X15599000Y-7604000D01*
X15632000Y-9726000D02*
X15692000Y-9786000D01*
X15692000Y-9726000D02*
X15632000Y-9786000D01*
X15641000Y-9890000D02*
X15701000Y-9950000D01*
X15701000Y-9890000D02*
X15641000Y-9950000D01*
X15666000Y-10046000D02*
X15726000Y-10106000D01*
X15726000Y-10046000D02*
X15666000Y-10106000D01*
X15769896Y-8965994D02*
X15829896Y-9025994D01*
X15829896Y-8965994D02*
X15769896Y-9025994D01*
X15794000Y-7640000D02*
X15854000Y-7700000D01*
X15854000Y-7640000D02*
X15794000Y-7700000D01*
X15832000Y-9663000D02*
X15892000Y-9723000D01*
X15892000Y-9663000D02*
X15832000Y-9723000D01*
X15844271Y-8846699D02*
X15904271Y-8906699D01*
X15904271Y-8846699D02*
X15844271Y-8906699D01*
X15941000Y-9335000D02*
X16001000Y-9395000D01*
X16001000Y-9335000D02*
X15941000Y-9395000D01*
X15985000Y-7509000D02*
X16045000Y-7569000D01*
X16045000Y-7509000D02*
X15985000Y-7569000D01*
X15987037Y-8829398D02*
X16047037Y-8889398D01*
X16047037Y-8829398D02*
X15987037Y-8889398D01*
X15989000Y-8168000D02*
X16049000Y-8228000D01*
X16049000Y-8168000D02*
X15989000Y-8228000D01*
X16014000Y-7983000D02*
X16074000Y-8043000D01*
X16074000Y-7983000D02*
X16014000Y-8043000D01*
X16045000Y-7795000D02*
X16105000Y-7855000D01*
X16105000Y-7795000D02*
X16045000Y-7855000D01*
X16057000Y-8343000D02*
X16117000Y-8403000D01*
X16117000Y-8343000D02*
X16057000Y-8403000D01*
X16078000Y-8612000D02*
X16138000Y-8672000D01*
X16138000Y-8612000D02*
X16078000Y-8672000D01*
X16079265Y-8934659D02*
X16139265Y-8994659D01*
X16139265Y-8934659D02*
X16079265Y-8994659D01*
X16102000Y-11796000D02*
X16162000Y-11856000D01*
X16162000Y-11796000D02*
X16102000Y-11856000D01*
X16106000Y-9356000D02*
X16166000Y-9416000D01*
X16166000Y-9356000D02*
X16106000Y-9416000D01*
X16109000Y-9536000D02*
X16169000Y-9596000D01*
X16169000Y-9536000D02*
X16109000Y-9596000D01*
X16117000Y-9921000D02*
X16177000Y-9981000D01*
X16177000Y-9921000D02*
X16117000Y-9981000D01*
X16256000Y-7421000D02*
X16316000Y-7481000D01*
X16316000Y-7421000D02*
X16256000Y-7481000D01*
X16264000Y-7624000D02*
X16324000Y-7684000D01*
X16324000Y-7624000D02*
X16264000Y-7684000D01*
X16294000Y-8445000D02*
X16354000Y-8505000D01*
X16354000Y-8445000D02*
X16294000Y-8505000D01*
X16302000Y-9158000D02*
X16362000Y-9218000D01*
X16362000Y-9158000D02*
X16302000Y-9218000D01*
X16304000Y-7935000D02*
X16364000Y-7995000D01*
X16364000Y-7935000D02*
X16304000Y-7995000D01*
X16323000Y-8648000D02*
X16383000Y-8708000D01*
X16383000Y-8648000D02*
X16323000Y-8708000D01*
X16431000Y-7760000D02*
X16491000Y-7820000D01*
X16491000Y-7760000D02*
X16431000Y-7820000D01*
X16442000Y-10301000D02*
X16502000Y-10361000D01*
X16502000Y-10301000D02*
X16442000Y-10361000D01*
X16475000Y-7556000D02*
X16535000Y-7616000D01*
X16535000Y-7556000D02*
X16475000Y-7616000D01*
X16490000Y-11723000D02*
X16550000Y-11783000D01*
X16550000Y-11723000D02*
X16490000Y-11783000D01*
X16518526Y-9736168D02*
X16578526Y-9796168D01*
X16578526Y-9736168D02*
X16518526Y-9796168D01*
X16559000Y-7991000D02*
X16619000Y-8051000D01*
X16619000Y-7991000D02*
X16559000Y-8051000D01*
X16609000Y-9479000D02*
X16669000Y-9539000D01*
X16669000Y-9479000D02*
X16609000Y-9539000D01*
X16631000Y-7457000D02*
X16691000Y-7517000D01*
X16691000Y-7457000D02*
X16631000Y-7517000D01*
X16646000Y-8187000D02*
X16706000Y-8247000D01*
X16706000Y-8187000D02*
X16646000Y-8247000D01*
X16824000Y-10034000D02*
X16884000Y-10094000D01*
X16884000Y-10034000D02*
X16824000Y-10094000D01*
X16835000Y-10748000D02*
X16895000Y-10808000D01*
X16895000Y-10748000D02*
X16835000Y-10808000D01*
X16872000Y-10366000D02*
X16932000Y-10426000D01*
X16932000Y-10366000D02*
X16872000Y-10426000D01*
X16969000Y-7469000D02*
X17029000Y-7529000D01*
X17029000Y-7469000D02*
X16969000Y-7529000D01*
X16994000Y-11771000D02*
X17054000Y-11831000D01*
X17054000Y-11771000D02*
X16994000Y-11831000D01*
X17030000Y-8568000D02*
X17090000Y-8628000D01*
X17090000Y-8568000D02*
X17030000Y-8628000D01*
X17035000Y-8307000D02*
X17095000Y-8367000D01*
X17095000Y-8307000D02*
X17035000Y-8367000D01*
X17071000Y-11509000D02*
X17131000Y-11569000D01*
X17131000Y-11509000D02*
X17071000Y-11569000D01*
X17106000Y-11011000D02*
X17166000Y-11071000D01*
X17166000Y-11011000D02*
X17106000Y-11071000D01*
X17138000Y-8683000D02*
X17198000Y-8743000D01*
X17198000Y-8683000D02*
X17138000Y-8743000D01*
X17178000Y-10788000D02*
X17238000Y-10848000D01*
X17238000Y-10788000D02*
X17178000Y-10848000D01*
X17231000Y-9924000D02*
X17291000Y-9984000D01*
X17291000Y-9924000D02*
X17231000Y-9984000D01*
X17239000Y-8565000D02*
X17299000Y-8625000D01*
X17299000Y-8565000D02*
X17239000Y-8625000D01*
X17255000Y-11197000D02*
X17315000Y-11257000D01*
X17315000Y-11197000D02*
X17255000Y-11257000D01*
X17310000Y-10382000D02*
X17370000Y-10442000D01*
X17370000Y-10382000D02*
X17310000Y-10442000D01*
X17335000Y-10955000D02*
X17395000Y-11015000D01*
X17395000Y-10955000D02*
X17335000Y-11015000D01*
X17345000Y-8723000D02*
X17405000Y-8783000D01*
X17405000Y-8723000D02*
X17345000Y-8783000D01*
X17355000Y-7700000D02*
X17415000Y-7760000D01*
X17415000Y-7700000D02*
X17355000Y-7760000D01*
X17362000Y-9414000D02*
X17422000Y-9474000D01*
X17422000Y-9414000D02*
X17362000Y-9474000D01*
X17363000Y-7939000D02*
X17423000Y-7999000D01*
X17423000Y-7939000D02*
X17363000Y-7999000D01*
X17379000Y-8922000D02*
X17439000Y-8982000D01*
X17439000Y-8922000D02*
X17379000Y-8982000D01*
D13*
X13692600Y-8494000D02*
G75*
G03*
X13692600Y-8494000I-47500J0D01*
G01*
X13942600Y-8494000D02*
G75*
G03*
X13942600Y-8494000I-47500J0D01*
G01*
X14192600Y-8494000D02*
G75*
G03*
X14192600Y-8494000I-47500J0D01*
G01*
X14442600Y-8494000D02*
G75*
G03*
X14442600Y-8494000I-47500J0D01*
G01*
X14692600Y-8494000D02*
G75*
G03*
X14692600Y-8494000I-47500J0D01*
G01*
X14942600Y-8494000D02*
G75*
G03*
X14942600Y-8494000I-47500J0D01*
G01*
X15192600Y-8494000D02*
G75*
G03*
X15192600Y-8494000I-47500J0D01*
G01*
X15442600Y-8494000D02*
G75*
G03*
X15442600Y-8494000I-47500J0D01*
G01*
X15692600Y-8494000D02*
G75*
G03*
X15692600Y-8494000I-47500J0D01*
G01*
X15942600Y-8494000D02*
G75*
G03*
X15942600Y-8494000I-47500J0D01*
G01*
D11*
X12023669Y-12292558D02*
X12023669Y-12092558D01*
X12071288Y-12092558D01*
X12099859Y-12102082D01*
X12118907Y-12121130D01*
X12128430Y-12140177D01*
X12137954Y-12178272D01*
X12137954Y-12206844D01*
X12128430Y-12244939D01*
X12118907Y-12263987D01*
X12099859Y-12283034D01*
X12071288Y-12292558D01*
X12023669Y-12292558D01*
X12223669Y-12292558D02*
X12223669Y-12159225D01*
X12223669Y-12197320D02*
X12233192Y-12178272D01*
X12242716Y-12168749D01*
X12261764Y-12159225D01*
X12280811Y-12159225D01*
X12347478Y-12292558D02*
X12347478Y-12159225D01*
X12347478Y-12092558D02*
X12337954Y-12102082D01*
X12347478Y-12111606D01*
X12357002Y-12102082D01*
X12347478Y-12092558D01*
X12347478Y-12111606D01*
X12471288Y-12292558D02*
X12452240Y-12283034D01*
X12442716Y-12263987D01*
X12442716Y-12092558D01*
X12576050Y-12292558D02*
X12557002Y-12283034D01*
X12547478Y-12263987D01*
X12547478Y-12092558D01*
X12804621Y-12292558D02*
X12804621Y-12092558D01*
X12871288Y-12235415D01*
X12937954Y-12092558D01*
X12937954Y-12292558D01*
X13118907Y-12292558D02*
X13118907Y-12187796D01*
X13109383Y-12168749D01*
X13090335Y-12159225D01*
X13052240Y-12159225D01*
X13033192Y-12168749D01*
X13118907Y-12283034D02*
X13099859Y-12292558D01*
X13052240Y-12292558D01*
X13033192Y-12283034D01*
X13023669Y-12263987D01*
X13023669Y-12244939D01*
X13033192Y-12225892D01*
X13052240Y-12216368D01*
X13099859Y-12216368D01*
X13118907Y-12206844D01*
X13214145Y-12159225D02*
X13214145Y-12359225D01*
X13214145Y-12168749D02*
X13233192Y-12159225D01*
X13271288Y-12159225D01*
X13290335Y-12168749D01*
X13299859Y-12178272D01*
X13309383Y-12197320D01*
X13309383Y-12254463D01*
X13299859Y-12273511D01*
X13290335Y-12283034D01*
X13271288Y-12292558D01*
X13233192Y-12292558D01*
X13214145Y-12283034D01*
X13395097Y-12273511D02*
X13404621Y-12283034D01*
X13395097Y-12292558D01*
X13385573Y-12283034D01*
X13395097Y-12273511D01*
X13395097Y-12292558D01*
X13395097Y-12168749D02*
X13404621Y-12178272D01*
X13395097Y-12187796D01*
X13385573Y-12178272D01*
X13395097Y-12168749D01*
X13395097Y-12187796D01*
D12*
X11706050Y-12592082D02*
X11766050Y-12652082D01*
X11766050Y-12592082D02*
X11706050Y-12652082D01*
D11*
X12061764Y-12512558D02*
X12080811Y-12512558D01*
X12099859Y-12522082D01*
X12109383Y-12531606D01*
X12118907Y-12550653D01*
X12128430Y-12588749D01*
X12128430Y-12636368D01*
X12118907Y-12674463D01*
X12109383Y-12693511D01*
X12099859Y-12703034D01*
X12080811Y-12712558D01*
X12061764Y-12712558D01*
X12042716Y-12703034D01*
X12033192Y-12693511D01*
X12023669Y-12674463D01*
X12014145Y-12636368D01*
X12014145Y-12588749D01*
X12023669Y-12550653D01*
X12033192Y-12531606D01*
X12042716Y-12522082D01*
X12061764Y-12512558D01*
X12214145Y-12693511D02*
X12223669Y-12703034D01*
X12214145Y-12712558D01*
X12204621Y-12703034D01*
X12214145Y-12693511D01*
X12214145Y-12712558D01*
X12395097Y-12512558D02*
X12357002Y-12512558D01*
X12337954Y-12522082D01*
X12328430Y-12531606D01*
X12309383Y-12560177D01*
X12299859Y-12598272D01*
X12299859Y-12674463D01*
X12309383Y-12693511D01*
X12318907Y-12703034D01*
X12337954Y-12712558D01*
X12376050Y-12712558D01*
X12395097Y-12703034D01*
X12404621Y-12693511D01*
X12414145Y-12674463D01*
X12414145Y-12626844D01*
X12404621Y-12607796D01*
X12395097Y-12598272D01*
X12376050Y-12588749D01*
X12337954Y-12588749D01*
X12318907Y-12598272D01*
X12309383Y-12607796D01*
X12299859Y-12626844D01*
X12537954Y-12512558D02*
X12557002Y-12512558D01*
X12576050Y-12522082D01*
X12585573Y-12531606D01*
X12595097Y-12550653D01*
X12604621Y-12588749D01*
X12604621Y-12636368D01*
X12595097Y-12674463D01*
X12585573Y-12693511D01*
X12576050Y-12703034D01*
X12557002Y-12712558D01*
X12537954Y-12712558D01*
X12518907Y-12703034D01*
X12509383Y-12693511D01*
X12499859Y-12674463D01*
X12490335Y-12636368D01*
X12490335Y-12588749D01*
X12499859Y-12550653D01*
X12509383Y-12531606D01*
X12518907Y-12522082D01*
X12537954Y-12512558D01*
X12728430Y-12512558D02*
X12747478Y-12512558D01*
X12766526Y-12522082D01*
X12776050Y-12531606D01*
X12785573Y-12550653D01*
X12795097Y-12588749D01*
X12795097Y-12636368D01*
X12785573Y-12674463D01*
X12776050Y-12693511D01*
X12766526Y-12703034D01*
X12747478Y-12712558D01*
X12728430Y-12712558D01*
X12709383Y-12703034D01*
X12699859Y-12693511D01*
X12690335Y-12674463D01*
X12680811Y-12636368D01*
X12680811Y-12588749D01*
X12690335Y-12550653D01*
X12699859Y-12531606D01*
X12709383Y-12522082D01*
X12728430Y-12512558D01*
X12880811Y-12712558D02*
X12880811Y-12579225D01*
X12880811Y-12598272D02*
X12890335Y-12588749D01*
X12909383Y-12579225D01*
X12937954Y-12579225D01*
X12957002Y-12588749D01*
X12966526Y-12607796D01*
X12966526Y-12712558D01*
X12966526Y-12607796D02*
X12976050Y-12588749D01*
X12995097Y-12579225D01*
X13023669Y-12579225D01*
X13042716Y-12588749D01*
X13052240Y-12607796D01*
X13052240Y-12712558D01*
X13147478Y-12712558D02*
X13147478Y-12579225D01*
X13147478Y-12598272D02*
X13157002Y-12588749D01*
X13176050Y-12579225D01*
X13204621Y-12579225D01*
X13223669Y-12588749D01*
X13233192Y-12607796D01*
X13233192Y-12712558D01*
X13233192Y-12607796D02*
X13242716Y-12588749D01*
X13261764Y-12579225D01*
X13290335Y-12579225D01*
X13309383Y-12588749D01*
X13318907Y-12607796D01*
X13318907Y-12712558D01*
X13709383Y-12503034D02*
X13537954Y-12760177D01*
X13966526Y-12512558D02*
X13985573Y-12512558D01*
X14004621Y-12522082D01*
X14014145Y-12531606D01*
X14023669Y-12550653D01*
X14033192Y-12588749D01*
X14033192Y-12636368D01*
X14023669Y-12674463D01*
X14014145Y-12693511D01*
X14004621Y-12703034D01*
X13985573Y-12712558D01*
X13966526Y-12712558D01*
X13947478Y-12703034D01*
X13937954Y-12693511D01*
X13928430Y-12674463D01*
X13918907Y-12636368D01*
X13918907Y-12588749D01*
X13928430Y-12550653D01*
X13937954Y-12531606D01*
X13947478Y-12522082D01*
X13966526Y-12512558D01*
X14118907Y-12693511D02*
X14128430Y-12703034D01*
X14118907Y-12712558D01*
X14109383Y-12703034D01*
X14118907Y-12693511D01*
X14118907Y-12712558D01*
X14252240Y-12512558D02*
X14271288Y-12512558D01*
X14290335Y-12522082D01*
X14299859Y-12531606D01*
X14309383Y-12550653D01*
X14318907Y-12588749D01*
X14318907Y-12636368D01*
X14309383Y-12674463D01*
X14299859Y-12693511D01*
X14290335Y-12703034D01*
X14271288Y-12712558D01*
X14252240Y-12712558D01*
X14233192Y-12703034D01*
X14223669Y-12693511D01*
X14214145Y-12674463D01*
X14204621Y-12636368D01*
X14204621Y-12588749D01*
X14214145Y-12550653D01*
X14223669Y-12531606D01*
X14233192Y-12522082D01*
X14252240Y-12512558D01*
X14395097Y-12531606D02*
X14404621Y-12522082D01*
X14423669Y-12512558D01*
X14471288Y-12512558D01*
X14490335Y-12522082D01*
X14499859Y-12531606D01*
X14509383Y-12550653D01*
X14509383Y-12569701D01*
X14499859Y-12598272D01*
X14385573Y-12712558D01*
X14509383Y-12712558D01*
X14576050Y-12512558D02*
X14699859Y-12512558D01*
X14633192Y-12588749D01*
X14661764Y-12588749D01*
X14680811Y-12598272D01*
X14690335Y-12607796D01*
X14699859Y-12626844D01*
X14699859Y-12674463D01*
X14690335Y-12693511D01*
X14680811Y-12703034D01*
X14661764Y-12712558D01*
X14604621Y-12712558D01*
X14585573Y-12703034D01*
X14576050Y-12693511D01*
X14871288Y-12512558D02*
X14833192Y-12512558D01*
X14814145Y-12522082D01*
X14804621Y-12531606D01*
X14785573Y-12560177D01*
X14776050Y-12598272D01*
X14776050Y-12674463D01*
X14785573Y-12693511D01*
X14795097Y-12703034D01*
X14814145Y-12712558D01*
X14852240Y-12712558D01*
X14871288Y-12703034D01*
X14880811Y-12693511D01*
X14890335Y-12674463D01*
X14890335Y-12626844D01*
X14880811Y-12607796D01*
X14871288Y-12598272D01*
X14852240Y-12588749D01*
X14814145Y-12588749D01*
X14795097Y-12598272D01*
X14785573Y-12607796D01*
X14776050Y-12626844D01*
X14966526Y-12512558D02*
X14966526Y-12550653D01*
X15042716Y-12512558D02*
X15042716Y-12550653D01*
X15337954Y-12788749D02*
X15328430Y-12779225D01*
X15309383Y-12750653D01*
X15299859Y-12731606D01*
X15290335Y-12703034D01*
X15280811Y-12655415D01*
X15280811Y-12617320D01*
X15290335Y-12569701D01*
X15299859Y-12541130D01*
X15309383Y-12522082D01*
X15328430Y-12493511D01*
X15337954Y-12483987D01*
X15518907Y-12712558D02*
X15404621Y-12712558D01*
X15461764Y-12712558D02*
X15461764Y-12512558D01*
X15442716Y-12541130D01*
X15423669Y-12560177D01*
X15404621Y-12569701D01*
X15690335Y-12579225D02*
X15690335Y-12712558D01*
X15642716Y-12503034D02*
X15595097Y-12645892D01*
X15718907Y-12645892D01*
X15833192Y-12512558D02*
X15852240Y-12512558D01*
X15871288Y-12522082D01*
X15880811Y-12531606D01*
X15890335Y-12550653D01*
X15899859Y-12588749D01*
X15899859Y-12636368D01*
X15890335Y-12674463D01*
X15880811Y-12693511D01*
X15871288Y-12703034D01*
X15852240Y-12712558D01*
X15833192Y-12712558D01*
X15814145Y-12703034D01*
X15804621Y-12693511D01*
X15795097Y-12674463D01*
X15785573Y-12636368D01*
X15785573Y-12588749D01*
X15795097Y-12550653D01*
X15804621Y-12531606D01*
X15814145Y-12522082D01*
X15833192Y-12512558D01*
X16137954Y-12712558D02*
X16137954Y-12512558D01*
X16223669Y-12712558D02*
X16223669Y-12607796D01*
X16214145Y-12588749D01*
X16195097Y-12579225D01*
X16166526Y-12579225D01*
X16147478Y-12588749D01*
X16137954Y-12598272D01*
X16347478Y-12712558D02*
X16328430Y-12703034D01*
X16318907Y-12693511D01*
X16309383Y-12674463D01*
X16309383Y-12617320D01*
X16318907Y-12598272D01*
X16328430Y-12588749D01*
X16347478Y-12579225D01*
X16376049Y-12579225D01*
X16395097Y-12588749D01*
X16404621Y-12598272D01*
X16414145Y-12617320D01*
X16414145Y-12674463D01*
X16404621Y-12693511D01*
X16395097Y-12703034D01*
X16376049Y-12712558D01*
X16347478Y-12712558D01*
X16528430Y-12712558D02*
X16509383Y-12703034D01*
X16499859Y-12683987D01*
X16499859Y-12512558D01*
X16680811Y-12703034D02*
X16661764Y-12712558D01*
X16623669Y-12712558D01*
X16604621Y-12703034D01*
X16595097Y-12683987D01*
X16595097Y-12607796D01*
X16604621Y-12588749D01*
X16623669Y-12579225D01*
X16661764Y-12579225D01*
X16680811Y-12588749D01*
X16690335Y-12607796D01*
X16690335Y-12626844D01*
X16595097Y-12645892D01*
X16766526Y-12703034D02*
X16785573Y-12712558D01*
X16823669Y-12712558D01*
X16842716Y-12703034D01*
X16852240Y-12683987D01*
X16852240Y-12674463D01*
X16842716Y-12655415D01*
X16823669Y-12645892D01*
X16795097Y-12645892D01*
X16776049Y-12636368D01*
X16766526Y-12617320D01*
X16766526Y-12607796D01*
X16776049Y-12588749D01*
X16795097Y-12579225D01*
X16823669Y-12579225D01*
X16842716Y-12588749D01*
X16918907Y-12788749D02*
X16928431Y-12779225D01*
X16947478Y-12750653D01*
X16957002Y-12731606D01*
X16966526Y-12703034D01*
X16976050Y-12655415D01*
X16976050Y-12617320D01*
X16966526Y-12569701D01*
X16957002Y-12541130D01*
X16947478Y-12522082D01*
X16928431Y-12493511D01*
X16918907Y-12483987D01*
D13*
X11766050Y-12886082D02*
G75*
G03*
X11766050Y-12886082I-47500J0D01*
G01*
D11*
X12061764Y-12776558D02*
X12080811Y-12776558D01*
X12099859Y-12786082D01*
X12109383Y-12795606D01*
X12118907Y-12814653D01*
X12128430Y-12852749D01*
X12128430Y-12900368D01*
X12118907Y-12938463D01*
X12109383Y-12957511D01*
X12099859Y-12967034D01*
X12080811Y-12976558D01*
X12061764Y-12976558D01*
X12042716Y-12967034D01*
X12033192Y-12957511D01*
X12023669Y-12938463D01*
X12014145Y-12900368D01*
X12014145Y-12852749D01*
X12023669Y-12814653D01*
X12033192Y-12795606D01*
X12042716Y-12786082D01*
X12061764Y-12776558D01*
X12214145Y-12957511D02*
X12223669Y-12967034D01*
X12214145Y-12976558D01*
X12204621Y-12967034D01*
X12214145Y-12957511D01*
X12214145Y-12976558D01*
X12318907Y-12976558D02*
X12357002Y-12976558D01*
X12376050Y-12967034D01*
X12385573Y-12957511D01*
X12404621Y-12928939D01*
X12414145Y-12890844D01*
X12414145Y-12814653D01*
X12404621Y-12795606D01*
X12395097Y-12786082D01*
X12376050Y-12776558D01*
X12337954Y-12776558D01*
X12318907Y-12786082D01*
X12309383Y-12795606D01*
X12299859Y-12814653D01*
X12299859Y-12862272D01*
X12309383Y-12881320D01*
X12318907Y-12890844D01*
X12337954Y-12900368D01*
X12376050Y-12900368D01*
X12395097Y-12890844D01*
X12404621Y-12881320D01*
X12414145Y-12862272D01*
X12595097Y-12776558D02*
X12499859Y-12776558D01*
X12490335Y-12871796D01*
X12499859Y-12862272D01*
X12518907Y-12852749D01*
X12566526Y-12852749D01*
X12585573Y-12862272D01*
X12595097Y-12871796D01*
X12604621Y-12890844D01*
X12604621Y-12938463D01*
X12595097Y-12957511D01*
X12585573Y-12967034D01*
X12566526Y-12976558D01*
X12518907Y-12976558D01*
X12499859Y-12967034D01*
X12490335Y-12957511D01*
X12728430Y-12776558D02*
X12747478Y-12776558D01*
X12766526Y-12786082D01*
X12776050Y-12795606D01*
X12785573Y-12814653D01*
X12795097Y-12852749D01*
X12795097Y-12900368D01*
X12785573Y-12938463D01*
X12776050Y-12957511D01*
X12766526Y-12967034D01*
X12747478Y-12976558D01*
X12728430Y-12976558D01*
X12709383Y-12967034D01*
X12699859Y-12957511D01*
X12690335Y-12938463D01*
X12680811Y-12900368D01*
X12680811Y-12852749D01*
X12690335Y-12814653D01*
X12699859Y-12795606D01*
X12709383Y-12786082D01*
X12728430Y-12776558D01*
X12880811Y-12976558D02*
X12880811Y-12843225D01*
X12880811Y-12862272D02*
X12890335Y-12852749D01*
X12909383Y-12843225D01*
X12937954Y-12843225D01*
X12957002Y-12852749D01*
X12966526Y-12871796D01*
X12966526Y-12976558D01*
X12966526Y-12871796D02*
X12976050Y-12852749D01*
X12995097Y-12843225D01*
X13023669Y-12843225D01*
X13042716Y-12852749D01*
X13052240Y-12871796D01*
X13052240Y-12976558D01*
X13147478Y-12976558D02*
X13147478Y-12843225D01*
X13147478Y-12862272D02*
X13157002Y-12852749D01*
X13176050Y-12843225D01*
X13204621Y-12843225D01*
X13223669Y-12852749D01*
X13233192Y-12871796D01*
X13233192Y-12976558D01*
X13233192Y-12871796D02*
X13242716Y-12852749D01*
X13261764Y-12843225D01*
X13290335Y-12843225D01*
X13309383Y-12852749D01*
X13318907Y-12871796D01*
X13318907Y-12976558D01*
X13709383Y-12767034D02*
X13537954Y-13024177D01*
X13966526Y-12776558D02*
X13985573Y-12776558D01*
X14004621Y-12786082D01*
X14014145Y-12795606D01*
X14023669Y-12814653D01*
X14033192Y-12852749D01*
X14033192Y-12900368D01*
X14023669Y-12938463D01*
X14014145Y-12957511D01*
X14004621Y-12967034D01*
X13985573Y-12976558D01*
X13966526Y-12976558D01*
X13947478Y-12967034D01*
X13937954Y-12957511D01*
X13928430Y-12938463D01*
X13918907Y-12900368D01*
X13918907Y-12852749D01*
X13928430Y-12814653D01*
X13937954Y-12795606D01*
X13947478Y-12786082D01*
X13966526Y-12776558D01*
X14118907Y-12957511D02*
X14128430Y-12967034D01*
X14118907Y-12976558D01*
X14109383Y-12967034D01*
X14118907Y-12957511D01*
X14118907Y-12976558D01*
X14252240Y-12776558D02*
X14271288Y-12776558D01*
X14290335Y-12786082D01*
X14299859Y-12795606D01*
X14309383Y-12814653D01*
X14318907Y-12852749D01*
X14318907Y-12900368D01*
X14309383Y-12938463D01*
X14299859Y-12957511D01*
X14290335Y-12967034D01*
X14271288Y-12976558D01*
X14252240Y-12976558D01*
X14233192Y-12967034D01*
X14223669Y-12957511D01*
X14214145Y-12938463D01*
X14204621Y-12900368D01*
X14204621Y-12852749D01*
X14214145Y-12814653D01*
X14223669Y-12795606D01*
X14233192Y-12786082D01*
X14252240Y-12776558D01*
X14385573Y-12776558D02*
X14509383Y-12776558D01*
X14442716Y-12852749D01*
X14471288Y-12852749D01*
X14490335Y-12862272D01*
X14499859Y-12871796D01*
X14509383Y-12890844D01*
X14509383Y-12938463D01*
X14499859Y-12957511D01*
X14490335Y-12967034D01*
X14471288Y-12976558D01*
X14414145Y-12976558D01*
X14395097Y-12967034D01*
X14385573Y-12957511D01*
X14576050Y-12776558D02*
X14709383Y-12776558D01*
X14623669Y-12976558D01*
X14871288Y-12843225D02*
X14871288Y-12976558D01*
X14823669Y-12767034D02*
X14776050Y-12909892D01*
X14899859Y-12909892D01*
X14966526Y-12776558D02*
X14966526Y-12814653D01*
X15042716Y-12776558D02*
X15042716Y-12814653D01*
X15337954Y-13052749D02*
X15328430Y-13043225D01*
X15309383Y-13014653D01*
X15299859Y-12995606D01*
X15290335Y-12967034D01*
X15280811Y-12919415D01*
X15280811Y-12881320D01*
X15290335Y-12833701D01*
X15299859Y-12805130D01*
X15309383Y-12786082D01*
X15328430Y-12757511D01*
X15337954Y-12747987D01*
X15518907Y-12976558D02*
X15404621Y-12976558D01*
X15461764Y-12976558D02*
X15461764Y-12776558D01*
X15442716Y-12805130D01*
X15423669Y-12824177D01*
X15404621Y-12833701D01*
X15642716Y-12776558D02*
X15661764Y-12776558D01*
X15680811Y-12786082D01*
X15690335Y-12795606D01*
X15699859Y-12814653D01*
X15709383Y-12852749D01*
X15709383Y-12900368D01*
X15699859Y-12938463D01*
X15690335Y-12957511D01*
X15680811Y-12967034D01*
X15661764Y-12976558D01*
X15642716Y-12976558D01*
X15623669Y-12967034D01*
X15614145Y-12957511D01*
X15604621Y-12938463D01*
X15595097Y-12900368D01*
X15595097Y-12852749D01*
X15604621Y-12814653D01*
X15614145Y-12795606D01*
X15623669Y-12786082D01*
X15642716Y-12776558D01*
X15947478Y-12976558D02*
X15947478Y-12776558D01*
X16033192Y-12976558D02*
X16033192Y-12871796D01*
X16023669Y-12852749D01*
X16004621Y-12843225D01*
X15976049Y-12843225D01*
X15957002Y-12852749D01*
X15947478Y-12862272D01*
X16157002Y-12976558D02*
X16137954Y-12967034D01*
X16128430Y-12957511D01*
X16118907Y-12938463D01*
X16118907Y-12881320D01*
X16128430Y-12862272D01*
X16137954Y-12852749D01*
X16157002Y-12843225D01*
X16185573Y-12843225D01*
X16204621Y-12852749D01*
X16214145Y-12862272D01*
X16223669Y-12881320D01*
X16223669Y-12938463D01*
X16214145Y-12957511D01*
X16204621Y-12967034D01*
X16185573Y-12976558D01*
X16157002Y-12976558D01*
X16337954Y-12976558D02*
X16318907Y-12967034D01*
X16309383Y-12947987D01*
X16309383Y-12776558D01*
X16490335Y-12967034D02*
X16471288Y-12976558D01*
X16433192Y-12976558D01*
X16414145Y-12967034D01*
X16404621Y-12947987D01*
X16404621Y-12871796D01*
X16414145Y-12852749D01*
X16433192Y-12843225D01*
X16471288Y-12843225D01*
X16490335Y-12852749D01*
X16499859Y-12871796D01*
X16499859Y-12890844D01*
X16404621Y-12909892D01*
X16576049Y-12967034D02*
X16595097Y-12976558D01*
X16633192Y-12976558D01*
X16652240Y-12967034D01*
X16661764Y-12947987D01*
X16661764Y-12938463D01*
X16652240Y-12919415D01*
X16633192Y-12909892D01*
X16604621Y-12909892D01*
X16585573Y-12900368D01*
X16576049Y-12881320D01*
X16576049Y-12871796D01*
X16585573Y-12852749D01*
X16604621Y-12843225D01*
X16633192Y-12843225D01*
X16652240Y-12852749D01*
X16728430Y-13052749D02*
X16737954Y-13043225D01*
X16757002Y-13014653D01*
X16766526Y-12995606D01*
X16776049Y-12967034D01*
X16785573Y-12919415D01*
X16785573Y-12881320D01*
X16776049Y-12833701D01*
X16766526Y-12805130D01*
X16757002Y-12786082D01*
X16737954Y-12757511D01*
X16728430Y-12747987D01*
M02*
