%TF.GenerationSoftware,KiCad,Pcbnew,(6.0.6)*%
%TF.CreationDate,2023-05-08T04:54:07+09:00*%
%TF.ProjectId,128KB_64pin_Touch_R_halfduplex_x2,3132384b-425f-4363-9470-696e5f546f75,rev?*%
%TF.SameCoordinates,Original*%
%TF.FileFunction,Copper,L2,Inr*%
%TF.FilePolarity,Positive*%
%FSLAX46Y46*%
G04 Gerber Fmt 4.6, Leading zero omitted, Abs format (unit mm)*
G04 Created by KiCad (PCBNEW (6.0.6)) date 2023-05-08 04:54:07*
%MOMM*%
%LPD*%
G01*
G04 APERTURE LIST*
G04 Aperture macros list*
%AMRoundRect*
0 Rectangle with rounded corners*
0 $1 Rounding radius*
0 $2 $3 $4 $5 $6 $7 $8 $9 X,Y pos of 4 corners*
0 Add a 4 corners polygon primitive as box body*
4,1,4,$2,$3,$4,$5,$6,$7,$8,$9,$2,$3,0*
0 Add four circle primitives for the rounded corners*
1,1,$1+$1,$2,$3*
1,1,$1+$1,$4,$5*
1,1,$1+$1,$6,$7*
1,1,$1+$1,$8,$9*
0 Add four rect primitives between the rounded corners*
20,1,$1+$1,$2,$3,$4,$5,0*
20,1,$1+$1,$4,$5,$6,$7,0*
20,1,$1+$1,$6,$7,$8,$9,0*
20,1,$1+$1,$8,$9,$2,$3,0*%
G04 Aperture macros list end*
%TA.AperFunction,ComponentPad*%
%ADD10RoundRect,0.250000X0.600000X0.725000X-0.600000X0.725000X-0.600000X-0.725000X0.600000X-0.725000X0*%
%TD*%
%TA.AperFunction,ComponentPad*%
%ADD11O,1.700000X1.950000*%
%TD*%
%TA.AperFunction,ViaPad*%
%ADD12C,1.200000*%
%TD*%
G04 APERTURE END LIST*
D10*
%TO.N,Net-(D3-Pad2)*%
%TO.C,J1*%
X157514994Y-92000000D03*
D11*
%TO.N,Net-(C5-Pad1)*%
X155014994Y-92000000D03*
%TO.N,Net-(C10-Pad2)*%
X152514994Y-92000000D03*
%TO.N,GND*%
X150014994Y-92000000D03*
%TO.N,Net-(R3-Pad1)*%
X147514994Y-92000000D03*
%TO.N,Net-(J1-Pad6)*%
X145014994Y-92000000D03*
%TO.N,Net-(R1-Pad1)*%
X142514994Y-92000000D03*
%TO.N,Net-(C1-Pad1)*%
X140014994Y-92000000D03*
%TO.N,Net-(FL2-Pad2)*%
X137514994Y-92000000D03*
%TO.N,Net-(J1-Pad10)*%
X135014994Y-92000000D03*
%TD*%
D12*
%TO.N,+5V*%
X149080000Y-103950000D03*
X157650000Y-116410000D03*
X156050000Y-118550000D03*
X135480000Y-108480000D03*
X153030000Y-102420000D03*
X130840000Y-99040000D03*
%TO.N,+BATT*%
X167210000Y-106040000D03*
X166440000Y-102760000D03*
X167940000Y-104000000D03*
%TO.N,Net-(D4-Pad1)*%
X152210000Y-86270000D03*
%TO.N,GND*%
X123650000Y-117280000D03*
X127100000Y-125360000D03*
X161850000Y-113650000D03*
X145910000Y-120930000D03*
X156680000Y-123480000D03*
X127530000Y-85340000D03*
X168350000Y-123790000D03*
X148070000Y-114140000D03*
X163940000Y-112750000D03*
X162510000Y-87480000D03*
X132260000Y-91590000D03*
X134220000Y-89970000D03*
X120070000Y-111210000D03*
X130120000Y-93200000D03*
X123770000Y-104400000D03*
X171780000Y-95770000D03*
X154960000Y-86590000D03*
X132140000Y-105460000D03*
X138970000Y-83570000D03*
X124450000Y-94080000D03*
X171580000Y-126210000D03*
X127070000Y-93720000D03*
X137040000Y-85080000D03*
X120410000Y-85100000D03*
X132180000Y-103610000D03*
X161710000Y-96370000D03*
X138630000Y-87220000D03*
X171000000Y-109340000D03*
X160920000Y-123230000D03*
X154870000Y-125780000D03*
X173000000Y-111090000D03*
X150240000Y-118930000D03*
X134960000Y-120380000D03*
X157450000Y-125400000D03*
X150020000Y-120650000D03*
X144800000Y-125890000D03*
X170100000Y-115710000D03*
X131470000Y-90010000D03*
X165310000Y-115700000D03*
X167810000Y-118720000D03*
X122100000Y-121570000D03*
X147500000Y-125750000D03*
X123240000Y-115450000D03*
X123440000Y-123530000D03*
X121320000Y-106530000D03*
X154090000Y-123380000D03*
X127000000Y-90790000D03*
X138300000Y-120760000D03*
X172580000Y-113190000D03*
X173350000Y-119850000D03*
X142296712Y-109793341D03*
X167410000Y-111860000D03*
X160090000Y-119050000D03*
X119910000Y-100540000D03*
X163170000Y-100830000D03*
X168520000Y-101890000D03*
X121490000Y-93910000D03*
X133930000Y-82780000D03*
X174690000Y-101690000D03*
X168690000Y-113910000D03*
X141250000Y-93300000D03*
X174840000Y-109130000D03*
X165240000Y-92570000D03*
X149960000Y-96920000D03*
X132290000Y-107540000D03*
X142720000Y-125720000D03*
X137980000Y-101160000D03*
X146770000Y-113300000D03*
X126310000Y-120440000D03*
X120920000Y-118190000D03*
X174120000Y-123520000D03*
X121590000Y-90410000D03*
X120700000Y-115110000D03*
X146680000Y-115370000D03*
X138330000Y-109010000D03*
X161500000Y-121010000D03*
X148080000Y-84710000D03*
X150950000Y-125910000D03*
X167050000Y-96180000D03*
X134750000Y-86670000D03*
X131890000Y-85170000D03*
X123160000Y-119320000D03*
X129850000Y-82730000D03*
X129070000Y-91450000D03*
X173220000Y-117030000D03*
X124120000Y-82710000D03*
X151780000Y-123890000D03*
X158530000Y-96740000D03*
X124570000Y-88780000D03*
X130088218Y-86857628D03*
X154420000Y-110240000D03*
%TO.N,Net-(IC3-Pad3)*%
X145530000Y-106120000D03*
%TO.N,Net-(IC1-Pad4)*%
X160840000Y-111030000D03*
X124580000Y-99010000D03*
%TO.N,Net-(C5-Pad1)*%
X158338957Y-101348957D03*
%TO.N,Net-(C10-Pad2)*%
X155330000Y-105510000D03*
%TO.N,Net-(IC4-Pad58)*%
X141541857Y-94720999D03*
%TO.N,Net-(IC4-Pad59)*%
X144470000Y-95120500D03*
%TO.N,Net-(IC4-Pad60)*%
X147580000Y-95870000D03*
%TO.N,Net-(Q3-Pad3)*%
X145830000Y-102770000D03*
%TO.N,Net-(IC4-Pad61)*%
X140711043Y-97071043D03*
%TO.N,Net-(IC4-Pad19)*%
X140942062Y-111249972D03*
%TO.N,Net-(IC1-Pad2)*%
X157860000Y-106950000D03*
%TD*%
%TA.AperFunction,Conductor*%
%TO.N,+5V*%
G36*
X151371036Y-101195414D02*
G01*
X153911379Y-101401201D01*
X153967853Y-101424745D01*
X153999702Y-101476988D01*
X154000844Y-101517280D01*
X153243538Y-105758538D01*
X152283539Y-111134968D01*
X145720800Y-106920779D01*
X145865832Y-106873655D01*
X145865834Y-106873654D01*
X145871097Y-106871944D01*
X145875853Y-106869109D01*
X145875855Y-106869108D01*
X146024462Y-106780520D01*
X146029213Y-106777688D01*
X146162517Y-106650745D01*
X146180425Y-106623792D01*
X146261321Y-106502032D01*
X146264384Y-106497422D01*
X146329751Y-106325341D01*
X146355370Y-106143055D01*
X146355692Y-106120000D01*
X146335173Y-105937069D01*
X146274636Y-105763230D01*
X146177089Y-105607123D01*
X146047382Y-105476507D01*
X145937470Y-105406755D01*
X146205435Y-104730010D01*
X147695058Y-100967966D01*
X147734061Y-100920823D01*
X147795098Y-100905736D01*
X151371036Y-101195414D01*
G37*
%TD.AperFunction*%
%TD*%
%TA.AperFunction,Conductor*%
%TO.N,+5V*%
G36*
X135481822Y-97963388D02*
G01*
X135518447Y-98012400D01*
X135523700Y-98042722D01*
X135582172Y-101823937D01*
X135850124Y-102330680D01*
X143618747Y-102141515D01*
X143677380Y-102159001D01*
X143691777Y-102171106D01*
X153661682Y-112320470D01*
X153672405Y-112320591D01*
X158838643Y-112378857D01*
X158896617Y-112398420D01*
X158932021Y-112448322D01*
X158936467Y-112481302D01*
X158699265Y-119282820D01*
X158678341Y-119340316D01*
X158627617Y-119374533D01*
X158594752Y-119378212D01*
X155124096Y-119182487D01*
X155067063Y-119160333D01*
X155052394Y-119145525D01*
X147068074Y-109174639D01*
X146200856Y-108091650D01*
X144922441Y-106938258D01*
X144891901Y-106885240D01*
X144898357Y-106824396D01*
X144904153Y-106817972D01*
X144893297Y-106828455D01*
X144832707Y-106836970D01*
X144783582Y-106812979D01*
X144607997Y-106654565D01*
X144002710Y-106108472D01*
X144704388Y-106108472D01*
X144708080Y-106146124D01*
X144721811Y-106286169D01*
X144721812Y-106286174D01*
X144722351Y-106291671D01*
X144780455Y-106466338D01*
X144783320Y-106471069D01*
X144783322Y-106471073D01*
X144799280Y-106497422D01*
X144875813Y-106623792D01*
X144879655Y-106627771D01*
X144879657Y-106627773D01*
X144921114Y-106670703D01*
X144947936Y-106725696D01*
X144938348Y-106780070D01*
X144939343Y-106778967D01*
X144999204Y-106766306D01*
X145042967Y-106781913D01*
X145157714Y-106857001D01*
X145330247Y-106921165D01*
X145335731Y-106921897D01*
X145335732Y-106921897D01*
X145458350Y-106938258D01*
X145512708Y-106945511D01*
X145518213Y-106945010D01*
X145518216Y-106945010D01*
X145592487Y-106938250D01*
X145696028Y-106928827D01*
X145701286Y-106927119D01*
X145701289Y-106927118D01*
X145865832Y-106873655D01*
X145865834Y-106873654D01*
X145871097Y-106871944D01*
X145875853Y-106869109D01*
X145875855Y-106869108D01*
X146024462Y-106780520D01*
X146029213Y-106777688D01*
X146162517Y-106650745D01*
X146177780Y-106627773D01*
X146261321Y-106502032D01*
X146264384Y-106497422D01*
X146329751Y-106325341D01*
X146330667Y-106318827D01*
X146354937Y-106146136D01*
X146355370Y-106143055D01*
X146355692Y-106120000D01*
X146335173Y-105937069D01*
X146274636Y-105763230D01*
X146177089Y-105607123D01*
X146113553Y-105543141D01*
X146051282Y-105480434D01*
X146051280Y-105480433D01*
X146047382Y-105476507D01*
X145891960Y-105377873D01*
X145872959Y-105371107D01*
X145723760Y-105317980D01*
X145723758Y-105317980D01*
X145718547Y-105316124D01*
X145692282Y-105312992D01*
X145541260Y-105294983D01*
X145541257Y-105294983D01*
X145535764Y-105294328D01*
X145352695Y-105313570D01*
X145265566Y-105343231D01*
X145183679Y-105371107D01*
X145183675Y-105371109D01*
X145178437Y-105372892D01*
X145173727Y-105375790D01*
X145173722Y-105375792D01*
X145055583Y-105448472D01*
X145021653Y-105469346D01*
X145017704Y-105473213D01*
X145017703Y-105473214D01*
X144956596Y-105533055D01*
X144890135Y-105598138D01*
X144790418Y-105752868D01*
X144727460Y-105925845D01*
X144704388Y-106108472D01*
X144002710Y-106108472D01*
X142889502Y-105104131D01*
X140278281Y-105011066D01*
X137402850Y-104908584D01*
X137402848Y-104908584D01*
X137387180Y-104908026D01*
X137384172Y-105380840D01*
X137360630Y-109080922D01*
X137341353Y-109138991D01*
X137291625Y-109174639D01*
X137260922Y-109179289D01*
X136301430Y-109172403D01*
X133275345Y-109150684D01*
X133217292Y-109131360D01*
X133181684Y-109081603D01*
X133177102Y-109054696D01*
X133110649Y-106869108D01*
X133072146Y-105602790D01*
X132910477Y-100285672D01*
X132910476Y-100285671D01*
X132910000Y-100270000D01*
X129980686Y-100320874D01*
X129922177Y-100302980D01*
X129885359Y-100254112D01*
X129879972Y-100222787D01*
X129860894Y-98118565D01*
X129879273Y-98060205D01*
X129928445Y-98023794D01*
X129958560Y-98018676D01*
X130434356Y-98012284D01*
X135423382Y-97945264D01*
X135481822Y-97963388D01*
G37*
%TD.AperFunction*%
%TD*%
%TA.AperFunction,Conductor*%
%TO.N,GND*%
G36*
X134417142Y-81352115D02*
G01*
X142862058Y-82896581D01*
X142915897Y-82925649D01*
X142942369Y-82980811D01*
X142931362Y-83040998D01*
X142887079Y-83083221D01*
X142842692Y-83092954D01*
X142731728Y-83091211D01*
X142581434Y-83088850D01*
X142260069Y-83120926D01*
X142257281Y-83121534D01*
X142257274Y-83121535D01*
X141947308Y-83189119D01*
X141947306Y-83189120D01*
X141944520Y-83189727D01*
X141638970Y-83294340D01*
X141347468Y-83433379D01*
X141345062Y-83434888D01*
X141345057Y-83434891D01*
X141279950Y-83475733D01*
X141073880Y-83605001D01*
X140821830Y-83806931D01*
X140594660Y-84036493D01*
X140592899Y-84038739D01*
X140592898Y-84038740D01*
X140424117Y-84253994D01*
X140395380Y-84290643D01*
X140226633Y-84566014D01*
X140090654Y-84858955D01*
X140089760Y-84861660D01*
X140089757Y-84861666D01*
X140041256Y-85008320D01*
X139989246Y-85165584D01*
X139923754Y-85481836D01*
X139923501Y-85484674D01*
X139923500Y-85484679D01*
X139899572Y-85752790D01*
X139895044Y-85803520D01*
X139895119Y-85806370D01*
X139897351Y-85891635D01*
X139897917Y-85913230D01*
X139903498Y-86126372D01*
X139903900Y-86129199D01*
X139903901Y-86129207D01*
X139947589Y-86436169D01*
X139949004Y-86446112D01*
X139949730Y-86448880D01*
X139949731Y-86448884D01*
X139956045Y-86472950D01*
X140030959Y-86758504D01*
X140096921Y-86927688D01*
X140143674Y-87047603D01*
X140148275Y-87059405D01*
X140149607Y-87061920D01*
X140149608Y-87061923D01*
X140167127Y-87095010D01*
X140299399Y-87344828D01*
X140301011Y-87347173D01*
X140451667Y-87566379D01*
X140482327Y-87610990D01*
X140694634Y-87854363D01*
X140933507Y-88071721D01*
X140935823Y-88073385D01*
X140935824Y-88073386D01*
X141193461Y-88258517D01*
X141193465Y-88258520D01*
X141195780Y-88260183D01*
X141477976Y-88417251D01*
X141693374Y-88506472D01*
X141773722Y-88539753D01*
X141773725Y-88539754D01*
X141776354Y-88540843D01*
X142086961Y-88629322D01*
X142405678Y-88681514D01*
X142728282Y-88696727D01*
X142731127Y-88696533D01*
X142731131Y-88696533D01*
X143047651Y-88674955D01*
X143050497Y-88674761D01*
X143368051Y-88615906D01*
X143370767Y-88615071D01*
X143370773Y-88615069D01*
X143522394Y-88568424D01*
X143676736Y-88520942D01*
X143841048Y-88448813D01*
X143969856Y-88392271D01*
X143969863Y-88392268D01*
X143972461Y-88391127D01*
X143974914Y-88389694D01*
X143974923Y-88389689D01*
X144248836Y-88229627D01*
X144248839Y-88229625D01*
X144251305Y-88228184D01*
X144397792Y-88118199D01*
X144507292Y-88035985D01*
X144507299Y-88035979D01*
X144509574Y-88034271D01*
X144743842Y-87811958D01*
X144745670Y-87809772D01*
X144949179Y-87566379D01*
X144949184Y-87566372D01*
X144951007Y-87564192D01*
X145128320Y-87294258D01*
X145129594Y-87291725D01*
X145129598Y-87291718D01*
X145272157Y-87008270D01*
X145273433Y-87005733D01*
X145348448Y-86800745D01*
X145383441Y-86705124D01*
X145383442Y-86705121D01*
X145384423Y-86702440D01*
X145388055Y-86687314D01*
X145425150Y-86532801D01*
X145459817Y-86388401D01*
X145460162Y-86385555D01*
X145475540Y-86258472D01*
X151384388Y-86258472D01*
X151392488Y-86341086D01*
X151401811Y-86436169D01*
X151401812Y-86436174D01*
X151402351Y-86441671D01*
X151460455Y-86616338D01*
X151463320Y-86621069D01*
X151463322Y-86621073D01*
X151514226Y-86705124D01*
X151555813Y-86773792D01*
X151559655Y-86777771D01*
X151559657Y-86777773D01*
X151611472Y-86831429D01*
X151683684Y-86906207D01*
X151837714Y-87007001D01*
X152010247Y-87071165D01*
X152015731Y-87071897D01*
X152015732Y-87071897D01*
X152187222Y-87094779D01*
X152192708Y-87095511D01*
X152198213Y-87095010D01*
X152198216Y-87095010D01*
X152272487Y-87088250D01*
X152376028Y-87078827D01*
X152381286Y-87077119D01*
X152381289Y-87077118D01*
X152545832Y-87023655D01*
X152545834Y-87023654D01*
X152551097Y-87021944D01*
X152555853Y-87019109D01*
X152555855Y-87019108D01*
X152704462Y-86930520D01*
X152709213Y-86927688D01*
X152842517Y-86800745D01*
X152857780Y-86777773D01*
X152941321Y-86652032D01*
X152944384Y-86647422D01*
X153009751Y-86475341D01*
X153013470Y-86448884D01*
X153034937Y-86296136D01*
X153035370Y-86293055D01*
X153035692Y-86270000D01*
X153015173Y-86087069D01*
X152954636Y-85913230D01*
X152857089Y-85757123D01*
X152727382Y-85626507D01*
X152571960Y-85527873D01*
X152552959Y-85521107D01*
X152403760Y-85467980D01*
X152403758Y-85467980D01*
X152398547Y-85466124D01*
X152372282Y-85462992D01*
X152221260Y-85444983D01*
X152221257Y-85444983D01*
X152215764Y-85444328D01*
X152032695Y-85463570D01*
X151945566Y-85493231D01*
X151863679Y-85521107D01*
X151863675Y-85521109D01*
X151858437Y-85522892D01*
X151853727Y-85525790D01*
X151853722Y-85525792D01*
X151706362Y-85616449D01*
X151701653Y-85619346D01*
X151570135Y-85748138D01*
X151470418Y-85902868D01*
X151407460Y-86075845D01*
X151384388Y-86258472D01*
X145475540Y-86258472D01*
X145498351Y-86069969D01*
X145498351Y-86069966D01*
X145498616Y-86067778D01*
X145504152Y-85891635D01*
X145499072Y-85803520D01*
X145485725Y-85572054D01*
X145485561Y-85569208D01*
X145430034Y-85251055D01*
X145338308Y-84941392D01*
X145211598Y-84644324D01*
X145118579Y-84481244D01*
X145053000Y-84366273D01*
X145052999Y-84366271D01*
X145051583Y-84363789D01*
X144860385Y-84103504D01*
X144858454Y-84101426D01*
X144858449Y-84101420D01*
X144642478Y-83869008D01*
X144640538Y-83866920D01*
X144638374Y-83865072D01*
X144638369Y-83865067D01*
X144473230Y-83724026D01*
X144394955Y-83657173D01*
X144126892Y-83477042D01*
X143839902Y-83328915D01*
X143837238Y-83327908D01*
X143837235Y-83327907D01*
X143563735Y-83224560D01*
X143515984Y-83186304D01*
X143499839Y-83127287D01*
X143521466Y-83070052D01*
X143572606Y-83036460D01*
X143616538Y-83034566D01*
X155283870Y-85168371D01*
X163529201Y-86676336D01*
X163549809Y-86682479D01*
X163561827Y-86687540D01*
X163572962Y-86686983D01*
X163574839Y-86687314D01*
X163588086Y-86690603D01*
X163629294Y-86703909D01*
X163654106Y-86715961D01*
X163700300Y-86747019D01*
X163720827Y-86765451D01*
X163730956Y-86777494D01*
X163756657Y-86808051D01*
X163771298Y-86831429D01*
X163793983Y-86882261D01*
X163801606Y-86908773D01*
X163807693Y-86951910D01*
X163808663Y-86965870D01*
X163808662Y-86966457D01*
X163806167Y-86977327D01*
X163808632Y-86988201D01*
X163808632Y-86988202D01*
X163808873Y-86989264D01*
X163811323Y-87011151D01*
X163811323Y-88253327D01*
X163808766Y-88275681D01*
X163806168Y-88286890D01*
X163806167Y-88287608D01*
X163807409Y-88293053D01*
X163807410Y-88293061D01*
X163807884Y-88295138D01*
X163809900Y-88307581D01*
X163821131Y-88423149D01*
X163826129Y-88439861D01*
X163858266Y-88547317D01*
X163860150Y-88553618D01*
X163909709Y-88647812D01*
X163913825Y-88655636D01*
X163919090Y-88667461D01*
X163921688Y-88674504D01*
X163922081Y-88675105D01*
X163930191Y-88682896D01*
X163944630Y-88700363D01*
X165873239Y-91669970D01*
X167318363Y-93895123D01*
X167328492Y-93915536D01*
X167400067Y-94114514D01*
X167401167Y-94117571D01*
X167514618Y-94337527D01*
X167516462Y-94340182D01*
X167516464Y-94340185D01*
X167653959Y-94538128D01*
X167653963Y-94538133D01*
X167655810Y-94540792D01*
X167822325Y-94723889D01*
X168011315Y-94883684D01*
X168014034Y-94885431D01*
X168014040Y-94885435D01*
X168216823Y-95015696D01*
X168216829Y-95015699D01*
X168219545Y-95017444D01*
X168278029Y-95044983D01*
X168440529Y-95121502D01*
X168440533Y-95121504D01*
X168443454Y-95122879D01*
X168612517Y-95176882D01*
X168676132Y-95197203D01*
X168676135Y-95197204D01*
X168679210Y-95198186D01*
X168767199Y-95214041D01*
X168919585Y-95241501D01*
X168919590Y-95241502D01*
X168922778Y-95242076D01*
X168926016Y-95242230D01*
X168926020Y-95242230D01*
X169016611Y-95246525D01*
X169169991Y-95253797D01*
X169173215Y-95253527D01*
X169173222Y-95253527D01*
X169413385Y-95233421D01*
X169413389Y-95233420D01*
X169416619Y-95233150D01*
X169419786Y-95232460D01*
X169419788Y-95232460D01*
X169493307Y-95216449D01*
X169625332Y-95187697D01*
X169627704Y-95187932D01*
X169632810Y-95186069D01*
X169645199Y-95183371D01*
X169649990Y-95182451D01*
X169652471Y-95182038D01*
X169658057Y-95181747D01*
X169658748Y-95181550D01*
X169679537Y-95170081D01*
X169683122Y-95168198D01*
X169686764Y-95166380D01*
X169692024Y-95164461D01*
X169698424Y-95160305D01*
X169702054Y-95157948D01*
X169708136Y-95154302D01*
X169738843Y-95137361D01*
X169742867Y-95131701D01*
X169745097Y-95129998D01*
X171974047Y-93682642D01*
X171992969Y-93673064D01*
X172005591Y-93668295D01*
X172013280Y-93660221D01*
X172014589Y-93659353D01*
X172026620Y-93652534D01*
X172066044Y-93633697D01*
X172092687Y-93625332D01*
X172120181Y-93620818D01*
X172147675Y-93616305D01*
X172175595Y-93615713D01*
X172230919Y-93622402D01*
X172257891Y-93629629D01*
X172309153Y-93651506D01*
X172333029Y-93665976D01*
X172376141Y-93701297D01*
X172395029Y-93721864D01*
X172420109Y-93758416D01*
X172427226Y-93770568D01*
X172429803Y-93781388D01*
X172434064Y-93786632D01*
X172436050Y-93793090D01*
X172443623Y-93801269D01*
X172443698Y-93801400D01*
X172457013Y-93819612D01*
X173214455Y-95156017D01*
X173215411Y-95157703D01*
X173216244Y-95159203D01*
X173966645Y-96538770D01*
X173967392Y-96540173D01*
X174693562Y-97932547D01*
X174694332Y-97934054D01*
X175396098Y-99338905D01*
X175396851Y-99340445D01*
X176023711Y-100652119D01*
X176045822Y-100698386D01*
X176055498Y-100741074D01*
X176055498Y-115086188D01*
X176052980Y-115108373D01*
X176050342Y-115119846D01*
X176052737Y-115130431D01*
X176051585Y-115144903D01*
X176043291Y-115197267D01*
X176033719Y-115226725D01*
X176005416Y-115282272D01*
X175987214Y-115307326D01*
X175943120Y-115351419D01*
X175918070Y-115369618D01*
X175862517Y-115397923D01*
X175833063Y-115407493D01*
X175780435Y-115415828D01*
X175766591Y-115416906D01*
X175756358Y-115414552D01*
X175745483Y-115417013D01*
X175745479Y-115417013D01*
X175743874Y-115417376D01*
X175722348Y-115419816D01*
X175416975Y-115420808D01*
X175190090Y-115421545D01*
X175167417Y-115418989D01*
X175162149Y-115417768D01*
X175162148Y-115417768D01*
X175156686Y-115416502D01*
X175155968Y-115416501D01*
X175150521Y-115417744D01*
X175150512Y-115417745D01*
X175148282Y-115418254D01*
X175135967Y-115420258D01*
X175018653Y-115431817D01*
X174886616Y-115471873D01*
X174882328Y-115474165D01*
X174882323Y-115474167D01*
X174777364Y-115530269D01*
X174764929Y-115536916D01*
X174658268Y-115624448D01*
X174570732Y-115731106D01*
X174568439Y-115735396D01*
X174568438Y-115735397D01*
X174513943Y-115837339D01*
X174505683Y-115852790D01*
X174465622Y-115984825D01*
X174465145Y-115989665D01*
X174454145Y-116101262D01*
X174452062Y-116113917D01*
X174450322Y-116121421D01*
X174450321Y-116122139D01*
X174453000Y-116133887D01*
X174455477Y-116155896D01*
X174455477Y-119787862D01*
X174452918Y-119810226D01*
X174450322Y-119821421D01*
X174450321Y-119822139D01*
X174451563Y-119827585D01*
X174451563Y-119827586D01*
X174452157Y-119830190D01*
X174454158Y-119842503D01*
X174465667Y-119959458D01*
X174505711Y-120091501D01*
X174570746Y-120213194D01*
X174573831Y-120216954D01*
X174573832Y-120216955D01*
X174584805Y-120230327D01*
X174658273Y-120319861D01*
X174662029Y-120322944D01*
X174662031Y-120322946D01*
X174761168Y-120404317D01*
X174764928Y-120407403D01*
X174886613Y-120472454D01*
X174891260Y-120473864D01*
X174891265Y-120473866D01*
X175014000Y-120511104D01*
X175018651Y-120512515D01*
X175023487Y-120512992D01*
X175023489Y-120512992D01*
X175083677Y-120518923D01*
X175135083Y-120523989D01*
X175147729Y-120526069D01*
X175149782Y-120526545D01*
X175149786Y-120526545D01*
X175155250Y-120527812D01*
X175155968Y-120527813D01*
X175161409Y-120526572D01*
X175161419Y-120526571D01*
X175167709Y-120525136D01*
X175189723Y-120522657D01*
X175281939Y-120522657D01*
X175304138Y-120525179D01*
X175315586Y-120527813D01*
X175326461Y-120525354D01*
X175326802Y-120525355D01*
X175341257Y-120526444D01*
X175388890Y-120533570D01*
X175416872Y-120542129D01*
X175470087Y-120567521D01*
X175494337Y-120583882D01*
X175537808Y-120623725D01*
X175556217Y-120646465D01*
X175586137Y-120697271D01*
X175597097Y-120724408D01*
X175610853Y-120781736D01*
X175613401Y-120810889D01*
X175610432Y-120859361D01*
X175608530Y-120873234D01*
X175603946Y-120883085D01*
X175604121Y-120896484D01*
X175602111Y-120917660D01*
X174826772Y-124698664D01*
X174424828Y-126658772D01*
X174418232Y-126678580D01*
X174417925Y-126679975D01*
X174413169Y-126690061D01*
X174413257Y-126701211D01*
X174412734Y-126703591D01*
X174408985Y-126716433D01*
X174394424Y-126756125D01*
X174381730Y-126780003D01*
X174352070Y-126821059D01*
X174302668Y-126857157D01*
X174274662Y-126862044D01*
X173262460Y-126891094D01*
X173259620Y-126891135D01*
X168932920Y-126891135D01*
X168910737Y-126888617D01*
X168899263Y-126885979D01*
X168888675Y-126888375D01*
X168874201Y-126887223D01*
X168821834Y-126878930D01*
X168792376Y-126869360D01*
X168736815Y-126841052D01*
X168711758Y-126822848D01*
X168667668Y-126778762D01*
X168649460Y-126753704D01*
X168641955Y-126738975D01*
X168621149Y-126698146D01*
X168611577Y-126668692D01*
X168610005Y-126658772D01*
X168603286Y-126616370D01*
X168602190Y-126602297D01*
X168604562Y-126591980D01*
X168601849Y-126579994D01*
X168599406Y-126558138D01*
X168599406Y-125638958D01*
X168601969Y-125616576D01*
X168603292Y-125610875D01*
X168604561Y-125605409D01*
X168604562Y-125604691D01*
X168603322Y-125599247D01*
X168603321Y-125599240D01*
X168601930Y-125593135D01*
X168599808Y-125579472D01*
X168592316Y-125490701D01*
X168592316Y-125490698D01*
X168591964Y-125486533D01*
X168581180Y-125444844D01*
X168563315Y-125375785D01*
X168563314Y-125375782D01*
X168562267Y-125371735D01*
X168534743Y-125310441D01*
X168515407Y-125267383D01*
X168513692Y-125263564D01*
X168447621Y-125165100D01*
X168440224Y-125157316D01*
X168383941Y-125098093D01*
X168374936Y-125087145D01*
X168371454Y-125082233D01*
X168371451Y-125082230D01*
X168368214Y-125077663D01*
X168367678Y-125077185D01*
X168362486Y-125074334D01*
X168355721Y-125070620D01*
X168338402Y-125058542D01*
X167195963Y-124064992D01*
X167192989Y-124062022D01*
X167189100Y-124054779D01*
X167180327Y-124048389D01*
X167171664Y-124036739D01*
X167143197Y-123991506D01*
X167131003Y-123963032D01*
X167115624Y-123902180D01*
X167112826Y-123871332D01*
X167117005Y-123808705D01*
X167123876Y-123778502D01*
X167147205Y-123720227D01*
X167163075Y-123693625D01*
X167197192Y-123652704D01*
X167207123Y-123642552D01*
X167216473Y-123637532D01*
X167223431Y-123627979D01*
X167238505Y-123611548D01*
X167270108Y-123584077D01*
X168319232Y-122672118D01*
X168337598Y-122659481D01*
X168348023Y-122653923D01*
X168348565Y-122653451D01*
X168351700Y-122649143D01*
X168353482Y-122647274D01*
X168516651Y-122482954D01*
X168516654Y-122482951D01*
X168519142Y-122480445D01*
X168664050Y-122285512D01*
X168779775Y-122071960D01*
X168786470Y-122053845D01*
X168862746Y-121847430D01*
X168862747Y-121847426D01*
X168863967Y-121844125D01*
X168914915Y-121606635D01*
X168931586Y-121364315D01*
X168921000Y-121221432D01*
X168913902Y-121125617D01*
X168913901Y-121125612D01*
X168913640Y-121122085D01*
X168861442Y-120884867D01*
X168813124Y-120756200D01*
X168777293Y-120660783D01*
X168777292Y-120660780D01*
X168776052Y-120657479D01*
X168763015Y-120633719D01*
X168660904Y-120447634D01*
X168660903Y-120447633D01*
X168659205Y-120444538D01*
X168518128Y-120256829D01*
X168516805Y-120254987D01*
X168514358Y-120250378D01*
X168513888Y-120249836D01*
X168487167Y-120230326D01*
X168480601Y-120225090D01*
X168466916Y-120213194D01*
X166780041Y-118746895D01*
X166764887Y-118730354D01*
X166761376Y-118725520D01*
X166761373Y-118725517D01*
X166758065Y-118720962D01*
X166757523Y-118720491D01*
X166752614Y-118717869D01*
X166750244Y-118716237D01*
X166746521Y-118713544D01*
X166740424Y-118708914D01*
X166558376Y-118570684D01*
X166341998Y-118447215D01*
X166339000Y-118445991D01*
X166338996Y-118445989D01*
X166114360Y-118354273D01*
X166114361Y-118354273D01*
X166111355Y-118353046D01*
X166108219Y-118352223D01*
X166108214Y-118352221D01*
X165873523Y-118290607D01*
X165873516Y-118290606D01*
X165870394Y-118289786D01*
X165823024Y-118283794D01*
X165626449Y-118258926D01*
X165626444Y-118258926D01*
X165623237Y-118258520D01*
X165620009Y-118258536D01*
X165620003Y-118258536D01*
X165506212Y-118259113D01*
X165374114Y-118259782D01*
X165370901Y-118260222D01*
X165370895Y-118260222D01*
X165268789Y-118274191D01*
X165127287Y-118293550D01*
X164886979Y-118359246D01*
X164657301Y-118455747D01*
X164442185Y-118581401D01*
X164439622Y-118583388D01*
X164439621Y-118583389D01*
X164247872Y-118732071D01*
X164247868Y-118732074D01*
X164245310Y-118734058D01*
X164243030Y-118736361D01*
X164243028Y-118736363D01*
X164079201Y-118901857D01*
X164075689Y-118905235D01*
X164074237Y-118906564D01*
X164069702Y-118909857D01*
X164069230Y-118910399D01*
X164066593Y-118915336D01*
X164063633Y-118920876D01*
X164051005Y-118939204D01*
X163053114Y-120086304D01*
X163038725Y-120098535D01*
X163039344Y-120099322D01*
X163034964Y-120102763D01*
X163030220Y-120105695D01*
X163029709Y-120106199D01*
X163028832Y-120107581D01*
X163026870Y-120109124D01*
X163027502Y-120109679D01*
X162899579Y-120255267D01*
X162857804Y-120302810D01*
X162713886Y-120520689D01*
X162706732Y-120535629D01*
X162629329Y-120697271D01*
X162601110Y-120756200D01*
X162521594Y-121004918D01*
X162521013Y-121008257D01*
X162521012Y-121008261D01*
X162492052Y-121174692D01*
X162476830Y-121262173D01*
X162467661Y-121523132D01*
X162494258Y-121782894D01*
X162556122Y-122036580D01*
X162557368Y-122039734D01*
X162557370Y-122039739D01*
X162641440Y-122252475D01*
X162652090Y-122279425D01*
X162780361Y-122506869D01*
X162938524Y-122714638D01*
X163119534Y-122894774D01*
X163119813Y-122895065D01*
X163122601Y-122898899D01*
X163123142Y-122899370D01*
X163128084Y-122902007D01*
X163128090Y-122902011D01*
X163133419Y-122904854D01*
X163151865Y-122917569D01*
X163321882Y-123065769D01*
X163325013Y-123068897D01*
X163328993Y-123076293D01*
X163337773Y-123082675D01*
X163346444Y-123094315D01*
X163375033Y-123139649D01*
X163387252Y-123168107D01*
X163402726Y-123229093D01*
X163405554Y-123259937D01*
X163401425Y-123322724D01*
X163394582Y-123352933D01*
X163371255Y-123411366D01*
X163355415Y-123437979D01*
X163341579Y-123454608D01*
X163320816Y-123479562D01*
X163311235Y-123489376D01*
X163302042Y-123494323D01*
X163295487Y-123503341D01*
X163295486Y-123503342D01*
X163282798Y-123520798D01*
X163277421Y-123527555D01*
X162334870Y-124611391D01*
X162318225Y-124626574D01*
X162318123Y-124626689D01*
X162309079Y-124633200D01*
X162303752Y-124642990D01*
X162302760Y-124644115D01*
X162292883Y-124653849D01*
X162258081Y-124683641D01*
X162234439Y-124698663D01*
X162181783Y-124722436D01*
X162154885Y-124730234D01*
X162119944Y-124735165D01*
X162108982Y-124736712D01*
X162094873Y-124737677D01*
X162084037Y-124735166D01*
X162071774Y-124737918D01*
X162050096Y-124740321D01*
X160691603Y-124740321D01*
X160669246Y-124737763D01*
X160663510Y-124736433D01*
X160663501Y-124736432D01*
X160658040Y-124735166D01*
X160657322Y-124735165D01*
X160652327Y-124736304D01*
X160650969Y-124736429D01*
X160541125Y-124744284D01*
X160414695Y-124753325D01*
X160177008Y-124805029D01*
X159987507Y-124875708D01*
X159964971Y-124884113D01*
X159949098Y-124890033D01*
X159735606Y-125006607D01*
X159732777Y-125008725D01*
X159732772Y-125008728D01*
X159565695Y-125133801D01*
X159540878Y-125152379D01*
X159368877Y-125324379D01*
X159223106Y-125519108D01*
X159106532Y-125732601D01*
X159021528Y-125960510D01*
X158969825Y-126198198D01*
X158959966Y-126336066D01*
X158953047Y-126432823D01*
X158952842Y-126435025D01*
X158951664Y-126440106D01*
X158951663Y-126440824D01*
X158954341Y-126452563D01*
X158956819Y-126474573D01*
X158956819Y-126806797D01*
X158954300Y-126828988D01*
X158951663Y-126840453D01*
X158954058Y-126851040D01*
X158952906Y-126865512D01*
X158951169Y-126876477D01*
X158944610Y-126917878D01*
X158935038Y-126947333D01*
X158906733Y-127002883D01*
X158888528Y-127027941D01*
X158844439Y-127072030D01*
X158819382Y-127090234D01*
X158763833Y-127118539D01*
X158734381Y-127128110D01*
X158681797Y-127136440D01*
X158667916Y-127137521D01*
X158657670Y-127135165D01*
X158646796Y-127137626D01*
X158645678Y-127137879D01*
X158623825Y-127140321D01*
X140650391Y-127140321D01*
X140628171Y-127137795D01*
X140616752Y-127135165D01*
X140605876Y-127137622D01*
X140604037Y-127137618D01*
X140590384Y-127136642D01*
X140547309Y-127130550D01*
X140520734Y-127122889D01*
X140519041Y-127122131D01*
X140469800Y-127100094D01*
X140446381Y-127085381D01*
X140403737Y-127049383D01*
X140385305Y-127028768D01*
X140354281Y-126982374D01*
X140342274Y-126957470D01*
X140330482Y-126920549D01*
X140326043Y-126896219D01*
X140326341Y-126891365D01*
X140326223Y-126890657D01*
X140326190Y-126890577D01*
X140326195Y-126890490D01*
X140325583Y-126889008D01*
X140325440Y-126886243D01*
X140324527Y-126886450D01*
X140288864Y-126728972D01*
X140255622Y-126582183D01*
X140151502Y-126283396D01*
X140014466Y-125998202D01*
X139846251Y-125730213D01*
X139844521Y-125728043D01*
X139844515Y-125728035D01*
X139650724Y-125485002D01*
X139650721Y-125484999D01*
X139648987Y-125482824D01*
X139646453Y-125480291D01*
X139468376Y-125302341D01*
X139425174Y-125259169D01*
X139177645Y-125062080D01*
X138909537Y-124894054D01*
X138624246Y-124757221D01*
X138325386Y-124653312D01*
X138016743Y-124583644D01*
X137702226Y-124549101D01*
X137699424Y-124549110D01*
X137388610Y-124550109D01*
X137388609Y-124550109D01*
X137385819Y-124550118D01*
X137071530Y-124586684D01*
X137068824Y-124587313D01*
X137068819Y-124587314D01*
X136824508Y-124644115D01*
X136763341Y-124658336D01*
X136760713Y-124659269D01*
X136760712Y-124659269D01*
X136467787Y-124763231D01*
X136467783Y-124763232D01*
X136465156Y-124764165D01*
X136251982Y-124868101D01*
X136198753Y-124894054D01*
X136180751Y-124902831D01*
X135913730Y-125072578D01*
X135667474Y-125271255D01*
X135665510Y-125273243D01*
X135458463Y-125482824D01*
X135445104Y-125496346D01*
X135443383Y-125498533D01*
X135261071Y-125730213D01*
X135249436Y-125744998D01*
X135082948Y-126014064D01*
X135081759Y-126016580D01*
X134954414Y-126286034D01*
X134947750Y-126300134D01*
X134946850Y-126302771D01*
X134946848Y-126302776D01*
X134850564Y-126584904D01*
X134845554Y-126599584D01*
X134781081Y-126893028D01*
X134780770Y-126892960D01*
X134780690Y-126893859D01*
X134779047Y-126897355D01*
X134779090Y-126902089D01*
X134778757Y-126903606D01*
X134777046Y-126907795D01*
X134776931Y-126908504D01*
X134777038Y-126910171D01*
X134774623Y-126918756D01*
X134774458Y-126918710D01*
X134771802Y-126931697D01*
X134759199Y-126965662D01*
X134745847Y-126990268D01*
X134714736Y-127032133D01*
X134711739Y-127036166D01*
X134692028Y-127056051D01*
X134646441Y-127090558D01*
X134621949Y-127104131D01*
X134568519Y-127124495D01*
X134541209Y-127130666D01*
X134496227Y-127134289D01*
X134482017Y-127134411D01*
X134481492Y-127134378D01*
X134470798Y-127131215D01*
X134459795Y-127133002D01*
X134459793Y-127133002D01*
X134449464Y-127134680D01*
X134433593Y-127135960D01*
X130357813Y-127135960D01*
X130335628Y-127133442D01*
X130324155Y-127130804D01*
X130313280Y-127133264D01*
X130309595Y-127133258D01*
X130296846Y-127132411D01*
X130267854Y-127128594D01*
X130259209Y-127127456D01*
X130234246Y-127120767D01*
X130186095Y-127100820D01*
X130163720Y-127087900D01*
X130133206Y-127064483D01*
X130123355Y-127055827D01*
X130121840Y-127054306D01*
X130115924Y-127044856D01*
X130106494Y-127038905D01*
X130105515Y-127038287D01*
X130088345Y-127024568D01*
X129629245Y-126565468D01*
X129615249Y-126547857D01*
X129612131Y-126542858D01*
X129609158Y-126538091D01*
X129608651Y-126537583D01*
X129603119Y-126534106D01*
X129602245Y-126533557D01*
X129592123Y-126526268D01*
X129500746Y-126451287D01*
X129379050Y-126386247D01*
X129251686Y-126347617D01*
X129251660Y-126347609D01*
X129251658Y-126347609D01*
X129247004Y-126346197D01*
X129130560Y-126334732D01*
X129117912Y-126332652D01*
X129110400Y-126330911D01*
X129109682Y-126330910D01*
X129098285Y-126333510D01*
X129097952Y-126333586D01*
X129075933Y-126336066D01*
X124957967Y-126336066D01*
X124935615Y-126333510D01*
X124929861Y-126332176D01*
X124929855Y-126332175D01*
X124924400Y-126330911D01*
X124923682Y-126330910D01*
X124916133Y-126332633D01*
X124903825Y-126334634D01*
X124837080Y-126341209D01*
X124791204Y-126345728D01*
X124791203Y-126345728D01*
X124786363Y-126346205D01*
X124747089Y-126358119D01*
X124658975Y-126384848D01*
X124658970Y-126384850D01*
X124654322Y-126386260D01*
X124650038Y-126388550D01*
X124650035Y-126388551D01*
X124588239Y-126421581D01*
X124532631Y-126451304D01*
X124452154Y-126517347D01*
X124442192Y-126525522D01*
X124431775Y-126532997D01*
X124425226Y-126537081D01*
X124424718Y-126537588D01*
X124421747Y-126542314D01*
X124421745Y-126542317D01*
X124418311Y-126547780D01*
X124404499Y-126565098D01*
X123945408Y-127024189D01*
X123927941Y-127038095D01*
X123927411Y-127038427D01*
X123927410Y-127038428D01*
X123917963Y-127044343D01*
X123912016Y-127053769D01*
X123909405Y-127056371D01*
X123899790Y-127064788D01*
X123869668Y-127087902D01*
X123847288Y-127100824D01*
X123799142Y-127120767D01*
X123774181Y-127127455D01*
X123736152Y-127132460D01*
X123723066Y-127133306D01*
X123720810Y-127133302D01*
X123709948Y-127130804D01*
X123699075Y-127133264D01*
X123699074Y-127133264D01*
X123697948Y-127133519D01*
X123676101Y-127135960D01*
X123498544Y-127135960D01*
X123476393Y-127133450D01*
X123475734Y-127133299D01*
X123464866Y-127130804D01*
X123453990Y-127133269D01*
X123449015Y-127133262D01*
X123436850Y-127132494D01*
X123402807Y-127128229D01*
X123378890Y-127122132D01*
X123332594Y-127103927D01*
X123310929Y-127092101D01*
X123270578Y-127063010D01*
X123252507Y-127046186D01*
X123230459Y-127019802D01*
X123223046Y-127009694D01*
X123220975Y-127006458D01*
X123217203Y-126995967D01*
X123208927Y-126987827D01*
X123194818Y-126970385D01*
X123142714Y-126888478D01*
X122768443Y-126300134D01*
X119113521Y-120554686D01*
X119104103Y-120535629D01*
X119103319Y-120533491D01*
X119099482Y-120523025D01*
X119091485Y-120515258D01*
X119085415Y-120505906D01*
X119086221Y-120505383D01*
X119080291Y-120497432D01*
X119079907Y-120496695D01*
X119072779Y-120483044D01*
X119065632Y-120465401D01*
X119054710Y-120428609D01*
X119051073Y-120409928D01*
X119050860Y-120407710D01*
X119049565Y-120394265D01*
X119049109Y-120384577D01*
X119049131Y-120373440D01*
X119051633Y-120362575D01*
X119048912Y-120350534D01*
X119046477Y-120328712D01*
X119046477Y-111238444D01*
X140116450Y-111238444D01*
X140117886Y-111253088D01*
X140133873Y-111416141D01*
X140133874Y-111416146D01*
X140134413Y-111421643D01*
X140192517Y-111596310D01*
X140195382Y-111601041D01*
X140195384Y-111601045D01*
X140245547Y-111683873D01*
X140287875Y-111753764D01*
X140291717Y-111757743D01*
X140291719Y-111757745D01*
X140309448Y-111776104D01*
X140415746Y-111886179D01*
X140569776Y-111986973D01*
X140742309Y-112051137D01*
X140747793Y-112051869D01*
X140747794Y-112051869D01*
X140919284Y-112074751D01*
X140924770Y-112075483D01*
X140930275Y-112074982D01*
X140930278Y-112074982D01*
X141004549Y-112068222D01*
X141108090Y-112058799D01*
X141113348Y-112057091D01*
X141113351Y-112057090D01*
X141277894Y-112003627D01*
X141277896Y-112003626D01*
X141283159Y-112001916D01*
X141287915Y-111999081D01*
X141287917Y-111999080D01*
X141436524Y-111910492D01*
X141441275Y-111907660D01*
X141574579Y-111780717D01*
X141589842Y-111757745D01*
X141673383Y-111632004D01*
X141676446Y-111627394D01*
X141741813Y-111455313D01*
X141747319Y-111416141D01*
X141766999Y-111276108D01*
X141767432Y-111273027D01*
X141767754Y-111249972D01*
X141747235Y-111067041D01*
X141686698Y-110893202D01*
X141589151Y-110737095D01*
X141459444Y-110606479D01*
X141304022Y-110507845D01*
X141285021Y-110501079D01*
X141135822Y-110447952D01*
X141135820Y-110447952D01*
X141130609Y-110446096D01*
X141104344Y-110442964D01*
X140953322Y-110424955D01*
X140953319Y-110424955D01*
X140947826Y-110424300D01*
X140764757Y-110443542D01*
X140677628Y-110473203D01*
X140595741Y-110501079D01*
X140595737Y-110501081D01*
X140590499Y-110502864D01*
X140585789Y-110505762D01*
X140585784Y-110505764D01*
X140438424Y-110596421D01*
X140433715Y-110599318D01*
X140302197Y-110728110D01*
X140202480Y-110882840D01*
X140139522Y-111055817D01*
X140116450Y-111238444D01*
X119046477Y-111238444D01*
X119046477Y-98998472D01*
X123754388Y-98998472D01*
X123755824Y-99013116D01*
X123771811Y-99176169D01*
X123771812Y-99176174D01*
X123772351Y-99181671D01*
X123830455Y-99356338D01*
X123833320Y-99361069D01*
X123833322Y-99361073D01*
X123849280Y-99387422D01*
X123925813Y-99513792D01*
X124053684Y-99646207D01*
X124207714Y-99747001D01*
X124380247Y-99811165D01*
X124385731Y-99811897D01*
X124385732Y-99811897D01*
X124557222Y-99834779D01*
X124562708Y-99835511D01*
X124568213Y-99835010D01*
X124568216Y-99835010D01*
X124642487Y-99828250D01*
X124746028Y-99818827D01*
X124751286Y-99817119D01*
X124751289Y-99817118D01*
X124915832Y-99763655D01*
X124915834Y-99763654D01*
X124921097Y-99761944D01*
X124925853Y-99759109D01*
X124925855Y-99759108D01*
X125074462Y-99670520D01*
X125079213Y-99667688D01*
X125212517Y-99540745D01*
X125227780Y-99517773D01*
X125311321Y-99392032D01*
X125314384Y-99387422D01*
X125379751Y-99215341D01*
X125385257Y-99176169D01*
X125404937Y-99036136D01*
X125405370Y-99033055D01*
X125405692Y-99010000D01*
X125385173Y-98827069D01*
X125324636Y-98653230D01*
X125227089Y-98497123D01*
X125097382Y-98366507D01*
X124941960Y-98267873D01*
X124922959Y-98261107D01*
X124773760Y-98207980D01*
X124773758Y-98207980D01*
X124768547Y-98206124D01*
X124742282Y-98202992D01*
X124591260Y-98184983D01*
X124591257Y-98184983D01*
X124585764Y-98184328D01*
X124402695Y-98203570D01*
X124315566Y-98233231D01*
X124233679Y-98261107D01*
X124233675Y-98261109D01*
X124228437Y-98262892D01*
X124223727Y-98265790D01*
X124223722Y-98265792D01*
X124076362Y-98356449D01*
X124071653Y-98359346D01*
X123940135Y-98488138D01*
X123840418Y-98642868D01*
X123777460Y-98815845D01*
X123754388Y-98998472D01*
X119046477Y-98998472D01*
X119046477Y-98120428D01*
X129655402Y-98120428D01*
X129655437Y-98124316D01*
X129655437Y-98124320D01*
X129669263Y-99649236D01*
X129674480Y-100224650D01*
X129677445Y-100257616D01*
X129682832Y-100288941D01*
X129685169Y-100294347D01*
X129685169Y-100294348D01*
X129718890Y-100372361D01*
X129718892Y-100372364D01*
X129721229Y-100377771D01*
X129758047Y-100426639D01*
X129782763Y-100453957D01*
X129862076Y-100499495D01*
X129867395Y-100501122D01*
X129867398Y-100501123D01*
X129916863Y-100516251D01*
X129916867Y-100516252D01*
X129920585Y-100517389D01*
X129924436Y-100517931D01*
X129924438Y-100517931D01*
X129937958Y-100519832D01*
X129984254Y-100526343D01*
X131808272Y-100494665D01*
X132613057Y-100480688D01*
X132671567Y-100498582D01*
X132708385Y-100547450D01*
X132713730Y-100576663D01*
X132971697Y-109060941D01*
X132971867Y-109062640D01*
X132974206Y-109086068D01*
X132974518Y-109089194D01*
X132979100Y-109116101D01*
X132981257Y-109121277D01*
X132981258Y-109121279D01*
X132991423Y-109145667D01*
X133014569Y-109201197D01*
X133050177Y-109250954D01*
X133074217Y-109278872D01*
X133152389Y-109326342D01*
X133210442Y-109345666D01*
X133242156Y-109350922D01*
X133270036Y-109355544D01*
X133270042Y-109355545D01*
X133273870Y-109356179D01*
X133277761Y-109356207D01*
X133277762Y-109356207D01*
X137257494Y-109384770D01*
X137259447Y-109384784D01*
X137291694Y-109382472D01*
X137293606Y-109382182D01*
X137293610Y-109382182D01*
X137316620Y-109378697D01*
X137316621Y-109378697D01*
X137322397Y-109377822D01*
X137377197Y-109355544D01*
X137405943Y-109343858D01*
X137405945Y-109343857D01*
X137411354Y-109341658D01*
X137440949Y-109320443D01*
X137459283Y-109307300D01*
X137459288Y-109307296D01*
X137461082Y-109306010D01*
X137462759Y-109304563D01*
X137462766Y-109304558D01*
X137483080Y-109287036D01*
X137483080Y-109287035D01*
X137488981Y-109281946D01*
X137536387Y-109203736D01*
X137555664Y-109145667D01*
X137565258Y-109087496D01*
X137565493Y-109086068D01*
X137565493Y-109086067D01*
X137566126Y-109082229D01*
X137566262Y-109060941D01*
X137576713Y-107418339D01*
X137590681Y-105222870D01*
X137609958Y-105164802D01*
X137659686Y-105129154D01*
X137693205Y-105124564D01*
X142771375Y-105305552D01*
X142828856Y-105326520D01*
X142834166Y-105330983D01*
X143620039Y-106040000D01*
X143699133Y-106111359D01*
X143865052Y-106261052D01*
X144645924Y-106965559D01*
X144648792Y-106967496D01*
X144648795Y-106967499D01*
X144652404Y-106969937D01*
X144693402Y-106997635D01*
X144696508Y-106999152D01*
X144696510Y-106999153D01*
X144702604Y-107002129D01*
X144740806Y-107035094D01*
X144742428Y-107037459D01*
X144744371Y-107040832D01*
X144746819Y-107043861D01*
X144782337Y-107087812D01*
X144782341Y-107087816D01*
X144784783Y-107090838D01*
X144787668Y-107093441D01*
X144787671Y-107093444D01*
X146044896Y-108227718D01*
X146055856Y-108239342D01*
X154891985Y-119273974D01*
X154906400Y-119290149D01*
X154907323Y-119291081D01*
X154907327Y-119291085D01*
X154917412Y-119301266D01*
X154917415Y-119301269D01*
X154921069Y-119304957D01*
X154992655Y-119351889D01*
X154997505Y-119353773D01*
X155036458Y-119368904D01*
X155049688Y-119374043D01*
X155075609Y-119379661D01*
X155108721Y-119386837D01*
X155108726Y-119386838D01*
X155112525Y-119387661D01*
X156425822Y-119461723D01*
X158581102Y-119583269D01*
X158581108Y-119583269D01*
X158583181Y-119583386D01*
X158603841Y-119582816D01*
X158615521Y-119582494D01*
X158615528Y-119582494D01*
X158617613Y-119582436D01*
X158625036Y-119581605D01*
X158644539Y-119579422D01*
X158644540Y-119579422D01*
X158650478Y-119578757D01*
X158656082Y-119576696D01*
X158656085Y-119576695D01*
X158702995Y-119559440D01*
X158742539Y-119544895D01*
X158793263Y-119510678D01*
X158821835Y-119487420D01*
X158871451Y-119410593D01*
X158892375Y-119353097D01*
X158904640Y-119289982D01*
X158905199Y-119273974D01*
X159039596Y-115420258D01*
X159141842Y-112488464D01*
X159140125Y-112453847D01*
X159135679Y-112420867D01*
X159099624Y-112329413D01*
X159064220Y-112279511D01*
X159040298Y-112251498D01*
X158962322Y-112203707D01*
X158957057Y-112201930D01*
X158957054Y-112201929D01*
X158937512Y-112195335D01*
X158904348Y-112184144D01*
X158900521Y-112183494D01*
X158900515Y-112183492D01*
X158866104Y-112177644D01*
X158840961Y-112173370D01*
X158837070Y-112173326D01*
X158837069Y-112173326D01*
X156173117Y-112143282D01*
X153789699Y-112116401D01*
X153731725Y-112096838D01*
X153720194Y-112086786D01*
X152670770Y-111018472D01*
X160014388Y-111018472D01*
X160018637Y-111061809D01*
X160031811Y-111196169D01*
X160031812Y-111196174D01*
X160032351Y-111201671D01*
X160090455Y-111376338D01*
X160093320Y-111381069D01*
X160093322Y-111381073D01*
X160138284Y-111455313D01*
X160185813Y-111533792D01*
X160313684Y-111666207D01*
X160467714Y-111767001D01*
X160640247Y-111831165D01*
X160645731Y-111831897D01*
X160645732Y-111831897D01*
X160817222Y-111854779D01*
X160822708Y-111855511D01*
X160828213Y-111855010D01*
X160828216Y-111855010D01*
X160902487Y-111848250D01*
X161006028Y-111838827D01*
X161011286Y-111837119D01*
X161011289Y-111837118D01*
X161175832Y-111783655D01*
X161175834Y-111783654D01*
X161181097Y-111781944D01*
X161185853Y-111779109D01*
X161185855Y-111779108D01*
X161334462Y-111690520D01*
X161339213Y-111687688D01*
X161472517Y-111560745D01*
X161487780Y-111537773D01*
X161546204Y-111449837D01*
X161574384Y-111407422D01*
X161639751Y-111235341D01*
X161645257Y-111196169D01*
X161664937Y-111056136D01*
X161665370Y-111053055D01*
X161665692Y-111030000D01*
X161645173Y-110847069D01*
X161584636Y-110673230D01*
X161487089Y-110517123D01*
X161413446Y-110442964D01*
X161361282Y-110390434D01*
X161361280Y-110390433D01*
X161357382Y-110386507D01*
X161201960Y-110287873D01*
X161182959Y-110281107D01*
X161033760Y-110227980D01*
X161033758Y-110227980D01*
X161028547Y-110226124D01*
X161002282Y-110222992D01*
X160851260Y-110204983D01*
X160851257Y-110204983D01*
X160845764Y-110204328D01*
X160662695Y-110223570D01*
X160575566Y-110253231D01*
X160493679Y-110281107D01*
X160493675Y-110281109D01*
X160488437Y-110282892D01*
X160483727Y-110285790D01*
X160483722Y-110285792D01*
X160336362Y-110376449D01*
X160331653Y-110379346D01*
X160327704Y-110383213D01*
X160327703Y-110383214D01*
X160285156Y-110424879D01*
X160200135Y-110508138D01*
X160100418Y-110662868D01*
X160037460Y-110835845D01*
X160014388Y-111018472D01*
X152670770Y-111018472D01*
X152573161Y-110919106D01*
X152545871Y-110864345D01*
X152546327Y-110832329D01*
X152576586Y-110662868D01*
X153241602Y-106938472D01*
X157034388Y-106938472D01*
X157035824Y-106953116D01*
X157051811Y-107116169D01*
X157051812Y-107116174D01*
X157052351Y-107121671D01*
X157110455Y-107296338D01*
X157113320Y-107301069D01*
X157113322Y-107301073D01*
X157168554Y-107392271D01*
X157205813Y-107453792D01*
X157333684Y-107586207D01*
X157487714Y-107687001D01*
X157660247Y-107751165D01*
X157665731Y-107751897D01*
X157665732Y-107751897D01*
X157837222Y-107774779D01*
X157842708Y-107775511D01*
X157848213Y-107775010D01*
X157848216Y-107775010D01*
X157922487Y-107768250D01*
X158026028Y-107758827D01*
X158031286Y-107757119D01*
X158031289Y-107757118D01*
X158195832Y-107703655D01*
X158195834Y-107703654D01*
X158201097Y-107701944D01*
X158205853Y-107699109D01*
X158205855Y-107699108D01*
X158354462Y-107610520D01*
X158359213Y-107607688D01*
X158492517Y-107480745D01*
X158507780Y-107457773D01*
X158591321Y-107332032D01*
X158594384Y-107327422D01*
X158659751Y-107155341D01*
X158665257Y-107116169D01*
X158684937Y-106976136D01*
X158685370Y-106973055D01*
X158685692Y-106950000D01*
X158665173Y-106767069D01*
X158604636Y-106593230D01*
X158507089Y-106437123D01*
X158390114Y-106319328D01*
X158381282Y-106310434D01*
X158381280Y-106310433D01*
X158377382Y-106306507D01*
X158221960Y-106207873D01*
X158117060Y-106170520D01*
X158053760Y-106147980D01*
X158053758Y-106147980D01*
X158048547Y-106146124D01*
X158015858Y-106142226D01*
X157871260Y-106124983D01*
X157871257Y-106124983D01*
X157865764Y-106124328D01*
X157682695Y-106143570D01*
X157611849Y-106167688D01*
X157513679Y-106201107D01*
X157513675Y-106201109D01*
X157508437Y-106202892D01*
X157503727Y-106205790D01*
X157503722Y-106205792D01*
X157431033Y-106250511D01*
X157351653Y-106299346D01*
X157347704Y-106303213D01*
X157347703Y-106303214D01*
X157307778Y-106342312D01*
X157220135Y-106428138D01*
X157120418Y-106582868D01*
X157057460Y-106755845D01*
X157034388Y-106938472D01*
X153241602Y-106938472D01*
X153498724Y-105498472D01*
X154504388Y-105498472D01*
X154507779Y-105533055D01*
X154521811Y-105676169D01*
X154521812Y-105676174D01*
X154522351Y-105681671D01*
X154580455Y-105856338D01*
X154583320Y-105861069D01*
X154583322Y-105861073D01*
X154599280Y-105887422D01*
X154675813Y-106013792D01*
X154679655Y-106017771D01*
X154679657Y-106017773D01*
X154705530Y-106044565D01*
X154803684Y-106146207D01*
X154957714Y-106247001D01*
X155130247Y-106311165D01*
X155135731Y-106311897D01*
X155135732Y-106311897D01*
X155307222Y-106334779D01*
X155312708Y-106335511D01*
X155318213Y-106335010D01*
X155318216Y-106335010D01*
X155392487Y-106328250D01*
X155496028Y-106318827D01*
X155501286Y-106317119D01*
X155501289Y-106317118D01*
X155665832Y-106263655D01*
X155665834Y-106263654D01*
X155671097Y-106261944D01*
X155675853Y-106259109D01*
X155675855Y-106259108D01*
X155824462Y-106170520D01*
X155829213Y-106167688D01*
X155962517Y-106040745D01*
X155970671Y-106028472D01*
X166384388Y-106028472D01*
X166387421Y-106059405D01*
X166401811Y-106206169D01*
X166401812Y-106206174D01*
X166402351Y-106211671D01*
X166460455Y-106386338D01*
X166463320Y-106391069D01*
X166463322Y-106391073D01*
X166494053Y-106441815D01*
X166555813Y-106543792D01*
X166559655Y-106547771D01*
X166559657Y-106547773D01*
X166593548Y-106582868D01*
X166683684Y-106676207D01*
X166837714Y-106777001D01*
X167010247Y-106841165D01*
X167015731Y-106841897D01*
X167015732Y-106841897D01*
X167109159Y-106854363D01*
X167192708Y-106865511D01*
X167198213Y-106865010D01*
X167198216Y-106865010D01*
X167272487Y-106858250D01*
X167376028Y-106848827D01*
X167381286Y-106847119D01*
X167381289Y-106847118D01*
X167545832Y-106793655D01*
X167545834Y-106793654D01*
X167551097Y-106791944D01*
X167555853Y-106789109D01*
X167555855Y-106789108D01*
X167704462Y-106700520D01*
X167709213Y-106697688D01*
X167842517Y-106570745D01*
X167857780Y-106547773D01*
X167931295Y-106437123D01*
X167944384Y-106417422D01*
X168009751Y-106245341D01*
X168015257Y-106206169D01*
X168034937Y-106066136D01*
X168035370Y-106063055D01*
X168035692Y-106040000D01*
X168015173Y-105857069D01*
X167954636Y-105683230D01*
X167857089Y-105527123D01*
X167793553Y-105463141D01*
X167731282Y-105400434D01*
X167731280Y-105400433D01*
X167727382Y-105396507D01*
X167571960Y-105297873D01*
X167552959Y-105291107D01*
X167403760Y-105237980D01*
X167403758Y-105237980D01*
X167398547Y-105236124D01*
X167372282Y-105232992D01*
X167221260Y-105214983D01*
X167221257Y-105214983D01*
X167215764Y-105214328D01*
X167032695Y-105233570D01*
X166945566Y-105263231D01*
X166863679Y-105291107D01*
X166863675Y-105291109D01*
X166858437Y-105292892D01*
X166853727Y-105295790D01*
X166853722Y-105295792D01*
X166707791Y-105385570D01*
X166701653Y-105389346D01*
X166697704Y-105393213D01*
X166697703Y-105393214D01*
X166643685Y-105446112D01*
X166570135Y-105518138D01*
X166470418Y-105672868D01*
X166407460Y-105845845D01*
X166384388Y-106028472D01*
X155970671Y-106028472D01*
X155977780Y-106017773D01*
X156061321Y-105892032D01*
X156064384Y-105887422D01*
X156129751Y-105715341D01*
X156131565Y-105702440D01*
X156154937Y-105536136D01*
X156155370Y-105533055D01*
X156155692Y-105510000D01*
X156135173Y-105327069D01*
X156074636Y-105153230D01*
X155977089Y-104997123D01*
X155872335Y-104891635D01*
X155851282Y-104870434D01*
X155851280Y-104870433D01*
X155847382Y-104866507D01*
X155691960Y-104767873D01*
X155647226Y-104751944D01*
X155523760Y-104707980D01*
X155523758Y-104707980D01*
X155518547Y-104706124D01*
X155492282Y-104702992D01*
X155341260Y-104684983D01*
X155341257Y-104684983D01*
X155335764Y-104684328D01*
X155152695Y-104703570D01*
X155065566Y-104733231D01*
X154983679Y-104761107D01*
X154983675Y-104761109D01*
X154978437Y-104762892D01*
X154973727Y-104765790D01*
X154973722Y-104765792D01*
X154902956Y-104809328D01*
X154821653Y-104859346D01*
X154817704Y-104863213D01*
X154817703Y-104863214D01*
X154786420Y-104893849D01*
X154690135Y-104988138D01*
X154590418Y-105142868D01*
X154527460Y-105315845D01*
X154504388Y-105498472D01*
X153498724Y-105498472D01*
X153644095Y-104684328D01*
X153768345Y-103988472D01*
X167114388Y-103988472D01*
X167115824Y-104003116D01*
X167131811Y-104166169D01*
X167131812Y-104166174D01*
X167132351Y-104171671D01*
X167190455Y-104346338D01*
X167193320Y-104351069D01*
X167193322Y-104351073D01*
X167209280Y-104377422D01*
X167285813Y-104503792D01*
X167289655Y-104507771D01*
X167289657Y-104507773D01*
X167348984Y-104569208D01*
X167413684Y-104636207D01*
X167567714Y-104737001D01*
X167740247Y-104801165D01*
X167745731Y-104801897D01*
X167745732Y-104801897D01*
X167917222Y-104824779D01*
X167922708Y-104825511D01*
X167928213Y-104825010D01*
X167928216Y-104825010D01*
X168002487Y-104818250D01*
X168106028Y-104808827D01*
X168111286Y-104807119D01*
X168111289Y-104807118D01*
X168122363Y-104803520D01*
X168895044Y-104803520D01*
X168896693Y-104866507D01*
X168897351Y-104891635D01*
X168903356Y-105120933D01*
X168903498Y-105126372D01*
X168903900Y-105129199D01*
X168903901Y-105129207D01*
X168941944Y-105396507D01*
X168949004Y-105446112D01*
X169030959Y-105758504D01*
X169065012Y-105845845D01*
X169143674Y-106047603D01*
X169148275Y-106059405D01*
X169149607Y-106061920D01*
X169149608Y-106061923D01*
X169192532Y-106142992D01*
X169299399Y-106344828D01*
X169352460Y-106422032D01*
X169451667Y-106566379D01*
X169482327Y-106610990D01*
X169694634Y-106854363D01*
X169933507Y-107071721D01*
X169935823Y-107073385D01*
X169935824Y-107073386D01*
X170193461Y-107258517D01*
X170193465Y-107258520D01*
X170195780Y-107260183D01*
X170477976Y-107417251D01*
X170640487Y-107484565D01*
X170773722Y-107539753D01*
X170773725Y-107539754D01*
X170776354Y-107540843D01*
X171086961Y-107629322D01*
X171405678Y-107681514D01*
X171728282Y-107696727D01*
X171731127Y-107696533D01*
X171731131Y-107696533D01*
X172047651Y-107674955D01*
X172050497Y-107674761D01*
X172368051Y-107615906D01*
X172370767Y-107615071D01*
X172370773Y-107615069D01*
X172522393Y-107568424D01*
X172676736Y-107520942D01*
X172910471Y-107418339D01*
X172969856Y-107392271D01*
X172969863Y-107392268D01*
X172972461Y-107391127D01*
X172974914Y-107389694D01*
X172974923Y-107389689D01*
X173248836Y-107229627D01*
X173248839Y-107229625D01*
X173251305Y-107228184D01*
X173430763Y-107093444D01*
X173507292Y-107035985D01*
X173507299Y-107035979D01*
X173509574Y-107034271D01*
X173543445Y-107002129D01*
X173687937Y-106865010D01*
X173743842Y-106811958D01*
X173759146Y-106793655D01*
X173949179Y-106566379D01*
X173949184Y-106566372D01*
X173951007Y-106564192D01*
X174128320Y-106294258D01*
X174129594Y-106291725D01*
X174129598Y-106291718D01*
X174272157Y-106008270D01*
X174273433Y-106005733D01*
X174362931Y-105761170D01*
X174383441Y-105705124D01*
X174383442Y-105705121D01*
X174384423Y-105702440D01*
X174388150Y-105686918D01*
X174430624Y-105510000D01*
X174459817Y-105388401D01*
X174466766Y-105330983D01*
X174498351Y-105069969D01*
X174498351Y-105069966D01*
X174498616Y-105067778D01*
X174504152Y-104891635D01*
X174502514Y-104863214D01*
X174485725Y-104572054D01*
X174485561Y-104569208D01*
X174469824Y-104479040D01*
X174430523Y-104253854D01*
X174430521Y-104253846D01*
X174430034Y-104251055D01*
X174338308Y-103941392D01*
X174211598Y-103644324D01*
X174208028Y-103638064D01*
X174053000Y-103366273D01*
X174052999Y-103366271D01*
X174051583Y-103363789D01*
X174044055Y-103353540D01*
X173912891Y-103174983D01*
X173860385Y-103103504D01*
X173858454Y-103101426D01*
X173858449Y-103101420D01*
X173642478Y-102869008D01*
X173640538Y-102866920D01*
X173638374Y-102865072D01*
X173638369Y-102865067D01*
X173507133Y-102752982D01*
X173394955Y-102657173D01*
X173126892Y-102477042D01*
X172839902Y-102328915D01*
X172837238Y-102327908D01*
X172837235Y-102327907D01*
X172649910Y-102257123D01*
X172537789Y-102214756D01*
X172535024Y-102214061D01*
X172535016Y-102214059D01*
X172283383Y-102150854D01*
X172224557Y-102136078D01*
X171999502Y-102106449D01*
X171907185Y-102094295D01*
X171907180Y-102094295D01*
X171904357Y-102093923D01*
X171901511Y-102093878D01*
X171901507Y-102093878D01*
X171777214Y-102091926D01*
X171581434Y-102088850D01*
X171260069Y-102120926D01*
X171257281Y-102121534D01*
X171257274Y-102121535D01*
X170947308Y-102189119D01*
X170947306Y-102189120D01*
X170944520Y-102189727D01*
X170638970Y-102294340D01*
X170347468Y-102433379D01*
X170345062Y-102434888D01*
X170345057Y-102434891D01*
X170279950Y-102475733D01*
X170073880Y-102605001D01*
X169821830Y-102806931D01*
X169594660Y-103036493D01*
X169592899Y-103038739D01*
X169592898Y-103038740D01*
X169418749Y-103260840D01*
X169395380Y-103290643D01*
X169280483Y-103478138D01*
X169230787Y-103559236D01*
X169226633Y-103566014D01*
X169225433Y-103568599D01*
X169225432Y-103568601D01*
X169217815Y-103585010D01*
X169090654Y-103858955D01*
X169089760Y-103861660D01*
X169089757Y-103861666D01*
X169049636Y-103982982D01*
X168989246Y-104165584D01*
X168923754Y-104481836D01*
X168923501Y-104484674D01*
X168923500Y-104484679D01*
X168897961Y-104770840D01*
X168895044Y-104803520D01*
X168122363Y-104803520D01*
X168275832Y-104753655D01*
X168275834Y-104753654D01*
X168281097Y-104751944D01*
X168285853Y-104749109D01*
X168285855Y-104749108D01*
X168434462Y-104660520D01*
X168439213Y-104657688D01*
X168572517Y-104530745D01*
X168587780Y-104507773D01*
X168671321Y-104382032D01*
X168674384Y-104377422D01*
X168739751Y-104205341D01*
X168745257Y-104166169D01*
X168764937Y-104026136D01*
X168765370Y-104023055D01*
X168765692Y-104000000D01*
X168745173Y-103817069D01*
X168684636Y-103643230D01*
X168594466Y-103498929D01*
X168590021Y-103491815D01*
X168590021Y-103491814D01*
X168587089Y-103487123D01*
X168496806Y-103396207D01*
X168461282Y-103360434D01*
X168461280Y-103360433D01*
X168457382Y-103356507D01*
X168301960Y-103257873D01*
X168277221Y-103249064D01*
X168133760Y-103197980D01*
X168133758Y-103197980D01*
X168128547Y-103196124D01*
X168102282Y-103192992D01*
X167951260Y-103174983D01*
X167951257Y-103174983D01*
X167945764Y-103174328D01*
X167762695Y-103193570D01*
X167675566Y-103223231D01*
X167593679Y-103251107D01*
X167593675Y-103251109D01*
X167588437Y-103252892D01*
X167583727Y-103255790D01*
X167583722Y-103255792D01*
X167436362Y-103346449D01*
X167431653Y-103349346D01*
X167300135Y-103478138D01*
X167200418Y-103632868D01*
X167137460Y-103805845D01*
X167114388Y-103988472D01*
X153768345Y-103988472D01*
X153989756Y-102748472D01*
X165614388Y-102748472D01*
X165619945Y-102805146D01*
X165631811Y-102926169D01*
X165631812Y-102926174D01*
X165632351Y-102931671D01*
X165690455Y-103106338D01*
X165693320Y-103111069D01*
X165693322Y-103111073D01*
X165776893Y-103249064D01*
X165785813Y-103263792D01*
X165789655Y-103267771D01*
X165789657Y-103267773D01*
X165811841Y-103290745D01*
X165913684Y-103396207D01*
X166067714Y-103497001D01*
X166240247Y-103561165D01*
X166245731Y-103561897D01*
X166245732Y-103561897D01*
X166417222Y-103584779D01*
X166422708Y-103585511D01*
X166428213Y-103585010D01*
X166428216Y-103585010D01*
X166514928Y-103577118D01*
X166606028Y-103568827D01*
X166611286Y-103567119D01*
X166611289Y-103567118D01*
X166775832Y-103513655D01*
X166775834Y-103513654D01*
X166781097Y-103511944D01*
X166785853Y-103509109D01*
X166785855Y-103509108D01*
X166934462Y-103420520D01*
X166939213Y-103417688D01*
X167072517Y-103290745D01*
X167083781Y-103273792D01*
X167171321Y-103142032D01*
X167174384Y-103137422D01*
X167239751Y-102965341D01*
X167245257Y-102926169D01*
X167264937Y-102786136D01*
X167265370Y-102783055D01*
X167265692Y-102760000D01*
X167245173Y-102577069D01*
X167184636Y-102403230D01*
X167087089Y-102247123D01*
X166990763Y-102150122D01*
X166961282Y-102120434D01*
X166961280Y-102120433D01*
X166957382Y-102116507D01*
X166801960Y-102017873D01*
X166759714Y-102002830D01*
X166633760Y-101957980D01*
X166633758Y-101957980D01*
X166628547Y-101956124D01*
X166602282Y-101952992D01*
X166451260Y-101934983D01*
X166451257Y-101934983D01*
X166445764Y-101934328D01*
X166262695Y-101953570D01*
X166220366Y-101967980D01*
X166093679Y-102011107D01*
X166093675Y-102011109D01*
X166088437Y-102012892D01*
X166083727Y-102015790D01*
X166083722Y-102015792D01*
X165964510Y-102089132D01*
X165931653Y-102109346D01*
X165927704Y-102113213D01*
X165927703Y-102113214D01*
X165914129Y-102126507D01*
X165800135Y-102238138D01*
X165700418Y-102392868D01*
X165637460Y-102565845D01*
X165614388Y-102748472D01*
X153989756Y-102748472D01*
X154202700Y-101555889D01*
X154202700Y-101555888D01*
X154203144Y-101553402D01*
X154206262Y-101511458D01*
X154205120Y-101471166D01*
X154204202Y-101456744D01*
X154175167Y-101370019D01*
X154155299Y-101337429D01*
X157513345Y-101337429D01*
X157514781Y-101352073D01*
X157530768Y-101515126D01*
X157530769Y-101515131D01*
X157531308Y-101520628D01*
X157589412Y-101695295D01*
X157592277Y-101700026D01*
X157592279Y-101700030D01*
X157648257Y-101792459D01*
X157684770Y-101852749D01*
X157812641Y-101985164D01*
X157966671Y-102085958D01*
X158139204Y-102150122D01*
X158144688Y-102150854D01*
X158144689Y-102150854D01*
X158316179Y-102173736D01*
X158321665Y-102174468D01*
X158327170Y-102173967D01*
X158327173Y-102173967D01*
X158401444Y-102167207D01*
X158504985Y-102157784D01*
X158510243Y-102156076D01*
X158510246Y-102156075D01*
X158674789Y-102102612D01*
X158674791Y-102102611D01*
X158680054Y-102100901D01*
X158684810Y-102098066D01*
X158684812Y-102098065D01*
X158805675Y-102026016D01*
X158838170Y-102006645D01*
X158971474Y-101879702D01*
X158986737Y-101856730D01*
X159070278Y-101730989D01*
X159073341Y-101726379D01*
X159138708Y-101554298D01*
X159144214Y-101515126D01*
X159163894Y-101375093D01*
X159164327Y-101372012D01*
X159164649Y-101348957D01*
X159144130Y-101166026D01*
X159083593Y-100992187D01*
X158986046Y-100836080D01*
X158882184Y-100731490D01*
X158860239Y-100709391D01*
X158860237Y-100709390D01*
X158856339Y-100705464D01*
X158700917Y-100606830D01*
X158620132Y-100578064D01*
X158532717Y-100546937D01*
X158532715Y-100546937D01*
X158527504Y-100545081D01*
X158501239Y-100541949D01*
X158350217Y-100523940D01*
X158350214Y-100523940D01*
X158344721Y-100523285D01*
X158161652Y-100542527D01*
X158074523Y-100572188D01*
X157992636Y-100600064D01*
X157992632Y-100600066D01*
X157987394Y-100601849D01*
X157982684Y-100604747D01*
X157982679Y-100604749D01*
X157835319Y-100695406D01*
X157830610Y-100698303D01*
X157826661Y-100702170D01*
X157826660Y-100702171D01*
X157794055Y-100734100D01*
X157699092Y-100827095D01*
X157599375Y-100981825D01*
X157536417Y-101154802D01*
X157513345Y-101337429D01*
X154155299Y-101337429D01*
X154144481Y-101319683D01*
X154144476Y-101319676D01*
X154143318Y-101317776D01*
X154121396Y-101288162D01*
X154046929Y-101235068D01*
X153990455Y-101211524D01*
X153986686Y-101210610D01*
X153986683Y-101210609D01*
X153961733Y-101204559D01*
X153927972Y-101196372D01*
X151387629Y-100990585D01*
X147811691Y-100700907D01*
X147807699Y-100701230D01*
X147749777Y-100705917D01*
X147749775Y-100705917D01*
X147745787Y-100706240D01*
X147741910Y-100707198D01*
X147741906Y-100707199D01*
X147704490Y-100716448D01*
X147684750Y-100721327D01*
X147682564Y-100722092D01*
X147682560Y-100722093D01*
X147655702Y-100731490D01*
X147655701Y-100731491D01*
X147648243Y-100734100D01*
X147641978Y-100738914D01*
X147641975Y-100738916D01*
X147594165Y-100775657D01*
X147575725Y-100789827D01*
X147548095Y-100823224D01*
X147540706Y-100832155D01*
X147536722Y-100836970D01*
X147503991Y-100892311D01*
X146834713Y-102582574D01*
X146824607Y-102608096D01*
X146785604Y-102655239D01*
X146726341Y-102670453D01*
X146669453Y-102647928D01*
X146636021Y-102593584D01*
X146635789Y-102592565D01*
X146635173Y-102587069D01*
X146633355Y-102581848D01*
X146633354Y-102581844D01*
X146582179Y-102434891D01*
X146574636Y-102413230D01*
X146477089Y-102257123D01*
X146378939Y-102158285D01*
X146351282Y-102130434D01*
X146351280Y-102130433D01*
X146347382Y-102126507D01*
X146191960Y-102027873D01*
X146172209Y-102020840D01*
X146023760Y-101967980D01*
X146023758Y-101967980D01*
X146018547Y-101966124D01*
X145972424Y-101960624D01*
X145841260Y-101944983D01*
X145841257Y-101944983D01*
X145835764Y-101944328D01*
X145652695Y-101963570D01*
X145589263Y-101985164D01*
X145483679Y-102021107D01*
X145483675Y-102021109D01*
X145478437Y-102022892D01*
X145473727Y-102025790D01*
X145473722Y-102025792D01*
X145326362Y-102116449D01*
X145321653Y-102119346D01*
X145190135Y-102248138D01*
X145090418Y-102402868D01*
X145027460Y-102575845D01*
X145004388Y-102758472D01*
X145009339Y-102808963D01*
X145021811Y-102936169D01*
X145021812Y-102936174D01*
X145022351Y-102941671D01*
X145024097Y-102946919D01*
X145033698Y-102975782D01*
X145034125Y-103036966D01*
X144998507Y-103086716D01*
X144940450Y-103106029D01*
X144882128Y-103087528D01*
X144869134Y-103076407D01*
X144726957Y-102931671D01*
X143838378Y-102027097D01*
X143833834Y-102022892D01*
X143824895Y-102014619D01*
X143824888Y-102014613D01*
X143824027Y-102013816D01*
X143823146Y-102013076D01*
X143823131Y-102013062D01*
X143815498Y-102006645D01*
X143809630Y-102001711D01*
X143736110Y-101962072D01*
X143677477Y-101944586D01*
X143673616Y-101944070D01*
X143673614Y-101944070D01*
X143617594Y-101936590D01*
X143617595Y-101936590D01*
X143613745Y-101936076D01*
X143609871Y-101936170D01*
X143609865Y-101936170D01*
X136961191Y-102098065D01*
X136033592Y-102120652D01*
X135974958Y-102103166D01*
X135943664Y-102067958D01*
X135797988Y-101792459D01*
X135786518Y-101747713D01*
X135729205Y-98041464D01*
X135729205Y-98041456D01*
X135729175Y-98039545D01*
X135726184Y-98007644D01*
X135720931Y-97977322D01*
X135683063Y-97889388D01*
X135674674Y-97878161D01*
X135647772Y-97842161D01*
X135647771Y-97842159D01*
X135646438Y-97840376D01*
X135621827Y-97812959D01*
X135615090Y-97809056D01*
X135615088Y-97809054D01*
X135577727Y-97787408D01*
X135542694Y-97767110D01*
X135513797Y-97758148D01*
X135487973Y-97750139D01*
X135487969Y-97750138D01*
X135484254Y-97748986D01*
X135480406Y-97748430D01*
X135480404Y-97748429D01*
X135424473Y-97740340D01*
X135420622Y-97739783D01*
X135416731Y-97739835D01*
X135416727Y-97739835D01*
X129957721Y-97813169D01*
X129957716Y-97813169D01*
X129955800Y-97813195D01*
X129924129Y-97816081D01*
X129922244Y-97816401D01*
X129922239Y-97816402D01*
X129899743Y-97820225D01*
X129899740Y-97820226D01*
X129894014Y-97821199D01*
X129806153Y-97858643D01*
X129756981Y-97895054D01*
X129729457Y-97919544D01*
X129725521Y-97926270D01*
X129725520Y-97926271D01*
X129712360Y-97948758D01*
X129683263Y-97998477D01*
X129664884Y-98056837D01*
X129664310Y-98060690D01*
X129664309Y-98060692D01*
X129655976Y-98116575D01*
X129655976Y-98116582D01*
X129655402Y-98120428D01*
X119046477Y-98120428D01*
X119046477Y-97059515D01*
X139885431Y-97059515D01*
X139886867Y-97074159D01*
X139902854Y-97237212D01*
X139902855Y-97237217D01*
X139903394Y-97242714D01*
X139961498Y-97417381D01*
X139964363Y-97422112D01*
X139964365Y-97422116D01*
X139980323Y-97448465D01*
X140056856Y-97574835D01*
X140184727Y-97707250D01*
X140338757Y-97808044D01*
X140511290Y-97872208D01*
X140516774Y-97872940D01*
X140516775Y-97872940D01*
X140680148Y-97894739D01*
X140693751Y-97896554D01*
X140699256Y-97896053D01*
X140699259Y-97896053D01*
X140773530Y-97889293D01*
X140877071Y-97879870D01*
X140882329Y-97878162D01*
X140882332Y-97878161D01*
X141046875Y-97824698D01*
X141046877Y-97824697D01*
X141052140Y-97822987D01*
X141056896Y-97820152D01*
X141056898Y-97820151D01*
X141205505Y-97731563D01*
X141210256Y-97728731D01*
X141343560Y-97601788D01*
X141358823Y-97578816D01*
X141442364Y-97453075D01*
X141445427Y-97448465D01*
X141510794Y-97276384D01*
X141516300Y-97237212D01*
X141535980Y-97097179D01*
X141536413Y-97094098D01*
X141536735Y-97071043D01*
X141516216Y-96888112D01*
X141455679Y-96714273D01*
X141358132Y-96558166D01*
X141228425Y-96427550D01*
X141073003Y-96328916D01*
X141054002Y-96322150D01*
X140904803Y-96269023D01*
X140904801Y-96269023D01*
X140899590Y-96267167D01*
X140873325Y-96264035D01*
X140722303Y-96246026D01*
X140722300Y-96246026D01*
X140716807Y-96245371D01*
X140533738Y-96264613D01*
X140446609Y-96294274D01*
X140364722Y-96322150D01*
X140364718Y-96322152D01*
X140359480Y-96323935D01*
X140354770Y-96326833D01*
X140354765Y-96326835D01*
X140207405Y-96417492D01*
X140202696Y-96420389D01*
X140071178Y-96549181D01*
X139971461Y-96703911D01*
X139908503Y-96876888D01*
X139885431Y-97059515D01*
X119046477Y-97059515D01*
X119046477Y-94709471D01*
X140716245Y-94709471D01*
X140717423Y-94721480D01*
X140733668Y-94887168D01*
X140733669Y-94887173D01*
X140734208Y-94892670D01*
X140792312Y-95067337D01*
X140795177Y-95072068D01*
X140795179Y-95072072D01*
X140862028Y-95182451D01*
X140887670Y-95224791D01*
X140891512Y-95228770D01*
X140891514Y-95228772D01*
X140917387Y-95255564D01*
X141015541Y-95357206D01*
X141169571Y-95458000D01*
X141342104Y-95522164D01*
X141347588Y-95522896D01*
X141347589Y-95522896D01*
X141519079Y-95545778D01*
X141524565Y-95546510D01*
X141530070Y-95546009D01*
X141530073Y-95546009D01*
X141604344Y-95539249D01*
X141707885Y-95529826D01*
X141713143Y-95528118D01*
X141713146Y-95528117D01*
X141877689Y-95474654D01*
X141877691Y-95474653D01*
X141882954Y-95472943D01*
X141887710Y-95470108D01*
X141887712Y-95470107D01*
X142036319Y-95381519D01*
X142041070Y-95378687D01*
X142174374Y-95251744D01*
X142180798Y-95242076D01*
X142236854Y-95157703D01*
X142269231Y-95108972D01*
X143644388Y-95108972D01*
X143646570Y-95131227D01*
X143661811Y-95286669D01*
X143661812Y-95286674D01*
X143662351Y-95292171D01*
X143720455Y-95466838D01*
X143723320Y-95471569D01*
X143723322Y-95471573D01*
X143754405Y-95522896D01*
X143815813Y-95624292D01*
X143943684Y-95756707D01*
X144097714Y-95857501D01*
X144270247Y-95921665D01*
X144275731Y-95922397D01*
X144275732Y-95922397D01*
X144447222Y-95945279D01*
X144452708Y-95946011D01*
X144458213Y-95945510D01*
X144458216Y-95945510D01*
X144532487Y-95938750D01*
X144636028Y-95929327D01*
X144641286Y-95927619D01*
X144641289Y-95927618D01*
X144805832Y-95874155D01*
X144805834Y-95874154D01*
X144811097Y-95872444D01*
X144815853Y-95869609D01*
X144815855Y-95869608D01*
X144834536Y-95858472D01*
X146754388Y-95858472D01*
X146761385Y-95929828D01*
X146771811Y-96036169D01*
X146771812Y-96036174D01*
X146772351Y-96041671D01*
X146830455Y-96216338D01*
X146833320Y-96221069D01*
X146833322Y-96221073D01*
X146861238Y-96267167D01*
X146925813Y-96373792D01*
X147053684Y-96506207D01*
X147207714Y-96607001D01*
X147380247Y-96671165D01*
X147385731Y-96671897D01*
X147385732Y-96671897D01*
X147557222Y-96694779D01*
X147562708Y-96695511D01*
X147568213Y-96695010D01*
X147568216Y-96695010D01*
X147642487Y-96688250D01*
X147746028Y-96678827D01*
X147751286Y-96677119D01*
X147751289Y-96677118D01*
X147915832Y-96623655D01*
X147915834Y-96623654D01*
X147921097Y-96621944D01*
X147925853Y-96619109D01*
X147925855Y-96619108D01*
X148074462Y-96530520D01*
X148079213Y-96527688D01*
X148212517Y-96400745D01*
X148227780Y-96377773D01*
X148300032Y-96269023D01*
X148314384Y-96247422D01*
X148379751Y-96075341D01*
X148385257Y-96036169D01*
X148404937Y-95896136D01*
X148405370Y-95893055D01*
X148405692Y-95870000D01*
X148385173Y-95687069D01*
X148324636Y-95513230D01*
X148227089Y-95357123D01*
X148124214Y-95253527D01*
X148101282Y-95230434D01*
X148101280Y-95230433D01*
X148097382Y-95226507D01*
X147941960Y-95127873D01*
X147904334Y-95114475D01*
X147773760Y-95067980D01*
X147773758Y-95067980D01*
X147768547Y-95066124D01*
X147734676Y-95062085D01*
X147591260Y-95044983D01*
X147591257Y-95044983D01*
X147585764Y-95044328D01*
X147402695Y-95063570D01*
X147315566Y-95093231D01*
X147233679Y-95121107D01*
X147233675Y-95121109D01*
X147228437Y-95122892D01*
X147223727Y-95125790D01*
X147223722Y-95125792D01*
X147107646Y-95197203D01*
X147071653Y-95219346D01*
X147067704Y-95223213D01*
X147067703Y-95223214D01*
X147036630Y-95253643D01*
X146940135Y-95348138D01*
X146840418Y-95502868D01*
X146777460Y-95675845D01*
X146754388Y-95858472D01*
X144834536Y-95858472D01*
X144964462Y-95781020D01*
X144969213Y-95778188D01*
X145102517Y-95651245D01*
X145117780Y-95628273D01*
X145201321Y-95502532D01*
X145204384Y-95497922D01*
X145269751Y-95325841D01*
X145275257Y-95286669D01*
X145294937Y-95146636D01*
X145295370Y-95143555D01*
X145295692Y-95120500D01*
X145275173Y-94937569D01*
X145214636Y-94763730D01*
X145117089Y-94607623D01*
X145048018Y-94538068D01*
X144991282Y-94480934D01*
X144991280Y-94480933D01*
X144987382Y-94477007D01*
X144831960Y-94378373D01*
X144777731Y-94359063D01*
X144663760Y-94318480D01*
X144663758Y-94318480D01*
X144658547Y-94316624D01*
X144632282Y-94313492D01*
X144481260Y-94295483D01*
X144481257Y-94295483D01*
X144475764Y-94294828D01*
X144292695Y-94314070D01*
X144205566Y-94343731D01*
X144123679Y-94371607D01*
X144123675Y-94371609D01*
X144118437Y-94373392D01*
X144113727Y-94376290D01*
X144113722Y-94376292D01*
X143966362Y-94466949D01*
X143961653Y-94469846D01*
X143957704Y-94473713D01*
X143957703Y-94473714D01*
X143875975Y-94553748D01*
X143830135Y-94598638D01*
X143730418Y-94753368D01*
X143667460Y-94926345D01*
X143644388Y-95108972D01*
X142269231Y-95108972D01*
X142276241Y-95098421D01*
X142341608Y-94926340D01*
X142347114Y-94887168D01*
X142366794Y-94747135D01*
X142367227Y-94744054D01*
X142367549Y-94720999D01*
X142347030Y-94538068D01*
X142286493Y-94364229D01*
X142188946Y-94208122D01*
X142099025Y-94117571D01*
X142063139Y-94081433D01*
X142063137Y-94081432D01*
X142059239Y-94077506D01*
X141903817Y-93978872D01*
X141884563Y-93972016D01*
X141735617Y-93918979D01*
X141735615Y-93918979D01*
X141730404Y-93917123D01*
X141704139Y-93913991D01*
X141553117Y-93895982D01*
X141553114Y-93895982D01*
X141547621Y-93895327D01*
X141364552Y-93914569D01*
X141277423Y-93944230D01*
X141195536Y-93972106D01*
X141195532Y-93972108D01*
X141190294Y-93973891D01*
X141185584Y-93976789D01*
X141185579Y-93976791D01*
X141038219Y-94067448D01*
X141033510Y-94070345D01*
X140901992Y-94199137D01*
X140802275Y-94353867D01*
X140739317Y-94526844D01*
X140716245Y-94709471D01*
X119046477Y-94709471D01*
X119046477Y-93576188D01*
X119048997Y-93553994D01*
X119049133Y-93553401D01*
X119051633Y-93542534D01*
X119049238Y-93531947D01*
X119050391Y-93517473D01*
X119058688Y-93465111D01*
X119068260Y-93435657D01*
X119096568Y-93380107D01*
X119114772Y-93355054D01*
X119158860Y-93310967D01*
X119183917Y-93292762D01*
X119239466Y-93264458D01*
X119268921Y-93254886D01*
X119274078Y-93254069D01*
X119321616Y-93246538D01*
X119335410Y-93245464D01*
X119345627Y-93247813D01*
X119357620Y-93245099D01*
X119379472Y-93242657D01*
X119811689Y-93242657D01*
X119834048Y-93245215D01*
X119839788Y-93246546D01*
X119839791Y-93246546D01*
X119845250Y-93247812D01*
X119845968Y-93247813D01*
X119851409Y-93246572D01*
X119851419Y-93246571D01*
X119853360Y-93246128D01*
X119865666Y-93244127D01*
X119964542Y-93234392D01*
X119983297Y-93232545D01*
X120115349Y-93192491D01*
X120152715Y-93172519D01*
X120232764Y-93129733D01*
X120232769Y-93129730D01*
X120237049Y-93127442D01*
X120276164Y-93095340D01*
X120339953Y-93042988D01*
X120343718Y-93039898D01*
X120431257Y-92933226D01*
X120496302Y-92811523D01*
X120523644Y-92721370D01*
X120534940Y-92684122D01*
X120534940Y-92684121D01*
X120536351Y-92679469D01*
X120547810Y-92563031D01*
X120549889Y-92550382D01*
X120550367Y-92548321D01*
X120550368Y-92548312D01*
X120551632Y-92542857D01*
X120551633Y-92542139D01*
X120548958Y-92530417D01*
X120546477Y-92508391D01*
X120546477Y-92176841D01*
X133964494Y-92176841D01*
X133964729Y-92179236D01*
X133964729Y-92179240D01*
X133979033Y-92325123D01*
X133979514Y-92330030D01*
X133980910Y-92334655D01*
X133980911Y-92334658D01*
X133982420Y-92339655D01*
X134039059Y-92527251D01*
X134135776Y-92709151D01*
X134265983Y-92868800D01*
X134269711Y-92871884D01*
X134269712Y-92871885D01*
X134343861Y-92933226D01*
X134424719Y-93000118D01*
X134605939Y-93098103D01*
X134669139Y-93117667D01*
X134798119Y-93157593D01*
X134798123Y-93157594D01*
X134802740Y-93159023D01*
X134807548Y-93159528D01*
X134807551Y-93159529D01*
X135002809Y-93180051D01*
X135002811Y-93180051D01*
X135007625Y-93180557D01*
X135067640Y-93175095D01*
X135207972Y-93162325D01*
X135207977Y-93162324D01*
X135212791Y-93161886D01*
X135410422Y-93103720D01*
X135419319Y-93099069D01*
X135510213Y-93051550D01*
X135592992Y-93008274D01*
X135681658Y-92936985D01*
X135749774Y-92882219D01*
X135749777Y-92882217D01*
X135753547Y-92879185D01*
X135756959Y-92875119D01*
X135882853Y-92725085D01*
X135882854Y-92725083D01*
X135885970Y-92721370D01*
X135892688Y-92709151D01*
X135982883Y-92545085D01*
X135985218Y-92540838D01*
X135988234Y-92531332D01*
X136046046Y-92349083D01*
X136047510Y-92344468D01*
X136049130Y-92330030D01*
X136065185Y-92186892D01*
X136065185Y-92186890D01*
X136065494Y-92184136D01*
X136065494Y-92176841D01*
X136464494Y-92176841D01*
X136464729Y-92179236D01*
X136464729Y-92179240D01*
X136479033Y-92325123D01*
X136479514Y-92330030D01*
X136480910Y-92334655D01*
X136480911Y-92334658D01*
X136482420Y-92339655D01*
X136539059Y-92527251D01*
X136635776Y-92709151D01*
X136765983Y-92868800D01*
X136769711Y-92871884D01*
X136769712Y-92871885D01*
X136843861Y-92933226D01*
X136924719Y-93000118D01*
X137105939Y-93098103D01*
X137169139Y-93117667D01*
X137298119Y-93157593D01*
X137298123Y-93157594D01*
X137302740Y-93159023D01*
X137307548Y-93159528D01*
X137307551Y-93159529D01*
X137502809Y-93180051D01*
X137502811Y-93180051D01*
X137507625Y-93180557D01*
X137567640Y-93175095D01*
X137707972Y-93162325D01*
X137707977Y-93162324D01*
X137712791Y-93161886D01*
X137910422Y-93103720D01*
X137919319Y-93099069D01*
X138010213Y-93051550D01*
X138092992Y-93008274D01*
X138181658Y-92936985D01*
X138249774Y-92882219D01*
X138249777Y-92882217D01*
X138253547Y-92879185D01*
X138256959Y-92875119D01*
X138382853Y-92725085D01*
X138382854Y-92725083D01*
X138385970Y-92721370D01*
X138392688Y-92709151D01*
X138482883Y-92545085D01*
X138485218Y-92540838D01*
X138488234Y-92531332D01*
X138546046Y-92349083D01*
X138547510Y-92344468D01*
X138549130Y-92330030D01*
X138565185Y-92186892D01*
X138565185Y-92186890D01*
X138565494Y-92184136D01*
X138565494Y-92176841D01*
X138964494Y-92176841D01*
X138964729Y-92179236D01*
X138964729Y-92179240D01*
X138979033Y-92325123D01*
X138979514Y-92330030D01*
X138980910Y-92334655D01*
X138980911Y-92334658D01*
X138982420Y-92339655D01*
X139039059Y-92527251D01*
X139135776Y-92709151D01*
X139265983Y-92868800D01*
X139269711Y-92871884D01*
X139269712Y-92871885D01*
X139343861Y-92933226D01*
X139424719Y-93000118D01*
X139605939Y-93098103D01*
X139669139Y-93117667D01*
X139798119Y-93157593D01*
X139798123Y-93157594D01*
X139802740Y-93159023D01*
X139807548Y-93159528D01*
X139807551Y-93159529D01*
X140002809Y-93180051D01*
X140002811Y-93180051D01*
X140007625Y-93180557D01*
X140067640Y-93175095D01*
X140207972Y-93162325D01*
X140207977Y-93162324D01*
X140212791Y-93161886D01*
X140410422Y-93103720D01*
X140419319Y-93099069D01*
X140510213Y-93051550D01*
X140592992Y-93008274D01*
X140681658Y-92936985D01*
X140749774Y-92882219D01*
X140749777Y-92882217D01*
X140753547Y-92879185D01*
X140756959Y-92875119D01*
X140882853Y-92725085D01*
X140882854Y-92725083D01*
X140885970Y-92721370D01*
X140892688Y-92709151D01*
X140982883Y-92545085D01*
X140985218Y-92540838D01*
X140988234Y-92531332D01*
X141046046Y-92349083D01*
X141047510Y-92344468D01*
X141049130Y-92330030D01*
X141065185Y-92186892D01*
X141065185Y-92186890D01*
X141065494Y-92184136D01*
X141065494Y-92176841D01*
X141464494Y-92176841D01*
X141464729Y-92179236D01*
X141464729Y-92179240D01*
X141479033Y-92325123D01*
X141479514Y-92330030D01*
X141480910Y-92334655D01*
X141480911Y-92334658D01*
X141482420Y-92339655D01*
X141539059Y-92527251D01*
X141635776Y-92709151D01*
X141765983Y-92868800D01*
X141769711Y-92871884D01*
X141769712Y-92871885D01*
X141843861Y-92933226D01*
X141924719Y-93000118D01*
X142105939Y-93098103D01*
X142169139Y-93117667D01*
X142298119Y-93157593D01*
X142298123Y-93157594D01*
X142302740Y-93159023D01*
X142307548Y-93159528D01*
X142307551Y-93159529D01*
X142502809Y-93180051D01*
X142502811Y-93180051D01*
X142507625Y-93180557D01*
X142567640Y-93175095D01*
X142707972Y-93162325D01*
X142707977Y-93162324D01*
X142712791Y-93161886D01*
X142910422Y-93103720D01*
X142919319Y-93099069D01*
X143010213Y-93051550D01*
X143092992Y-93008274D01*
X143181658Y-92936985D01*
X143249774Y-92882219D01*
X143249777Y-92882217D01*
X143253547Y-92879185D01*
X143256959Y-92875119D01*
X143382853Y-92725085D01*
X143382854Y-92725083D01*
X143385970Y-92721370D01*
X143392688Y-92709151D01*
X143482883Y-92545085D01*
X143485218Y-92540838D01*
X143488234Y-92531332D01*
X143546046Y-92349083D01*
X143547510Y-92344468D01*
X143549130Y-92330030D01*
X143565185Y-92186892D01*
X143565185Y-92186890D01*
X143565494Y-92184136D01*
X143565494Y-92176841D01*
X143964494Y-92176841D01*
X143964729Y-92179236D01*
X143964729Y-92179240D01*
X143979033Y-92325123D01*
X143979514Y-92330030D01*
X143980910Y-92334655D01*
X143980911Y-92334658D01*
X143982420Y-92339655D01*
X144039059Y-92527251D01*
X144135776Y-92709151D01*
X144265983Y-92868800D01*
X144269711Y-92871884D01*
X144269712Y-92871885D01*
X144343861Y-92933226D01*
X144424719Y-93000118D01*
X144605939Y-93098103D01*
X144669139Y-93117667D01*
X144798119Y-93157593D01*
X144798123Y-93157594D01*
X144802740Y-93159023D01*
X144807548Y-93159528D01*
X144807551Y-93159529D01*
X145002809Y-93180051D01*
X145002811Y-93180051D01*
X145007625Y-93180557D01*
X145067640Y-93175095D01*
X145207972Y-93162325D01*
X145207977Y-93162324D01*
X145212791Y-93161886D01*
X145410422Y-93103720D01*
X145419319Y-93099069D01*
X145510213Y-93051550D01*
X145592992Y-93008274D01*
X145681658Y-92936985D01*
X145749774Y-92882219D01*
X145749777Y-92882217D01*
X145753547Y-92879185D01*
X145756959Y-92875119D01*
X145882853Y-92725085D01*
X145882854Y-92725083D01*
X145885970Y-92721370D01*
X145892688Y-92709151D01*
X145982883Y-92545085D01*
X145985218Y-92540838D01*
X145988234Y-92531332D01*
X146046046Y-92349083D01*
X146047510Y-92344468D01*
X146049130Y-92330030D01*
X146065185Y-92186892D01*
X146065185Y-92186890D01*
X146065494Y-92184136D01*
X146065494Y-92176841D01*
X146464494Y-92176841D01*
X146464729Y-92179236D01*
X146464729Y-92179240D01*
X146479033Y-92325123D01*
X146479514Y-92330030D01*
X146480910Y-92334655D01*
X146480911Y-92334658D01*
X146482420Y-92339655D01*
X146539059Y-92527251D01*
X146635776Y-92709151D01*
X146765983Y-92868800D01*
X146769711Y-92871884D01*
X146769712Y-92871885D01*
X146843861Y-92933226D01*
X146924719Y-93000118D01*
X147105939Y-93098103D01*
X147169139Y-93117667D01*
X147298119Y-93157593D01*
X147298123Y-93157594D01*
X147302740Y-93159023D01*
X147307548Y-93159528D01*
X147307551Y-93159529D01*
X147502809Y-93180051D01*
X147502811Y-93180051D01*
X147507625Y-93180557D01*
X147567640Y-93175095D01*
X147707972Y-93162325D01*
X147707977Y-93162324D01*
X147712791Y-93161886D01*
X147910422Y-93103720D01*
X147919319Y-93099069D01*
X148010213Y-93051550D01*
X148092992Y-93008274D01*
X148181658Y-92936985D01*
X148249774Y-92882219D01*
X148249777Y-92882217D01*
X148253547Y-92879185D01*
X148256959Y-92875119D01*
X148382853Y-92725085D01*
X148382854Y-92725083D01*
X148385970Y-92721370D01*
X148392688Y-92709151D01*
X148482883Y-92545085D01*
X148485218Y-92540838D01*
X148488234Y-92531332D01*
X148546046Y-92349083D01*
X148547510Y-92344468D01*
X148549130Y-92330030D01*
X148565185Y-92186892D01*
X148565185Y-92186890D01*
X148565494Y-92184136D01*
X148565494Y-92174404D01*
X148964994Y-92174404D01*
X148965229Y-92179219D01*
X148979535Y-92325123D01*
X148981404Y-92334561D01*
X149038125Y-92522428D01*
X149041795Y-92531332D01*
X149133922Y-92704599D01*
X149139254Y-92712624D01*
X149263278Y-92864693D01*
X149270072Y-92871534D01*
X149421273Y-92996619D01*
X149429256Y-93002003D01*
X149601880Y-93095340D01*
X149610751Y-93099069D01*
X149798219Y-93157100D01*
X149807653Y-93159037D01*
X149899400Y-93168680D01*
X149912446Y-93165907D01*
X149914113Y-93164055D01*
X149914994Y-93159912D01*
X149914994Y-93154604D01*
X150114994Y-93154604D01*
X150119116Y-93167289D01*
X150121431Y-93168972D01*
X150125007Y-93169373D01*
X150207877Y-93161832D01*
X150217340Y-93160026D01*
X150405587Y-93104622D01*
X150414528Y-93101009D01*
X150588421Y-93010101D01*
X150596497Y-93004816D01*
X150749423Y-92881860D01*
X150756307Y-92875119D01*
X150882443Y-92724795D01*
X150887890Y-92716841D01*
X150982421Y-92544889D01*
X150986221Y-92536024D01*
X151045555Y-92348979D01*
X151047559Y-92339551D01*
X151064685Y-92186867D01*
X151064994Y-92181338D01*
X151064994Y-92176841D01*
X151464494Y-92176841D01*
X151464729Y-92179236D01*
X151464729Y-92179240D01*
X151479033Y-92325123D01*
X151479514Y-92330030D01*
X151480910Y-92334655D01*
X151480911Y-92334658D01*
X151482420Y-92339655D01*
X151539059Y-92527251D01*
X151635776Y-92709151D01*
X151765983Y-92868800D01*
X151769711Y-92871884D01*
X151769712Y-92871885D01*
X151843861Y-92933226D01*
X151924719Y-93000118D01*
X152105939Y-93098103D01*
X152169139Y-93117667D01*
X152298119Y-93157593D01*
X152298123Y-93157594D01*
X152302740Y-93159023D01*
X152307548Y-93159528D01*
X152307551Y-93159529D01*
X152502809Y-93180051D01*
X152502811Y-93180051D01*
X152507625Y-93180557D01*
X152567640Y-93175095D01*
X152707972Y-93162325D01*
X152707977Y-93162324D01*
X152712791Y-93161886D01*
X152910422Y-93103720D01*
X152919319Y-93099069D01*
X153010213Y-93051550D01*
X153092992Y-93008274D01*
X153181658Y-92936985D01*
X153249774Y-92882219D01*
X153249777Y-92882217D01*
X153253547Y-92879185D01*
X153256959Y-92875119D01*
X153382853Y-92725085D01*
X153382854Y-92725083D01*
X153385970Y-92721370D01*
X153392688Y-92709151D01*
X153482883Y-92545085D01*
X153485218Y-92540838D01*
X153488234Y-92531332D01*
X153546046Y-92349083D01*
X153547510Y-92344468D01*
X153549130Y-92330030D01*
X153565185Y-92186892D01*
X153565185Y-92186890D01*
X153565494Y-92184136D01*
X153565494Y-92176841D01*
X153964494Y-92176841D01*
X153964729Y-92179236D01*
X153964729Y-92179240D01*
X153979033Y-92325123D01*
X153979514Y-92330030D01*
X153980910Y-92334655D01*
X153980911Y-92334658D01*
X153982420Y-92339655D01*
X154039059Y-92527251D01*
X154135776Y-92709151D01*
X154265983Y-92868800D01*
X154269711Y-92871884D01*
X154269712Y-92871885D01*
X154343861Y-92933226D01*
X154424719Y-93000118D01*
X154605939Y-93098103D01*
X154669139Y-93117667D01*
X154798119Y-93157593D01*
X154798123Y-93157594D01*
X154802740Y-93159023D01*
X154807548Y-93159528D01*
X154807551Y-93159529D01*
X155002809Y-93180051D01*
X155002811Y-93180051D01*
X155007625Y-93180557D01*
X155067640Y-93175095D01*
X155207972Y-93162325D01*
X155207977Y-93162324D01*
X155212791Y-93161886D01*
X155410422Y-93103720D01*
X155419319Y-93099069D01*
X155510213Y-93051550D01*
X155592992Y-93008274D01*
X155681658Y-92936985D01*
X155749774Y-92882219D01*
X155749777Y-92882217D01*
X155753547Y-92879185D01*
X155756959Y-92875119D01*
X155837752Y-92778834D01*
X156464494Y-92778834D01*
X156464712Y-92781135D01*
X156464712Y-92781145D01*
X156466907Y-92804361D01*
X156467475Y-92810369D01*
X156512360Y-92938184D01*
X156516755Y-92944135D01*
X156516756Y-92944136D01*
X156588444Y-93041193D01*
X156592844Y-93047150D01*
X156598801Y-93051550D01*
X156666401Y-93101480D01*
X156701810Y-93127634D01*
X156829625Y-93172519D01*
X156835632Y-93173087D01*
X156835633Y-93173087D01*
X156858849Y-93175282D01*
X156858859Y-93175282D01*
X156861160Y-93175500D01*
X158168828Y-93175500D01*
X158171129Y-93175282D01*
X158171139Y-93175282D01*
X158194355Y-93173087D01*
X158194356Y-93173087D01*
X158200363Y-93172519D01*
X158328178Y-93127634D01*
X158363588Y-93101480D01*
X158431187Y-93051550D01*
X158437144Y-93047150D01*
X158441544Y-93041193D01*
X158513232Y-92944136D01*
X158513233Y-92944135D01*
X158517628Y-92938184D01*
X158562513Y-92810369D01*
X158563081Y-92804361D01*
X158565276Y-92781145D01*
X158565276Y-92781135D01*
X158565494Y-92778834D01*
X158565494Y-91221166D01*
X158562513Y-91189631D01*
X158517628Y-91061816D01*
X158465859Y-90991726D01*
X158441544Y-90958807D01*
X158437144Y-90952850D01*
X158431187Y-90948450D01*
X158334130Y-90876762D01*
X158334129Y-90876761D01*
X158328178Y-90872366D01*
X158200363Y-90827481D01*
X158194356Y-90826913D01*
X158194355Y-90826913D01*
X158171139Y-90824718D01*
X158171129Y-90824718D01*
X158168828Y-90824500D01*
X156861160Y-90824500D01*
X156858859Y-90824718D01*
X156858849Y-90824718D01*
X156835633Y-90826913D01*
X156835632Y-90826913D01*
X156829625Y-90827481D01*
X156701810Y-90872366D01*
X156695859Y-90876761D01*
X156695858Y-90876762D01*
X156598801Y-90948450D01*
X156592844Y-90952850D01*
X156588444Y-90958807D01*
X156564130Y-90991726D01*
X156512360Y-91061816D01*
X156467475Y-91189631D01*
X156464494Y-91221166D01*
X156464494Y-92778834D01*
X155837752Y-92778834D01*
X155882853Y-92725085D01*
X155882854Y-92725083D01*
X155885970Y-92721370D01*
X155892688Y-92709151D01*
X155982883Y-92545085D01*
X155985218Y-92540838D01*
X155988234Y-92531332D01*
X156046046Y-92349083D01*
X156047510Y-92344468D01*
X156049130Y-92330030D01*
X156065185Y-92186892D01*
X156065185Y-92186890D01*
X156065494Y-92184136D01*
X156065494Y-91823159D01*
X156064509Y-91813108D01*
X156050946Y-91674780D01*
X156050945Y-91674776D01*
X156050474Y-91669970D01*
X156047600Y-91660449D01*
X155992327Y-91477380D01*
X155990929Y-91472749D01*
X155894212Y-91290849D01*
X155764005Y-91131200D01*
X155605269Y-90999882D01*
X155424049Y-90901897D01*
X155320732Y-90869915D01*
X155231869Y-90842407D01*
X155231865Y-90842406D01*
X155227248Y-90840977D01*
X155222440Y-90840472D01*
X155222437Y-90840471D01*
X155027179Y-90819949D01*
X155027177Y-90819949D01*
X155022363Y-90819443D01*
X154966794Y-90824500D01*
X154822016Y-90837675D01*
X154822011Y-90837676D01*
X154817197Y-90838114D01*
X154619566Y-90896280D01*
X154615282Y-90898519D01*
X154615281Y-90898520D01*
X154547522Y-90933944D01*
X154436996Y-90991726D01*
X154433225Y-90994758D01*
X154280214Y-91117781D01*
X154280211Y-91117783D01*
X154276441Y-91120815D01*
X154273327Y-91124526D01*
X154273326Y-91124527D01*
X154264281Y-91135307D01*
X154144018Y-91278630D01*
X154141683Y-91282878D01*
X154141682Y-91282879D01*
X154134949Y-91295126D01*
X154044770Y-91459162D01*
X154043307Y-91463775D01*
X154043305Y-91463779D01*
X154040460Y-91472749D01*
X153982478Y-91655532D01*
X153981938Y-91660344D01*
X153981938Y-91660345D01*
X153980319Y-91674780D01*
X153964494Y-91815864D01*
X153964494Y-92176841D01*
X153565494Y-92176841D01*
X153565494Y-91823159D01*
X153564509Y-91813108D01*
X153550946Y-91674780D01*
X153550945Y-91674776D01*
X153550474Y-91669970D01*
X153547600Y-91660449D01*
X153492327Y-91477380D01*
X153490929Y-91472749D01*
X153394212Y-91290849D01*
X153264005Y-91131200D01*
X153105269Y-90999882D01*
X152924049Y-90901897D01*
X152820732Y-90869915D01*
X152731869Y-90842407D01*
X152731865Y-90842406D01*
X152727248Y-90840977D01*
X152722440Y-90840472D01*
X152722437Y-90840471D01*
X152527179Y-90819949D01*
X152527177Y-90819949D01*
X152522363Y-90819443D01*
X152466794Y-90824500D01*
X152322016Y-90837675D01*
X152322011Y-90837676D01*
X152317197Y-90838114D01*
X152119566Y-90896280D01*
X152115282Y-90898519D01*
X152115281Y-90898520D01*
X152047522Y-90933944D01*
X151936996Y-90991726D01*
X151933225Y-90994758D01*
X151780214Y-91117781D01*
X151780211Y-91117783D01*
X151776441Y-91120815D01*
X151773327Y-91124526D01*
X151773326Y-91124527D01*
X151764281Y-91135307D01*
X151644018Y-91278630D01*
X151641683Y-91282878D01*
X151641682Y-91282879D01*
X151634949Y-91295126D01*
X151544770Y-91459162D01*
X151543307Y-91463775D01*
X151543305Y-91463779D01*
X151540460Y-91472749D01*
X151482478Y-91655532D01*
X151481938Y-91660344D01*
X151481938Y-91660345D01*
X151480319Y-91674780D01*
X151464494Y-91815864D01*
X151464494Y-92176841D01*
X151064994Y-92176841D01*
X151064994Y-92115680D01*
X151060872Y-92102995D01*
X151056751Y-92100000D01*
X150130674Y-92100000D01*
X150117989Y-92104122D01*
X150114994Y-92108243D01*
X150114994Y-93154604D01*
X149914994Y-93154604D01*
X149914994Y-92115680D01*
X149910872Y-92102995D01*
X149906751Y-92100000D01*
X148980674Y-92100000D01*
X148967989Y-92104122D01*
X148964994Y-92108243D01*
X148964994Y-92174404D01*
X148565494Y-92174404D01*
X148565494Y-91884320D01*
X148964994Y-91884320D01*
X148969116Y-91897005D01*
X148973237Y-91900000D01*
X149899314Y-91900000D01*
X149911999Y-91895878D01*
X149914994Y-91891757D01*
X149914994Y-91884320D01*
X150114994Y-91884320D01*
X150119116Y-91897005D01*
X150123237Y-91900000D01*
X151049314Y-91900000D01*
X151061999Y-91895878D01*
X151064994Y-91891757D01*
X151064994Y-91825596D01*
X151064759Y-91820781D01*
X151050453Y-91674877D01*
X151048584Y-91665439D01*
X150991863Y-91477572D01*
X150988193Y-91468668D01*
X150896066Y-91295401D01*
X150890734Y-91287376D01*
X150766710Y-91135307D01*
X150759916Y-91128466D01*
X150608715Y-91003381D01*
X150600732Y-90997997D01*
X150428108Y-90904660D01*
X150419237Y-90900931D01*
X150231769Y-90842900D01*
X150222335Y-90840963D01*
X150130588Y-90831320D01*
X150117542Y-90834093D01*
X150115875Y-90835945D01*
X150114994Y-90840088D01*
X150114994Y-91884320D01*
X149914994Y-91884320D01*
X149914994Y-90845396D01*
X149910872Y-90832711D01*
X149908557Y-90831028D01*
X149904981Y-90830627D01*
X149822111Y-90838168D01*
X149812648Y-90839974D01*
X149624401Y-90895378D01*
X149615460Y-90898991D01*
X149441567Y-90989899D01*
X149433491Y-90995184D01*
X149280565Y-91118140D01*
X149273681Y-91124881D01*
X149147545Y-91275205D01*
X149142098Y-91283159D01*
X149047567Y-91455111D01*
X149043767Y-91463976D01*
X148984433Y-91651021D01*
X148982429Y-91660449D01*
X148965303Y-91813133D01*
X148964994Y-91818662D01*
X148964994Y-91884320D01*
X148565494Y-91884320D01*
X148565494Y-91823159D01*
X148564509Y-91813108D01*
X148550946Y-91674780D01*
X148550945Y-91674776D01*
X148550474Y-91669970D01*
X148547600Y-91660449D01*
X148492327Y-91477380D01*
X148490929Y-91472749D01*
X148394212Y-91290849D01*
X148264005Y-91131200D01*
X148105269Y-90999882D01*
X147924049Y-90901897D01*
X147820732Y-90869915D01*
X147731869Y-90842407D01*
X147731865Y-90842406D01*
X147727248Y-90840977D01*
X147722440Y-90840472D01*
X147722437Y-90840471D01*
X147527179Y-90819949D01*
X147527177Y-90819949D01*
X147522363Y-90819443D01*
X147466794Y-90824500D01*
X147322016Y-90837675D01*
X147322011Y-90837676D01*
X147317197Y-90838114D01*
X147119566Y-90896280D01*
X147115282Y-90898519D01*
X147115281Y-90898520D01*
X147047522Y-90933944D01*
X146936996Y-90991726D01*
X146933225Y-90994758D01*
X146780214Y-91117781D01*
X146780211Y-91117783D01*
X146776441Y-91120815D01*
X146773327Y-91124526D01*
X146773326Y-91124527D01*
X146764281Y-91135307D01*
X146644018Y-91278630D01*
X146641683Y-91282878D01*
X146641682Y-91282879D01*
X146634949Y-91295126D01*
X146544770Y-91459162D01*
X146543307Y-91463775D01*
X146543305Y-91463779D01*
X146540460Y-91472749D01*
X146482478Y-91655532D01*
X146481938Y-91660344D01*
X146481938Y-91660345D01*
X146480319Y-91674780D01*
X146464494Y-91815864D01*
X146464494Y-92176841D01*
X146065494Y-92176841D01*
X146065494Y-91823159D01*
X146064509Y-91813108D01*
X146050946Y-91674780D01*
X146050945Y-91674776D01*
X146050474Y-91669970D01*
X146047600Y-91660449D01*
X145992327Y-91477380D01*
X145990929Y-91472749D01*
X145894212Y-91290849D01*
X145764005Y-91131200D01*
X145605269Y-90999882D01*
X145424049Y-90901897D01*
X145320732Y-90869915D01*
X145231869Y-90842407D01*
X145231865Y-90842406D01*
X145227248Y-90840977D01*
X145222440Y-90840472D01*
X145222437Y-90840471D01*
X145027179Y-90819949D01*
X145027177Y-90819949D01*
X145022363Y-90819443D01*
X144966794Y-90824500D01*
X144822016Y-90837675D01*
X144822011Y-90837676D01*
X144817197Y-90838114D01*
X144619566Y-90896280D01*
X144615282Y-90898519D01*
X144615281Y-90898520D01*
X144547522Y-90933944D01*
X144436996Y-90991726D01*
X144433225Y-90994758D01*
X144280214Y-91117781D01*
X144280211Y-91117783D01*
X144276441Y-91120815D01*
X144273327Y-91124526D01*
X144273326Y-91124527D01*
X144264281Y-91135307D01*
X144144018Y-91278630D01*
X144141683Y-91282878D01*
X144141682Y-91282879D01*
X144134949Y-91295126D01*
X144044770Y-91459162D01*
X144043307Y-91463775D01*
X144043305Y-91463779D01*
X144040460Y-91472749D01*
X143982478Y-91655532D01*
X143981938Y-91660344D01*
X143981938Y-91660345D01*
X143980319Y-91674780D01*
X143964494Y-91815864D01*
X143964494Y-92176841D01*
X143565494Y-92176841D01*
X143565494Y-91823159D01*
X143564509Y-91813108D01*
X143550946Y-91674780D01*
X143550945Y-91674776D01*
X143550474Y-91669970D01*
X143547600Y-91660449D01*
X143492327Y-91477380D01*
X143490929Y-91472749D01*
X143394212Y-91290849D01*
X143264005Y-91131200D01*
X143105269Y-90999882D01*
X142924049Y-90901897D01*
X142820732Y-90869915D01*
X142731869Y-90842407D01*
X142731865Y-90842406D01*
X142727248Y-90840977D01*
X142722440Y-90840472D01*
X142722437Y-90840471D01*
X142527179Y-90819949D01*
X142527177Y-90819949D01*
X142522363Y-90819443D01*
X142466794Y-90824500D01*
X142322016Y-90837675D01*
X142322011Y-90837676D01*
X142317197Y-90838114D01*
X142119566Y-90896280D01*
X142115282Y-90898519D01*
X142115281Y-90898520D01*
X142047522Y-90933944D01*
X141936996Y-90991726D01*
X141933225Y-90994758D01*
X141780214Y-91117781D01*
X141780211Y-91117783D01*
X141776441Y-91120815D01*
X141773327Y-91124526D01*
X141773326Y-91124527D01*
X141764281Y-91135307D01*
X141644018Y-91278630D01*
X141641683Y-91282878D01*
X141641682Y-91282879D01*
X141634949Y-91295126D01*
X141544770Y-91459162D01*
X141543307Y-91463775D01*
X141543305Y-91463779D01*
X141540460Y-91472749D01*
X141482478Y-91655532D01*
X141481938Y-91660344D01*
X141481938Y-91660345D01*
X141480319Y-91674780D01*
X141464494Y-91815864D01*
X141464494Y-92176841D01*
X141065494Y-92176841D01*
X141065494Y-91823159D01*
X141064509Y-91813108D01*
X141050946Y-91674780D01*
X141050945Y-91674776D01*
X141050474Y-91669970D01*
X141047600Y-91660449D01*
X140992327Y-91477380D01*
X140990929Y-91472749D01*
X140894212Y-91290849D01*
X140764005Y-91131200D01*
X140605269Y-90999882D01*
X140424049Y-90901897D01*
X140320732Y-90869915D01*
X140231869Y-90842407D01*
X140231865Y-90842406D01*
X140227248Y-90840977D01*
X140222440Y-90840472D01*
X140222437Y-90840471D01*
X140027179Y-90819949D01*
X140027177Y-90819949D01*
X140022363Y-90819443D01*
X139966794Y-90824500D01*
X139822016Y-90837675D01*
X139822011Y-90837676D01*
X139817197Y-90838114D01*
X139619566Y-90896280D01*
X139615282Y-90898519D01*
X139615281Y-90898520D01*
X139547522Y-90933944D01*
X139436996Y-90991726D01*
X139433225Y-90994758D01*
X139280214Y-91117781D01*
X139280211Y-91117783D01*
X139276441Y-91120815D01*
X139273327Y-91124526D01*
X139273326Y-91124527D01*
X139264281Y-91135307D01*
X139144018Y-91278630D01*
X139141683Y-91282878D01*
X139141682Y-91282879D01*
X139134949Y-91295126D01*
X139044770Y-91459162D01*
X139043307Y-91463775D01*
X139043305Y-91463779D01*
X139040460Y-91472749D01*
X138982478Y-91655532D01*
X138981938Y-91660344D01*
X138981938Y-91660345D01*
X138980319Y-91674780D01*
X138964494Y-91815864D01*
X138964494Y-92176841D01*
X138565494Y-92176841D01*
X138565494Y-91823159D01*
X138564509Y-91813108D01*
X138550946Y-91674780D01*
X138550945Y-91674776D01*
X138550474Y-91669970D01*
X138547600Y-91660449D01*
X138492327Y-91477380D01*
X138490929Y-91472749D01*
X138394212Y-91290849D01*
X138264005Y-91131200D01*
X138105269Y-90999882D01*
X137924049Y-90901897D01*
X137820732Y-90869915D01*
X137731869Y-90842407D01*
X137731865Y-90842406D01*
X137727248Y-90840977D01*
X137722440Y-90840472D01*
X137722437Y-90840471D01*
X137527179Y-90819949D01*
X137527177Y-90819949D01*
X137522363Y-90819443D01*
X137466794Y-90824500D01*
X137322016Y-90837675D01*
X137322011Y-90837676D01*
X137317197Y-90838114D01*
X137119566Y-90896280D01*
X137115282Y-90898519D01*
X137115281Y-90898520D01*
X137047522Y-90933944D01*
X136936996Y-90991726D01*
X136933225Y-90994758D01*
X136780214Y-91117781D01*
X136780211Y-91117783D01*
X136776441Y-91120815D01*
X136773327Y-91124526D01*
X136773326Y-91124527D01*
X136764281Y-91135307D01*
X136644018Y-91278630D01*
X136641683Y-91282878D01*
X136641682Y-91282879D01*
X136634949Y-91295126D01*
X136544770Y-91459162D01*
X136543307Y-91463775D01*
X136543305Y-91463779D01*
X136540460Y-91472749D01*
X136482478Y-91655532D01*
X136481938Y-91660344D01*
X136481938Y-91660345D01*
X136480319Y-91674780D01*
X136464494Y-91815864D01*
X136464494Y-92176841D01*
X136065494Y-92176841D01*
X136065494Y-91823159D01*
X136064509Y-91813108D01*
X136050946Y-91674780D01*
X136050945Y-91674776D01*
X136050474Y-91669970D01*
X136047600Y-91660449D01*
X135992327Y-91477380D01*
X135990929Y-91472749D01*
X135894212Y-91290849D01*
X135764005Y-91131200D01*
X135605269Y-90999882D01*
X135424049Y-90901897D01*
X135320732Y-90869915D01*
X135231869Y-90842407D01*
X135231865Y-90842406D01*
X135227248Y-90840977D01*
X135222440Y-90840472D01*
X135222437Y-90840471D01*
X135027179Y-90819949D01*
X135027177Y-90819949D01*
X135022363Y-90819443D01*
X134966794Y-90824500D01*
X134822016Y-90837675D01*
X134822011Y-90837676D01*
X134817197Y-90838114D01*
X134619566Y-90896280D01*
X134615282Y-90898519D01*
X134615281Y-90898520D01*
X134547522Y-90933944D01*
X134436996Y-90991726D01*
X134433225Y-90994758D01*
X134280214Y-91117781D01*
X134280211Y-91117783D01*
X134276441Y-91120815D01*
X134273327Y-91124526D01*
X134273326Y-91124527D01*
X134264281Y-91135307D01*
X134144018Y-91278630D01*
X134141683Y-91282878D01*
X134141682Y-91282879D01*
X134134949Y-91295126D01*
X134044770Y-91459162D01*
X134043307Y-91463775D01*
X134043305Y-91463779D01*
X134040460Y-91472749D01*
X133982478Y-91655532D01*
X133981938Y-91660344D01*
X133981938Y-91660345D01*
X133980319Y-91674780D01*
X133964494Y-91815864D01*
X133964494Y-92176841D01*
X120546477Y-92176841D01*
X120546477Y-88976425D01*
X120549032Y-88954080D01*
X120550367Y-88948319D01*
X120550368Y-88948315D01*
X120551632Y-88942857D01*
X120551633Y-88942139D01*
X120550389Y-88936687D01*
X120550388Y-88936681D01*
X120550030Y-88935113D01*
X120548027Y-88922802D01*
X120536874Y-88809660D01*
X120536873Y-88809657D01*
X120536396Y-88804814D01*
X120496329Y-88672767D01*
X120488068Y-88657313D01*
X120433562Y-88555359D01*
X120433561Y-88555357D01*
X120431271Y-88551074D01*
X120343723Y-88444411D01*
X120339967Y-88441329D01*
X120339964Y-88441326D01*
X120240813Y-88359965D01*
X120240809Y-88359962D01*
X120237049Y-88356877D01*
X120232761Y-88354585D01*
X120232756Y-88354582D01*
X120133044Y-88301294D01*
X120115347Y-88291836D01*
X120081020Y-88281425D01*
X119987949Y-88253197D01*
X119987944Y-88253196D01*
X119983295Y-88251786D01*
X119880406Y-88241657D01*
X119866846Y-88240322D01*
X119854203Y-88238244D01*
X119846686Y-88236502D01*
X119845968Y-88236501D01*
X119840516Y-88237745D01*
X119840515Y-88237745D01*
X119834239Y-88239177D01*
X119812218Y-88241657D01*
X119380001Y-88241657D01*
X119357812Y-88239138D01*
X119357212Y-88239000D01*
X119357211Y-88239000D01*
X119346345Y-88236501D01*
X119335757Y-88238896D01*
X119321280Y-88237743D01*
X119268937Y-88229450D01*
X119239479Y-88219877D01*
X119183939Y-88191574D01*
X119158882Y-88173366D01*
X119136839Y-88151320D01*
X119114809Y-88129287D01*
X119096606Y-88104229D01*
X119068311Y-88048689D01*
X119058740Y-88019227D01*
X119050356Y-87966261D01*
X119049300Y-87952676D01*
X119051633Y-87942534D01*
X119048916Y-87930522D01*
X119046477Y-87908681D01*
X119046477Y-84276188D01*
X119048997Y-84253994D01*
X119049133Y-84253401D01*
X119051633Y-84242534D01*
X119049238Y-84231947D01*
X119050391Y-84217473D01*
X119058688Y-84165111D01*
X119068260Y-84135657D01*
X119096568Y-84080107D01*
X119114772Y-84055054D01*
X119158860Y-84010967D01*
X119183917Y-83992762D01*
X119239466Y-83964458D01*
X119268921Y-83954886D01*
X119274078Y-83954069D01*
X119321616Y-83946538D01*
X119335410Y-83945464D01*
X119345627Y-83947813D01*
X119357620Y-83945099D01*
X119379472Y-83942657D01*
X119509461Y-83942657D01*
X119531965Y-83945249D01*
X119533409Y-83945586D01*
X119542941Y-83947811D01*
X119543659Y-83947813D01*
X119549109Y-83946578D01*
X119554661Y-83945965D01*
X119554679Y-83946124D01*
X119561069Y-83945216D01*
X119646428Y-83940117D01*
X119776041Y-83932374D01*
X119822305Y-83923856D01*
X120002007Y-83890768D01*
X120002015Y-83890766D01*
X120004986Y-83890219D01*
X120007872Y-83889312D01*
X120007876Y-83889311D01*
X120224178Y-83821330D01*
X120224179Y-83821330D01*
X120227070Y-83820421D01*
X120438968Y-83724026D01*
X120550773Y-83655577D01*
X120634917Y-83604063D01*
X120634919Y-83604062D01*
X120637509Y-83602476D01*
X120819721Y-83457590D01*
X120947142Y-83327907D01*
X120970035Y-83304608D01*
X120975008Y-83300325D01*
X120974881Y-83300186D01*
X120979024Y-83296394D01*
X120983573Y-83293094D01*
X120984044Y-83292553D01*
X120989452Y-83282442D01*
X121002262Y-83263923D01*
X122564796Y-81479396D01*
X122581003Y-81464584D01*
X122590976Y-81457322D01*
X122596251Y-81447501D01*
X122597157Y-81446462D01*
X122607026Y-81436635D01*
X122641001Y-81407263D01*
X122664675Y-81392078D01*
X122716313Y-81368533D01*
X122743302Y-81360618D01*
X122765714Y-81357397D01*
X122788191Y-81354167D01*
X122802338Y-81353166D01*
X122813179Y-81355656D01*
X122825144Y-81352946D01*
X122847013Y-81350500D01*
X134399333Y-81350500D01*
X134417142Y-81352115D01*
G37*
%TD.AperFunction*%
%TD*%
M02*
