M48
; DRILL file {KiCad (6.0.6)} date Mon May  8 04:54:04 2023
; FORMAT={-:-/ absolute / metric / decimal}
; #@! TF.CreationDate,2023-05-08T04:54:04+09:00
; #@! TF.GenerationSoftware,Kicad,Pcbnew,(6.0.6)
; #@! TF.FileFunction,Plated,1,4,PTH
FMAT,2
METRIC
; #@! TA.AperFunction,Plated,PTH,ViaDrill
T1C0.600
; #@! TA.AperFunction,Plated,PTH,ComponentDrill
T2C0.950
%
G90
G05
T1
X119.91Y-100.54
X120.07Y-111.21
X120.41Y-85.1
X120.7Y-115.11
X120.92Y-118.19
X121.32Y-106.53
X121.49Y-93.91
X121.59Y-90.41
X122.1Y-121.57
X123.16Y-119.32
X123.24Y-115.45
X123.44Y-123.53
X123.65Y-117.28
X123.77Y-104.4
X124.12Y-82.71
X124.45Y-94.08
X124.57Y-88.78
X124.58Y-99.01
X126.31Y-120.44
X127.0Y-90.79
X127.07Y-93.72
X127.1Y-125.36
X127.53Y-85.34
X129.07Y-91.45
X129.85Y-82.73
X130.088Y-86.858
X130.12Y-93.2
X130.84Y-99.04
X131.47Y-90.01
X131.89Y-85.17
X132.14Y-105.46
X132.18Y-103.61
X132.26Y-91.59
X132.29Y-107.54
X133.93Y-82.78
X134.22Y-89.97
X134.75Y-86.67
X134.96Y-120.38
X135.48Y-108.48
X137.04Y-85.08
X137.98Y-101.16
X138.3Y-120.76
X138.33Y-109.01
X138.63Y-87.22
X138.97Y-83.57
X140.711Y-97.071
X140.942Y-111.25
X141.25Y-93.3
X141.542Y-94.721
X142.297Y-109.793
X142.72Y-125.72
X144.47Y-95.12
X144.8Y-125.89
X145.53Y-106.12
X145.83Y-102.77
X145.91Y-120.93
X146.68Y-115.37
X146.77Y-113.3
X147.5Y-125.75
X147.58Y-95.87
X148.07Y-114.14
X148.08Y-84.71
X149.08Y-103.95
X149.96Y-96.92
X150.02Y-120.65
X150.24Y-118.93
X150.95Y-125.91
X151.78Y-123.89
X152.21Y-86.27
X153.03Y-102.42
X154.09Y-123.38
X154.42Y-110.24
X154.87Y-125.78
X154.96Y-86.59
X155.33Y-105.51
X156.05Y-118.55
X156.68Y-123.48
X157.45Y-125.4
X157.65Y-116.41
X157.86Y-106.95
X158.339Y-101.349
X158.53Y-96.74
X160.09Y-119.05
X160.84Y-111.03
X160.92Y-123.23
X161.5Y-121.01
X161.71Y-96.37
X161.85Y-113.65
X162.51Y-87.48
X163.17Y-100.83
X163.94Y-112.75
X165.24Y-92.57
X165.31Y-115.7
X166.44Y-102.76
X167.05Y-96.18
X167.21Y-106.04
X167.41Y-111.86
X167.81Y-118.72
X167.94Y-104.0
X168.35Y-123.79
X168.52Y-101.89
X168.69Y-113.91
X170.1Y-115.71
X171.0Y-109.34
X171.58Y-126.21
X171.78Y-95.77
X172.58Y-113.19
X173.0Y-111.09
X173.22Y-117.03
X173.35Y-119.85
X174.12Y-123.52
X174.69Y-101.69
X174.84Y-109.13
T2
X135.015Y-92.0
X137.515Y-92.0
X140.015Y-92.0
X142.515Y-92.0
X145.015Y-92.0
X147.515Y-92.0
X150.015Y-92.0
X152.515Y-92.0
X155.015Y-92.0
X157.515Y-92.0
T0
M30
