%TF.GenerationSoftware,KiCad,Pcbnew,(6.0.6)*%
%TF.CreationDate,2023-05-08T04:54:07+09:00*%
%TF.ProjectId,128KB_64pin_Touch_R_halfduplex_x2,3132384b-425f-4363-9470-696e5f546f75,rev?*%
%TF.SameCoordinates,Original*%
%TF.FileFunction,Profile,NP*%
%FSLAX46Y46*%
G04 Gerber Fmt 4.6, Leading zero omitted, Abs format (unit mm)*
G04 Created by KiCad (PCBNEW (6.0.6)) date 2023-05-08 04:54:07*
%MOMM*%
%LPD*%
G01*
G04 APERTURE LIST*
%TA.AperFunction,Profile*%
%ADD10C,0.100000*%
%TD*%
G04 APERTURE END LIST*
D10*
X159157319Y-126440821D02*
X159157319Y-126840821D01*
X174614030Y-126734211D02*
X175805030Y-120926211D01*
X140123415Y-126924720D02*
G75*
G03*
X134979961Y-126941263I-2570365J-431710D01*
G01*
X163437338Y-123649209D02*
X162463338Y-124769209D01*
X174298906Y-104891635D02*
G75*
G03*
X174298906Y-104891635I-2600000J0D01*
G01*
X118845977Y-120362157D02*
X118845977Y-93542157D01*
X168398904Y-125604635D02*
G75*
G03*
X168231088Y-125230930I-499704J135D01*
G01*
X175155977Y-120322157D02*
X175315977Y-120322157D01*
X124923687Y-126536566D02*
X129109687Y-126536566D01*
X134457790Y-127336514D02*
G75*
G03*
X134979961Y-126941263I30910J501714D01*
G01*
X119345977Y-83742177D02*
G75*
G03*
X118845977Y-84242157I23J-500023D01*
G01*
X167034088Y-124189930D02*
X168231088Y-125230930D01*
X119845977Y-93042177D02*
G75*
G03*
X120345977Y-92542157I23J499977D01*
G01*
X129970251Y-127190002D02*
G75*
G03*
X130323793Y-127336460I353549J353502D01*
G01*
X171891938Y-93496896D02*
X169601938Y-94983896D01*
X118845977Y-87942157D02*
X118845977Y-84242157D01*
X120346043Y-88942157D02*
G75*
G03*
X119845977Y-88442157I-500043J-43D01*
G01*
X163174535Y-120252213D02*
X164224535Y-119045213D01*
X168358710Y-120384796D02*
X166622710Y-118875796D01*
X168898906Y-127091635D02*
X173263906Y-127091635D01*
X123464581Y-127336460D02*
X123709581Y-127336460D01*
X162083319Y-124940784D02*
G75*
G03*
X162463338Y-124769209I881J504684D01*
G01*
X167513990Y-93828190D02*
G75*
G03*
X169601938Y-94983896I1621810J466090D01*
G01*
X120345977Y-92542157D02*
X120345977Y-88942157D01*
X176255998Y-115120208D02*
X176255998Y-100673208D01*
X119345977Y-83742157D02*
X119543977Y-83742157D01*
X130323793Y-127336460D02*
X134457793Y-127336460D01*
X175805007Y-120926206D02*
G75*
G03*
X175315977Y-120322157I-489107J104006D01*
G01*
X163437308Y-123649175D02*
G75*
G03*
X163483881Y-122941000I-330808J377375D01*
G01*
X122813494Y-81150000D02*
X134426494Y-81150000D01*
X140616319Y-127340821D02*
X158657319Y-127340821D01*
X134426494Y-81150000D02*
X163597494Y-86485000D01*
X123043957Y-127106862D02*
G75*
G03*
X123464581Y-127336460I420443J270162D01*
G01*
X176256001Y-100673207D02*
G75*
G03*
X172614255Y-93690437I-81786601J-38213393D01*
G01*
X122813494Y-81150023D02*
G75*
G03*
X122435977Y-81322157I106J-500277D01*
G01*
X160657319Y-124940821D02*
X162083319Y-124940821D01*
X174655977Y-119822157D02*
X174655977Y-116122157D01*
X120828807Y-83157661D02*
X122435977Y-81322157D01*
X145298906Y-85891635D02*
G75*
G03*
X145298906Y-85891635I-2600000J0D01*
G01*
X173263906Y-127091635D02*
X174378906Y-127059635D01*
X167513970Y-93828195D02*
X164093970Y-88562195D01*
X164011830Y-86977606D02*
G75*
G03*
X163597494Y-86485000I-500230J-194D01*
G01*
X119345977Y-93042157D02*
X119845977Y-93042157D01*
X124063134Y-127190013D02*
X124570134Y-126683013D01*
X167081331Y-123482512D02*
X168213331Y-122498512D01*
X168213297Y-122498474D02*
G75*
G03*
X168358710Y-120384796I-985997J1129674D01*
G01*
X118845978Y-120362157D02*
G75*
G03*
X118926978Y-120634994I499522J-143D01*
G01*
X140123403Y-126924722D02*
G75*
G03*
X140616319Y-127340821I493097J84122D01*
G01*
X158657319Y-127340819D02*
G75*
G03*
X159157319Y-126840821I-19J500019D01*
G01*
X119345977Y-93042177D02*
G75*
G03*
X118845977Y-93542157I23J-500023D01*
G01*
X168398906Y-126591635D02*
X168398906Y-125604635D01*
X129463240Y-126683013D02*
X129970240Y-127190013D01*
X124923687Y-126536567D02*
G75*
G03*
X124570134Y-126683013I13J-500033D01*
G01*
X123709581Y-127336458D02*
G75*
G03*
X124063134Y-127190013I19J499958D01*
G01*
X175155977Y-115622177D02*
G75*
G03*
X174655977Y-116122157I23J-500023D01*
G01*
X119845977Y-88442157D02*
X119345977Y-88442157D01*
X168398865Y-126591635D02*
G75*
G03*
X168898906Y-127091635I500035J35D01*
G01*
X118846043Y-87942157D02*
G75*
G03*
X119345977Y-88442157I499957J-43D01*
G01*
X172614210Y-93690459D02*
G75*
G03*
X171891938Y-93496896I-446310J-221041D01*
G01*
X119543977Y-83742147D02*
G75*
G03*
X120828807Y-83157661I2623J1698647D01*
G01*
X164011823Y-86977606D02*
X164011823Y-88287606D01*
X175755998Y-115620198D02*
G75*
G03*
X176255998Y-115120208I2J499998D01*
G01*
X163483881Y-122941000D02*
X163257881Y-122744000D01*
X174656043Y-119822157D02*
G75*
G03*
X175155977Y-120322157I499957J-43D01*
G01*
X118926978Y-120634994D02*
X123043992Y-127106839D01*
X167081293Y-123482468D02*
G75*
G03*
X167034088Y-124189930I330107J-377332D01*
G01*
X163174483Y-120252161D02*
G75*
G03*
X163257881Y-122744000I1197417J-1207239D01*
G01*
X129463254Y-126682999D02*
G75*
G03*
X129109687Y-126536566I-353554J-353601D01*
G01*
X160657319Y-124940819D02*
G75*
G03*
X159157319Y-126440821I-19J-1499981D01*
G01*
X166622681Y-118875829D02*
G75*
G03*
X164224535Y-119045213I-1114381J-1283771D01*
G01*
X174378920Y-127059658D02*
G75*
G03*
X174614030Y-126734211I-255820J432458D01*
G01*
X164011849Y-88287606D02*
G75*
G03*
X164093970Y-88562195I500151J6D01*
G01*
X175755998Y-115620208D02*
X175155977Y-115622157D01*
M02*
