%TF.GenerationSoftware,KiCad,Pcbnew,(6.0.6)*%
%TF.CreationDate,2023-05-08T04:54:07+09:00*%
%TF.ProjectId,128KB_64pin_Touch_R_halfduplex_x2,3132384b-425f-4363-9470-696e5f546f75,rev?*%
%TF.SameCoordinates,Original*%
%TF.FileFunction,Soldermask,Top*%
%TF.FilePolarity,Negative*%
%FSLAX46Y46*%
G04 Gerber Fmt 4.6, Leading zero omitted, Abs format (unit mm)*
G04 Created by KiCad (PCBNEW (6.0.6)) date 2023-05-08 04:54:07*
%MOMM*%
%LPD*%
G01*
G04 APERTURE LIST*
G04 Aperture macros list*
%AMRoundRect*
0 Rectangle with rounded corners*
0 $1 Rounding radius*
0 $2 $3 $4 $5 $6 $7 $8 $9 X,Y pos of 4 corners*
0 Add a 4 corners polygon primitive as box body*
4,1,4,$2,$3,$4,$5,$6,$7,$8,$9,$2,$3,0*
0 Add four circle primitives for the rounded corners*
1,1,$1+$1,$2,$3*
1,1,$1+$1,$4,$5*
1,1,$1+$1,$6,$7*
1,1,$1+$1,$8,$9*
0 Add four rect primitives between the rounded corners*
20,1,$1+$1,$2,$3,$4,$5,0*
20,1,$1+$1,$4,$5,$6,$7,0*
20,1,$1+$1,$6,$7,$8,$9,0*
20,1,$1+$1,$8,$9,$2,$3,0*%
G04 Aperture macros list end*
%ADD10R,1.340000X1.140000*%
%ADD11R,0.620000X0.600000*%
%ADD12R,1.150000X1.150000*%
%ADD13R,0.940000X0.540000*%
%ADD14R,1.000000X1.400000*%
%ADD15R,1.400000X1.000000*%
%ADD16R,1.200000X0.950000*%
%ADD17R,1.000000X0.800000*%
%ADD18R,0.800000X1.000000*%
%ADD19R,0.900000X1.450000*%
%ADD20R,1.050000X0.600000*%
%ADD21R,0.870000X0.420000*%
%ADD22R,0.600000X0.620000*%
%ADD23R,1.528000X0.650000*%
%ADD24R,2.000000X2.000000*%
%ADD25RoundRect,0.250000X0.600000X0.725000X-0.600000X0.725000X-0.600000X-0.725000X0.600000X-0.725000X0*%
%ADD26O,1.700000X1.950000*%
G04 APERTURE END LIST*
D10*
%TO.C,D4*%
X152220000Y-88200000D03*
X149120000Y-88200000D03*
%TD*%
D11*
%TO.C,C2*%
X136270000Y-94690000D03*
X136270000Y-93770000D03*
%TD*%
D12*
%TO.C,R25*%
X170505000Y-124850000D03*
X172855000Y-124850000D03*
%TD*%
D13*
%TO.C,C23*%
X135370000Y-109980000D03*
X135370000Y-111580000D03*
%TD*%
D11*
%TO.C,C1*%
X136280000Y-96890000D03*
X136280000Y-95970000D03*
%TD*%
D14*
%TO.C,R6*%
X156760000Y-88150000D03*
X158660000Y-88150000D03*
%TD*%
D15*
%TO.C,R2*%
X145920000Y-94210000D03*
X145920000Y-96110000D03*
%TD*%
D16*
%TO.C,LED3*%
X133580000Y-122990000D03*
X131480000Y-122990000D03*
%TD*%
D17*
%TO.C,R22*%
X143800000Y-101590000D03*
X143800000Y-99990000D03*
%TD*%
D16*
%TO.C,LED9*%
X123770000Y-109870000D03*
X121670000Y-109870000D03*
%TD*%
%TO.C,LED2*%
X125470000Y-84380000D03*
X123370000Y-84380000D03*
%TD*%
D12*
%TO.C,R31*%
X141125000Y-105770000D03*
X138775000Y-105770000D03*
%TD*%
D18*
%TO.C,R13*%
X132230000Y-99600000D03*
X133830000Y-99600000D03*
%TD*%
D19*
%TO.C,FL2*%
X126655000Y-96500000D03*
X126655000Y-100950000D03*
X129155000Y-100950000D03*
X129155000Y-96500000D03*
%TD*%
D20*
%TO.C,D2*%
X138015000Y-94240000D03*
X138015000Y-96140000D03*
X140215000Y-95190000D03*
%TD*%
D11*
%TO.C,C20*%
X133020000Y-110510000D03*
X133020000Y-111430000D03*
%TD*%
D12*
%TO.C,R29*%
X133665000Y-125770000D03*
X131315000Y-125770000D03*
%TD*%
D16*
%TO.C,LED8*%
X151630000Y-115510000D03*
X149530000Y-115510000D03*
%TD*%
D12*
%TO.C,R32*%
X160690000Y-105070000D03*
X163040000Y-105070000D03*
%TD*%
D16*
%TO.C,LED4*%
X153130000Y-100100000D03*
X151030000Y-100100000D03*
%TD*%
D21*
%TO.C,Z5*%
X160895000Y-102655000D03*
X163145000Y-102655000D03*
%TD*%
D12*
%TO.C,R33*%
X123305000Y-96230000D03*
X120955000Y-96230000D03*
%TD*%
D22*
%TO.C,C8*%
X160780000Y-101340000D03*
X161700000Y-101340000D03*
%TD*%
D21*
%TO.C,Z2*%
X141755000Y-97925000D03*
X139505000Y-97925000D03*
%TD*%
D20*
%TO.C,D1*%
X154805000Y-96170000D03*
X154805000Y-94270000D03*
X152605000Y-95220000D03*
%TD*%
D14*
%TO.C,R3*%
X149990000Y-94380000D03*
X148090000Y-94380000D03*
%TD*%
D18*
%TO.C,R12*%
X132250000Y-101520000D03*
X133850000Y-101520000D03*
%TD*%
D16*
%TO.C,LED1*%
X170640000Y-121820000D03*
X172740000Y-121820000D03*
%TD*%
D21*
%TO.C,Z4*%
X148805000Y-96235000D03*
X151055000Y-96235000D03*
%TD*%
D11*
%TO.C,C14*%
X136230000Y-105050000D03*
X136230000Y-105970000D03*
%TD*%
D16*
%TO.C,LED7*%
X122950000Y-98870000D03*
X120850000Y-98870000D03*
%TD*%
%TO.C,LED5*%
X140770000Y-107500000D03*
X138670000Y-107500000D03*
%TD*%
D11*
%TO.C,C5*%
X158330000Y-103690000D03*
X158330000Y-104610000D03*
%TD*%
D17*
%TO.C,R26*%
X147550000Y-100930000D03*
X147550000Y-99330000D03*
%TD*%
D23*
%TO.C,IC3*%
X141436000Y-103575000D03*
X141436000Y-102305000D03*
X141436000Y-101035000D03*
X141436000Y-99765000D03*
X136014000Y-99765000D03*
X136014000Y-101035000D03*
X136014000Y-102305000D03*
X136014000Y-103575000D03*
%TD*%
D17*
%TO.C,R21*%
X143290000Y-105790000D03*
X143290000Y-104190000D03*
%TD*%
D22*
%TO.C,C4*%
X134030000Y-95270000D03*
X134950000Y-95270000D03*
%TD*%
D15*
%TO.C,R1*%
X143050000Y-94190000D03*
X143050000Y-96090000D03*
%TD*%
D12*
%TO.C,R35*%
X123720000Y-112460000D03*
X121370000Y-112460000D03*
%TD*%
D11*
%TO.C,C6*%
X131000000Y-95810000D03*
X131000000Y-94890000D03*
%TD*%
D12*
%TO.C,R34*%
X151820000Y-112440000D03*
X149470000Y-112440000D03*
%TD*%
D18*
%TO.C,R28*%
X149120000Y-101440000D03*
X150720000Y-101440000D03*
%TD*%
D17*
%TO.C,R19*%
X145540000Y-100840000D03*
X145540000Y-99240000D03*
%TD*%
D16*
%TO.C,LED6*%
X160770000Y-107500000D03*
X162870000Y-107500000D03*
%TD*%
D17*
%TO.C,R4*%
X132610000Y-97700000D03*
X132610000Y-96100000D03*
%TD*%
D12*
%TO.C,R30*%
X151420000Y-98250000D03*
X149070000Y-98250000D03*
%TD*%
D19*
%TO.C,FL1*%
X159845000Y-99140000D03*
X159845000Y-94690000D03*
X157345000Y-94690000D03*
X157345000Y-99140000D03*
%TD*%
D12*
%TO.C,R27*%
X123115000Y-87010000D03*
X120765000Y-87010000D03*
%TD*%
D17*
%TO.C,R5*%
X132600000Y-94540000D03*
X132600000Y-92940000D03*
%TD*%
D24*
%TO.C,S1*%
X147445000Y-105655000D03*
X153445000Y-105655000D03*
%TD*%
D21*
%TO.C,Z3*%
X144795000Y-97865000D03*
X147045000Y-97865000D03*
%TD*%
D18*
%TO.C,R9*%
X164930000Y-94620000D03*
X163330000Y-94620000D03*
%TD*%
D25*
%TO.C,J1*%
X157514994Y-92000000D03*
D26*
X155014994Y-92000000D03*
X152514994Y-92000000D03*
X150014994Y-92000000D03*
X147514994Y-92000000D03*
X145014994Y-92000000D03*
X142514994Y-92000000D03*
X140014994Y-92000000D03*
X137514994Y-92000000D03*
X135014994Y-92000000D03*
%TD*%
M02*
