%FSLAX45Y45*%
G04 Gerber Fmt 4.5, Leading zero omitted, Abs format (unit mm)*
G04 Created by KiCad (PCBNEW (6.0.6)) date 2023-05-08 04:54:04*
%MOMM*%
%LPD*%
G01*
G04 APERTURE LIST*
%TA.AperFunction,Profile*%
%ADD10C,0.100000*%
%TD*%
%ADD11C,0.200000*%
%ADD12C,0.060000*%
%ADD13C,0.095000*%
G04 APERTURE END LIST*
D10*
X15915732Y-12644082D02*
X15915732Y-12684082D01*
X17461403Y-12673421D02*
X17580503Y-12092621D01*
X14012341Y-12692472D02*
G75*
G03*
X13497996Y-12694126I-257037J-43171D01*
G01*
X16343734Y-12364921D02*
X16246334Y-12476921D01*
X17429891Y-10489164D02*
G75*
G03*
X17429891Y-10489164I-260000J0D01*
G01*
X11884598Y-12036216D02*
X11884598Y-9354216D01*
X16839890Y-12560463D02*
G75*
G03*
X16823109Y-12523093I-49970J14D01*
G01*
X17515598Y-12032216D02*
X17531598Y-12032216D01*
X12492369Y-12653657D02*
X12910969Y-12653657D01*
X13445779Y-12733651D02*
G75*
G03*
X13497996Y-12694126I3091J50171D01*
G01*
X11934598Y-8374218D02*
G75*
G03*
X11884598Y-8424216I2J-50002D01*
G01*
X16703409Y-12418993D02*
X16823109Y-12523093D01*
X11984598Y-9304218D02*
G75*
G03*
X12034598Y-9254216I2J49998D01*
G01*
X12997025Y-12719000D02*
G75*
G03*
X13032379Y-12733646I35355J35350D01*
G01*
X17189194Y-9349690D02*
X16960194Y-9498390D01*
X11884598Y-8794216D02*
X11884598Y-8424216D01*
X12034604Y-8894216D02*
G75*
G03*
X11984598Y-8844216I-50004J-4D01*
G01*
X16317453Y-12025221D02*
X16422453Y-11904521D01*
X16835871Y-12038480D02*
X16662271Y-11887580D01*
X16889891Y-12709163D02*
X17326391Y-12709163D01*
X12346458Y-12733646D02*
X12370958Y-12733646D01*
X16208332Y-12494078D02*
G75*
G03*
X16246334Y-12476921I88J50468D01*
G01*
X16751399Y-9382819D02*
G75*
G03*
X16960194Y-9498390I162181J46609D01*
G01*
X12034598Y-9254216D02*
X12034598Y-8894216D01*
X17625600Y-11512021D02*
X17625600Y-10067321D01*
X11934598Y-8374216D02*
X11954398Y-8374216D01*
X13032379Y-12733646D02*
X13445779Y-12733646D01*
X17580501Y-12092621D02*
G75*
G03*
X17531598Y-12032216I-48911J10401D01*
G01*
X16343731Y-12364917D02*
G75*
G03*
X16348388Y-12294100I-33081J37738D01*
G01*
X12281349Y-8115000D02*
X13442649Y-8115000D01*
X14061632Y-12734082D02*
X15865732Y-12734082D01*
X13442649Y-8115000D02*
X16359749Y-8648500D01*
X12304396Y-12710686D02*
G75*
G03*
X12346458Y-12733646I42044J27016D01*
G01*
X17625600Y-10067321D02*
G75*
G03*
X17261426Y-9369044I-8178660J-3821339D01*
G01*
X12281349Y-8115002D02*
G75*
G03*
X12243598Y-8132216I11J-50028D01*
G01*
X16065732Y-12494082D02*
X16208332Y-12494082D01*
X17465598Y-11982216D02*
X17465598Y-11612216D01*
X12082881Y-8315766D02*
X12243598Y-8132216D01*
X14529891Y-8589164D02*
G75*
G03*
X14529891Y-8589164I-260000J0D01*
G01*
X17326391Y-12709163D02*
X17437891Y-12705963D01*
X16751397Y-9382820D02*
X16409397Y-8856220D01*
X16401183Y-8697761D02*
G75*
G03*
X16359749Y-8648500I-50023J-19D01*
G01*
X11934598Y-9304216D02*
X11984598Y-9304216D01*
X12406313Y-12719001D02*
X12457013Y-12668301D01*
X16708133Y-12348251D02*
X16821333Y-12249851D01*
X16821330Y-12249847D02*
G75*
G03*
X16835871Y-12038480I-98600J112967D01*
G01*
X11884598Y-12036216D02*
G75*
G03*
X11892698Y-12063499I49952J-14D01*
G01*
X14012340Y-12692472D02*
G75*
G03*
X14061632Y-12734082I49310J8412D01*
G01*
X15865732Y-12734082D02*
G75*
G03*
X15915732Y-12684082I-2J50002D01*
G01*
X11934598Y-9304218D02*
G75*
G03*
X11884598Y-9354216I2J-50002D01*
G01*
X16839891Y-12659163D02*
X16839891Y-12560463D01*
X12946324Y-12668301D02*
X12997024Y-12719001D01*
X12492369Y-12653657D02*
G75*
G03*
X12457013Y-12668301I1J-50003D01*
G01*
X12370958Y-12733646D02*
G75*
G03*
X12406313Y-12719001I2J49996D01*
G01*
X17515598Y-11562218D02*
G75*
G03*
X17465598Y-11612216I2J-50002D01*
G01*
X11984598Y-8844216D02*
X11934598Y-8844216D01*
X16839887Y-12659163D02*
G75*
G03*
X16889891Y-12709163I50004J4D01*
G01*
X11884604Y-8794216D02*
G75*
G03*
X11934598Y-8844216I49996J-4D01*
G01*
X17261421Y-9369046D02*
G75*
G03*
X17189194Y-9349690I-44631J-22104D01*
G01*
X11954398Y-8374215D02*
G75*
G03*
X12082881Y-8315766I262J169865D01*
G01*
X16401182Y-8697761D02*
X16401182Y-8828761D01*
X17575600Y-11562020D02*
G75*
G03*
X17625600Y-11512021I0J50000D01*
G01*
X16348388Y-12294100D02*
X16325788Y-12274400D01*
X17465604Y-11982216D02*
G75*
G03*
X17515598Y-12032216I49996J-4D01*
G01*
X11892698Y-12063499D02*
X12304399Y-12710684D01*
X16708129Y-12348247D02*
G75*
G03*
X16703409Y-12418993I33011J-37733D01*
G01*
X16317448Y-12025216D02*
G75*
G03*
X16325788Y-12274400I119742J-120724D01*
G01*
X12946325Y-12668300D02*
G75*
G03*
X12910969Y-12653657I-35355J-35360D01*
G01*
X16065732Y-12494082D02*
G75*
G03*
X15915732Y-12644082I-2J-149998D01*
G01*
X16662268Y-11887583D02*
G75*
G03*
X16422453Y-11904521I-111438J-128377D01*
G01*
X17437892Y-12705966D02*
G75*
G03*
X17461403Y-12673421I-25582J43246D01*
G01*
X16401185Y-8828761D02*
G75*
G03*
X16409397Y-8856220I50015J1D01*
G01*
X17575600Y-11562021D02*
X17515598Y-11562216D01*
D11*
D12*
X11961000Y-10024000D02*
X12021000Y-10084000D01*
X12021000Y-10024000D02*
X11961000Y-10084000D01*
X11977000Y-11091000D02*
X12037000Y-11151000D01*
X12037000Y-11091000D02*
X11977000Y-11151000D01*
X12011000Y-8480000D02*
X12071000Y-8540000D01*
X12071000Y-8480000D02*
X12011000Y-8540000D01*
X12040000Y-11481000D02*
X12100000Y-11541000D01*
X12100000Y-11481000D02*
X12040000Y-11541000D01*
X12062000Y-11789000D02*
X12122000Y-11849000D01*
X12122000Y-11789000D02*
X12062000Y-11849000D01*
X12102000Y-10623000D02*
X12162000Y-10683000D01*
X12162000Y-10623000D02*
X12102000Y-10683000D01*
X12119000Y-9361000D02*
X12179000Y-9421000D01*
X12179000Y-9361000D02*
X12119000Y-9421000D01*
X12129000Y-9011000D02*
X12189000Y-9071000D01*
X12189000Y-9011000D02*
X12129000Y-9071000D01*
X12180000Y-12127000D02*
X12240000Y-12187000D01*
X12240000Y-12127000D02*
X12180000Y-12187000D01*
X12286000Y-11902000D02*
X12346000Y-11962000D01*
X12346000Y-11902000D02*
X12286000Y-11962000D01*
X12294000Y-11515000D02*
X12354000Y-11575000D01*
X12354000Y-11515000D02*
X12294000Y-11575000D01*
X12314000Y-12323000D02*
X12374000Y-12383000D01*
X12374000Y-12323000D02*
X12314000Y-12383000D01*
X12335000Y-11698000D02*
X12395000Y-11758000D01*
X12395000Y-11698000D02*
X12335000Y-11758000D01*
X12347000Y-10410000D02*
X12407000Y-10470000D01*
X12407000Y-10410000D02*
X12347000Y-10470000D01*
X12382000Y-8241000D02*
X12442000Y-8301000D01*
X12442000Y-8241000D02*
X12382000Y-8301000D01*
X12415000Y-9378000D02*
X12475000Y-9438000D01*
X12475000Y-9378000D02*
X12415000Y-9438000D01*
X12427000Y-8848000D02*
X12487000Y-8908000D01*
X12487000Y-8848000D02*
X12427000Y-8908000D01*
X12428000Y-9871000D02*
X12488000Y-9931000D01*
X12488000Y-9871000D02*
X12428000Y-9931000D01*
X12601000Y-12014000D02*
X12661000Y-12074000D01*
X12661000Y-12014000D02*
X12601000Y-12074000D01*
X12670000Y-9049000D02*
X12730000Y-9109000D01*
X12730000Y-9049000D02*
X12670000Y-9109000D01*
X12677000Y-9342000D02*
X12737000Y-9402000D01*
X12737000Y-9342000D02*
X12677000Y-9402000D01*
X12680000Y-12506000D02*
X12740000Y-12566000D01*
X12740000Y-12506000D02*
X12680000Y-12566000D01*
X12723000Y-8504000D02*
X12783000Y-8564000D01*
X12783000Y-8504000D02*
X12723000Y-8564000D01*
X12877000Y-9115000D02*
X12937000Y-9175000D01*
X12937000Y-9115000D02*
X12877000Y-9175000D01*
X12955000Y-8243000D02*
X13015000Y-8303000D01*
X13015000Y-8243000D02*
X12955000Y-8303000D01*
X12978822Y-8655763D02*
X13038822Y-8715763D01*
X13038822Y-8655763D02*
X12978822Y-8715763D01*
X12982000Y-9290000D02*
X13042000Y-9350000D01*
X13042000Y-9290000D02*
X12982000Y-9350000D01*
X13054000Y-9874000D02*
X13114000Y-9934000D01*
X13114000Y-9874000D02*
X13054000Y-9934000D01*
X13117000Y-8971000D02*
X13177000Y-9031000D01*
X13177000Y-8971000D02*
X13117000Y-9031000D01*
X13159000Y-8487000D02*
X13219000Y-8547000D01*
X13219000Y-8487000D02*
X13159000Y-8547000D01*
X13184000Y-10516000D02*
X13244000Y-10576000D01*
X13244000Y-10516000D02*
X13184000Y-10576000D01*
X13188000Y-10331000D02*
X13248000Y-10391000D01*
X13248000Y-10331000D02*
X13188000Y-10391000D01*
X13196000Y-9129000D02*
X13256000Y-9189000D01*
X13256000Y-9129000D02*
X13196000Y-9189000D01*
X13199000Y-10724000D02*
X13259000Y-10784000D01*
X13259000Y-10724000D02*
X13199000Y-10784000D01*
X13363000Y-8248000D02*
X13423000Y-8308000D01*
X13423000Y-8248000D02*
X13363000Y-8308000D01*
X13392000Y-8967000D02*
X13452000Y-9027000D01*
X13452000Y-8967000D02*
X13392000Y-9027000D01*
X13445000Y-8637000D02*
X13505000Y-8697000D01*
X13505000Y-8637000D02*
X13445000Y-8697000D01*
X13466000Y-12008000D02*
X13526000Y-12068000D01*
X13526000Y-12008000D02*
X13466000Y-12068000D01*
X13518000Y-10818000D02*
X13578000Y-10878000D01*
X13578000Y-10818000D02*
X13518000Y-10878000D01*
X13674000Y-8478000D02*
X13734000Y-8538000D01*
X13734000Y-8478000D02*
X13674000Y-8538000D01*
X13768000Y-10086000D02*
X13828000Y-10146000D01*
X13828000Y-10086000D02*
X13768000Y-10146000D01*
X13800000Y-12046000D02*
X13860000Y-12106000D01*
X13860000Y-12046000D02*
X13800000Y-12106000D01*
X13803000Y-10871000D02*
X13863000Y-10931000D01*
X13863000Y-10871000D02*
X13803000Y-10931000D01*
X13833000Y-8692000D02*
X13893000Y-8752000D01*
X13893000Y-8692000D02*
X13833000Y-8752000D01*
X13867000Y-8327000D02*
X13927000Y-8387000D01*
X13927000Y-8327000D02*
X13867000Y-8387000D01*
X14041104Y-9677104D02*
X14101104Y-9737104D01*
X14101104Y-9677104D02*
X14041104Y-9737104D01*
X14064206Y-11094997D02*
X14124206Y-11154997D01*
X14124206Y-11094997D02*
X14064206Y-11154997D01*
X14095000Y-9300000D02*
X14155000Y-9360000D01*
X14155000Y-9300000D02*
X14095000Y-9360000D01*
X14124186Y-9442100D02*
X14184186Y-9502100D01*
X14184186Y-9442100D02*
X14124186Y-9502100D01*
X14199671Y-10949334D02*
X14259671Y-11009334D01*
X14259671Y-10949334D02*
X14199671Y-11009334D01*
X14242000Y-12542000D02*
X14302000Y-12602000D01*
X14302000Y-12542000D02*
X14242000Y-12602000D01*
X14417000Y-9482050D02*
X14477000Y-9542050D01*
X14477000Y-9482050D02*
X14417000Y-9542050D01*
X14450000Y-12559000D02*
X14510000Y-12619000D01*
X14510000Y-12559000D02*
X14450000Y-12619000D01*
X14523000Y-10582000D02*
X14583000Y-10642000D01*
X14583000Y-10582000D02*
X14523000Y-10642000D01*
X14553000Y-10247000D02*
X14613000Y-10307000D01*
X14613000Y-10247000D02*
X14553000Y-10307000D01*
X14561000Y-12063000D02*
X14621000Y-12123000D01*
X14621000Y-12063000D02*
X14561000Y-12123000D01*
X14638000Y-11507000D02*
X14698000Y-11567000D01*
X14698000Y-11507000D02*
X14638000Y-11567000D01*
X14647000Y-11300000D02*
X14707000Y-11360000D01*
X14707000Y-11300000D02*
X14647000Y-11360000D01*
X14720000Y-12545000D02*
X14780000Y-12605000D01*
X14780000Y-12545000D02*
X14720000Y-12605000D01*
X14728000Y-9557000D02*
X14788000Y-9617000D01*
X14788000Y-9557000D02*
X14728000Y-9617000D01*
X14777000Y-11384000D02*
X14837000Y-11444000D01*
X14837000Y-11384000D02*
X14777000Y-11444000D01*
X14778000Y-8441000D02*
X14838000Y-8501000D01*
X14838000Y-8441000D02*
X14778000Y-8501000D01*
X14878000Y-10365000D02*
X14938000Y-10425000D01*
X14938000Y-10365000D02*
X14878000Y-10425000D01*
X14966000Y-9662000D02*
X15026000Y-9722000D01*
X15026000Y-9662000D02*
X14966000Y-9722000D01*
X14972000Y-12035000D02*
X15032000Y-12095000D01*
X15032000Y-12035000D02*
X14972000Y-12095000D01*
X14994000Y-11863000D02*
X15054000Y-11923000D01*
X15054000Y-11863000D02*
X14994000Y-11923000D01*
X15065000Y-12561000D02*
X15125000Y-12621000D01*
X15125000Y-12561000D02*
X15065000Y-12621000D01*
X15148000Y-12359000D02*
X15208000Y-12419000D01*
X15208000Y-12359000D02*
X15148000Y-12419000D01*
X15191000Y-8597000D02*
X15251000Y-8657000D01*
X15251000Y-8597000D02*
X15191000Y-8657000D01*
X15273000Y-10212000D02*
X15333000Y-10272000D01*
X15333000Y-10212000D02*
X15273000Y-10272000D01*
X15379000Y-12308000D02*
X15439000Y-12368000D01*
X15439000Y-12308000D02*
X15379000Y-12368000D01*
X15412000Y-10994000D02*
X15472000Y-11054000D01*
X15472000Y-10994000D02*
X15412000Y-11054000D01*
X15457000Y-12548000D02*
X15517000Y-12608000D01*
X15517000Y-12548000D02*
X15457000Y-12608000D01*
X15466000Y-8629000D02*
X15526000Y-8689000D01*
X15526000Y-8629000D02*
X15466000Y-8689000D01*
X15503000Y-10521000D02*
X15563000Y-10581000D01*
X15563000Y-10521000D02*
X15503000Y-10581000D01*
X15575000Y-11825000D02*
X15635000Y-11885000D01*
X15635000Y-11825000D02*
X15575000Y-11885000D01*
X15638000Y-12318000D02*
X15698000Y-12378000D01*
X15698000Y-12318000D02*
X15638000Y-12378000D01*
X15715000Y-12510000D02*
X15775000Y-12570000D01*
X15775000Y-12510000D02*
X15715000Y-12570000D01*
X15735000Y-11611000D02*
X15795000Y-11671000D01*
X15795000Y-11611000D02*
X15735000Y-11671000D01*
X15756000Y-10665000D02*
X15816000Y-10725000D01*
X15816000Y-10665000D02*
X15756000Y-10725000D01*
X15803896Y-10104896D02*
X15863896Y-10164896D01*
X15863896Y-10104896D02*
X15803896Y-10164896D01*
X15823000Y-9644000D02*
X15883000Y-9704000D01*
X15883000Y-9644000D02*
X15823000Y-9704000D01*
X15979000Y-11875000D02*
X16039000Y-11935000D01*
X16039000Y-11875000D02*
X15979000Y-11935000D01*
X16054000Y-11073000D02*
X16114000Y-11133000D01*
X16114000Y-11073000D02*
X16054000Y-11133000D01*
X16062000Y-12293000D02*
X16122000Y-12353000D01*
X16122000Y-12293000D02*
X16062000Y-12353000D01*
X16120000Y-12071000D02*
X16180000Y-12131000D01*
X16180000Y-12071000D02*
X16120000Y-12131000D01*
X16141000Y-9607000D02*
X16201000Y-9667000D01*
X16201000Y-9607000D02*
X16141000Y-9667000D01*
X16155000Y-11335000D02*
X16215000Y-11395000D01*
X16215000Y-11335000D02*
X16155000Y-11395000D01*
X16221000Y-8718000D02*
X16281000Y-8778000D01*
X16281000Y-8718000D02*
X16221000Y-8778000D01*
X16287000Y-10053000D02*
X16347000Y-10113000D01*
X16347000Y-10053000D02*
X16287000Y-10113000D01*
X16364000Y-11245000D02*
X16424000Y-11305000D01*
X16424000Y-11245000D02*
X16364000Y-11305000D01*
X16494000Y-9227000D02*
X16554000Y-9287000D01*
X16554000Y-9227000D02*
X16494000Y-9287000D01*
X16501000Y-11540000D02*
X16561000Y-11600000D01*
X16561000Y-11540000D02*
X16501000Y-11600000D01*
X16614000Y-10246000D02*
X16674000Y-10306000D01*
X16674000Y-10246000D02*
X16614000Y-10306000D01*
X16675000Y-9588000D02*
X16735000Y-9648000D01*
X16735000Y-9588000D02*
X16675000Y-9648000D01*
X16691000Y-10574000D02*
X16751000Y-10634000D01*
X16751000Y-10574000D02*
X16691000Y-10634000D01*
X16711000Y-11156000D02*
X16771000Y-11216000D01*
X16771000Y-11156000D02*
X16711000Y-11216000D01*
X16751000Y-11842000D02*
X16811000Y-11902000D01*
X16811000Y-11842000D02*
X16751000Y-11902000D01*
X16764000Y-10370000D02*
X16824000Y-10430000D01*
X16824000Y-10370000D02*
X16764000Y-10430000D01*
X16805000Y-12349000D02*
X16865000Y-12409000D01*
X16865000Y-12349000D02*
X16805000Y-12409000D01*
X16822000Y-10159000D02*
X16882000Y-10219000D01*
X16882000Y-10159000D02*
X16822000Y-10219000D01*
X16839000Y-11361000D02*
X16899000Y-11421000D01*
X16899000Y-11361000D02*
X16839000Y-11421000D01*
X16980000Y-11541000D02*
X17040000Y-11601000D01*
X17040000Y-11541000D02*
X16980000Y-11601000D01*
X17070000Y-10904000D02*
X17130000Y-10964000D01*
X17130000Y-10904000D02*
X17070000Y-10964000D01*
X17128000Y-12591000D02*
X17188000Y-12651000D01*
X17188000Y-12591000D02*
X17128000Y-12651000D01*
X17148000Y-9547000D02*
X17208000Y-9607000D01*
X17208000Y-9547000D02*
X17148000Y-9607000D01*
X17228000Y-11289000D02*
X17288000Y-11349000D01*
X17288000Y-11289000D02*
X17228000Y-11349000D01*
X17270000Y-11079000D02*
X17330000Y-11139000D01*
X17330000Y-11079000D02*
X17270000Y-11139000D01*
X17292000Y-11673000D02*
X17352000Y-11733000D01*
X17352000Y-11673000D02*
X17292000Y-11733000D01*
X17305000Y-11955000D02*
X17365000Y-12015000D01*
X17365000Y-11955000D02*
X17305000Y-12015000D01*
X17382000Y-12322000D02*
X17442000Y-12382000D01*
X17442000Y-12322000D02*
X17382000Y-12382000D01*
X17439000Y-10139000D02*
X17499000Y-10199000D01*
X17499000Y-10139000D02*
X17439000Y-10199000D01*
X17454000Y-10883000D02*
X17514000Y-10943000D01*
X17514000Y-10883000D02*
X17454000Y-10943000D01*
D13*
X13548999Y-9200000D02*
G75*
G03*
X13548999Y-9200000I-47500J0D01*
G01*
X13798999Y-9200000D02*
G75*
G03*
X13798999Y-9200000I-47500J0D01*
G01*
X14048999Y-9200000D02*
G75*
G03*
X14048999Y-9200000I-47500J0D01*
G01*
X14298999Y-9200000D02*
G75*
G03*
X14298999Y-9200000I-47500J0D01*
G01*
X14548999Y-9200000D02*
G75*
G03*
X14548999Y-9200000I-47500J0D01*
G01*
X14798999Y-9200000D02*
G75*
G03*
X14798999Y-9200000I-47500J0D01*
G01*
X15048999Y-9200000D02*
G75*
G03*
X15048999Y-9200000I-47500J0D01*
G01*
X15298999Y-9200000D02*
G75*
G03*
X15298999Y-9200000I-47500J0D01*
G01*
X15548999Y-9200000D02*
G75*
G03*
X15548999Y-9200000I-47500J0D01*
G01*
X15798999Y-9200000D02*
G75*
G03*
X15798999Y-9200000I-47500J0D01*
G01*
D11*
X12137217Y-13049558D02*
X12137217Y-12849558D01*
X12184836Y-12849558D01*
X12213407Y-12859082D01*
X12232455Y-12878130D01*
X12241979Y-12897177D01*
X12251502Y-12935272D01*
X12251502Y-12963844D01*
X12241979Y-13001939D01*
X12232455Y-13020987D01*
X12213407Y-13040034D01*
X12184836Y-13049558D01*
X12137217Y-13049558D01*
X12337217Y-13049558D02*
X12337217Y-12916225D01*
X12337217Y-12954320D02*
X12346740Y-12935272D01*
X12356264Y-12925749D01*
X12375312Y-12916225D01*
X12394360Y-12916225D01*
X12461026Y-13049558D02*
X12461026Y-12916225D01*
X12461026Y-12849558D02*
X12451502Y-12859082D01*
X12461026Y-12868606D01*
X12470550Y-12859082D01*
X12461026Y-12849558D01*
X12461026Y-12868606D01*
X12584836Y-13049558D02*
X12565788Y-13040034D01*
X12556264Y-13020987D01*
X12556264Y-12849558D01*
X12689598Y-13049558D02*
X12670550Y-13040034D01*
X12661026Y-13020987D01*
X12661026Y-12849558D01*
X12918169Y-13049558D02*
X12918169Y-12849558D01*
X12984836Y-12992415D01*
X13051502Y-12849558D01*
X13051502Y-13049558D01*
X13232455Y-13049558D02*
X13232455Y-12944796D01*
X13222931Y-12925749D01*
X13203883Y-12916225D01*
X13165788Y-12916225D01*
X13146740Y-12925749D01*
X13232455Y-13040034D02*
X13213407Y-13049558D01*
X13165788Y-13049558D01*
X13146740Y-13040034D01*
X13137217Y-13020987D01*
X13137217Y-13001939D01*
X13146740Y-12982892D01*
X13165788Y-12973368D01*
X13213407Y-12973368D01*
X13232455Y-12963844D01*
X13327693Y-12916225D02*
X13327693Y-13116225D01*
X13327693Y-12925749D02*
X13346740Y-12916225D01*
X13384836Y-12916225D01*
X13403883Y-12925749D01*
X13413407Y-12935272D01*
X13422931Y-12954320D01*
X13422931Y-13011463D01*
X13413407Y-13030511D01*
X13403883Y-13040034D01*
X13384836Y-13049558D01*
X13346740Y-13049558D01*
X13327693Y-13040034D01*
X13508645Y-13030511D02*
X13518169Y-13040034D01*
X13508645Y-13049558D01*
X13499121Y-13040034D01*
X13508645Y-13030511D01*
X13508645Y-13049558D01*
X13508645Y-12925749D02*
X13518169Y-12935272D01*
X13508645Y-12944796D01*
X13499121Y-12935272D01*
X13508645Y-12925749D01*
X13508645Y-12944796D01*
D12*
X11819598Y-13349082D02*
X11879598Y-13409082D01*
X11879598Y-13349082D02*
X11819598Y-13409082D01*
D11*
X12175312Y-13269558D02*
X12194360Y-13269558D01*
X12213407Y-13279082D01*
X12222931Y-13288606D01*
X12232455Y-13307653D01*
X12241979Y-13345749D01*
X12241979Y-13393368D01*
X12232455Y-13431463D01*
X12222931Y-13450511D01*
X12213407Y-13460034D01*
X12194360Y-13469558D01*
X12175312Y-13469558D01*
X12156264Y-13460034D01*
X12146740Y-13450511D01*
X12137217Y-13431463D01*
X12127693Y-13393368D01*
X12127693Y-13345749D01*
X12137217Y-13307653D01*
X12146740Y-13288606D01*
X12156264Y-13279082D01*
X12175312Y-13269558D01*
X12327693Y-13450511D02*
X12337217Y-13460034D01*
X12327693Y-13469558D01*
X12318169Y-13460034D01*
X12327693Y-13450511D01*
X12327693Y-13469558D01*
X12508645Y-13269558D02*
X12470550Y-13269558D01*
X12451502Y-13279082D01*
X12441979Y-13288606D01*
X12422931Y-13317177D01*
X12413407Y-13355272D01*
X12413407Y-13431463D01*
X12422931Y-13450511D01*
X12432455Y-13460034D01*
X12451502Y-13469558D01*
X12489598Y-13469558D01*
X12508645Y-13460034D01*
X12518169Y-13450511D01*
X12527693Y-13431463D01*
X12527693Y-13383844D01*
X12518169Y-13364796D01*
X12508645Y-13355272D01*
X12489598Y-13345749D01*
X12451502Y-13345749D01*
X12432455Y-13355272D01*
X12422931Y-13364796D01*
X12413407Y-13383844D01*
X12651502Y-13269558D02*
X12670550Y-13269558D01*
X12689598Y-13279082D01*
X12699121Y-13288606D01*
X12708645Y-13307653D01*
X12718169Y-13345749D01*
X12718169Y-13393368D01*
X12708645Y-13431463D01*
X12699121Y-13450511D01*
X12689598Y-13460034D01*
X12670550Y-13469558D01*
X12651502Y-13469558D01*
X12632455Y-13460034D01*
X12622931Y-13450511D01*
X12613407Y-13431463D01*
X12603883Y-13393368D01*
X12603883Y-13345749D01*
X12613407Y-13307653D01*
X12622931Y-13288606D01*
X12632455Y-13279082D01*
X12651502Y-13269558D01*
X12841979Y-13269558D02*
X12861026Y-13269558D01*
X12880074Y-13279082D01*
X12889598Y-13288606D01*
X12899121Y-13307653D01*
X12908645Y-13345749D01*
X12908645Y-13393368D01*
X12899121Y-13431463D01*
X12889598Y-13450511D01*
X12880074Y-13460034D01*
X12861026Y-13469558D01*
X12841979Y-13469558D01*
X12822931Y-13460034D01*
X12813407Y-13450511D01*
X12803883Y-13431463D01*
X12794360Y-13393368D01*
X12794360Y-13345749D01*
X12803883Y-13307653D01*
X12813407Y-13288606D01*
X12822931Y-13279082D01*
X12841979Y-13269558D01*
X12994360Y-13469558D02*
X12994360Y-13336225D01*
X12994360Y-13355272D02*
X13003883Y-13345749D01*
X13022931Y-13336225D01*
X13051502Y-13336225D01*
X13070550Y-13345749D01*
X13080074Y-13364796D01*
X13080074Y-13469558D01*
X13080074Y-13364796D02*
X13089598Y-13345749D01*
X13108645Y-13336225D01*
X13137217Y-13336225D01*
X13156264Y-13345749D01*
X13165788Y-13364796D01*
X13165788Y-13469558D01*
X13261026Y-13469558D02*
X13261026Y-13336225D01*
X13261026Y-13355272D02*
X13270550Y-13345749D01*
X13289598Y-13336225D01*
X13318169Y-13336225D01*
X13337217Y-13345749D01*
X13346740Y-13364796D01*
X13346740Y-13469558D01*
X13346740Y-13364796D02*
X13356264Y-13345749D01*
X13375312Y-13336225D01*
X13403883Y-13336225D01*
X13422931Y-13345749D01*
X13432455Y-13364796D01*
X13432455Y-13469558D01*
X13822931Y-13260034D02*
X13651502Y-13517177D01*
X14080074Y-13269558D02*
X14099121Y-13269558D01*
X14118169Y-13279082D01*
X14127693Y-13288606D01*
X14137217Y-13307653D01*
X14146740Y-13345749D01*
X14146740Y-13393368D01*
X14137217Y-13431463D01*
X14127693Y-13450511D01*
X14118169Y-13460034D01*
X14099121Y-13469558D01*
X14080074Y-13469558D01*
X14061026Y-13460034D01*
X14051502Y-13450511D01*
X14041979Y-13431463D01*
X14032455Y-13393368D01*
X14032455Y-13345749D01*
X14041979Y-13307653D01*
X14051502Y-13288606D01*
X14061026Y-13279082D01*
X14080074Y-13269558D01*
X14232455Y-13450511D02*
X14241979Y-13460034D01*
X14232455Y-13469558D01*
X14222931Y-13460034D01*
X14232455Y-13450511D01*
X14232455Y-13469558D01*
X14365788Y-13269558D02*
X14384836Y-13269558D01*
X14403883Y-13279082D01*
X14413407Y-13288606D01*
X14422931Y-13307653D01*
X14432455Y-13345749D01*
X14432455Y-13393368D01*
X14422931Y-13431463D01*
X14413407Y-13450511D01*
X14403883Y-13460034D01*
X14384836Y-13469558D01*
X14365788Y-13469558D01*
X14346740Y-13460034D01*
X14337217Y-13450511D01*
X14327693Y-13431463D01*
X14318169Y-13393368D01*
X14318169Y-13345749D01*
X14327693Y-13307653D01*
X14337217Y-13288606D01*
X14346740Y-13279082D01*
X14365788Y-13269558D01*
X14508645Y-13288606D02*
X14518169Y-13279082D01*
X14537217Y-13269558D01*
X14584836Y-13269558D01*
X14603883Y-13279082D01*
X14613407Y-13288606D01*
X14622931Y-13307653D01*
X14622931Y-13326701D01*
X14613407Y-13355272D01*
X14499121Y-13469558D01*
X14622931Y-13469558D01*
X14689598Y-13269558D02*
X14813407Y-13269558D01*
X14746740Y-13345749D01*
X14775312Y-13345749D01*
X14794360Y-13355272D01*
X14803883Y-13364796D01*
X14813407Y-13383844D01*
X14813407Y-13431463D01*
X14803883Y-13450511D01*
X14794360Y-13460034D01*
X14775312Y-13469558D01*
X14718169Y-13469558D01*
X14699121Y-13460034D01*
X14689598Y-13450511D01*
X14984836Y-13269558D02*
X14946740Y-13269558D01*
X14927693Y-13279082D01*
X14918169Y-13288606D01*
X14899121Y-13317177D01*
X14889598Y-13355272D01*
X14889598Y-13431463D01*
X14899121Y-13450511D01*
X14908645Y-13460034D01*
X14927693Y-13469558D01*
X14965788Y-13469558D01*
X14984836Y-13460034D01*
X14994360Y-13450511D01*
X15003883Y-13431463D01*
X15003883Y-13383844D01*
X14994360Y-13364796D01*
X14984836Y-13355272D01*
X14965788Y-13345749D01*
X14927693Y-13345749D01*
X14908645Y-13355272D01*
X14899121Y-13364796D01*
X14889598Y-13383844D01*
X15080074Y-13269558D02*
X15080074Y-13307653D01*
X15156264Y-13269558D02*
X15156264Y-13307653D01*
X15451502Y-13545749D02*
X15441979Y-13536225D01*
X15422931Y-13507653D01*
X15413407Y-13488606D01*
X15403883Y-13460034D01*
X15394360Y-13412415D01*
X15394360Y-13374320D01*
X15403883Y-13326701D01*
X15413407Y-13298130D01*
X15422931Y-13279082D01*
X15441979Y-13250511D01*
X15451502Y-13240987D01*
X15632455Y-13469558D02*
X15518169Y-13469558D01*
X15575312Y-13469558D02*
X15575312Y-13269558D01*
X15556264Y-13298130D01*
X15537217Y-13317177D01*
X15518169Y-13326701D01*
X15822931Y-13469558D02*
X15708645Y-13469558D01*
X15765788Y-13469558D02*
X15765788Y-13269558D01*
X15746740Y-13298130D01*
X15727693Y-13317177D01*
X15708645Y-13326701D01*
X15889598Y-13269558D02*
X16013407Y-13269558D01*
X15946740Y-13345749D01*
X15975312Y-13345749D01*
X15994360Y-13355272D01*
X16003883Y-13364796D01*
X16013407Y-13383844D01*
X16013407Y-13431463D01*
X16003883Y-13450511D01*
X15994360Y-13460034D01*
X15975312Y-13469558D01*
X15918169Y-13469558D01*
X15899121Y-13460034D01*
X15889598Y-13450511D01*
X16251502Y-13469558D02*
X16251502Y-13269558D01*
X16337217Y-13469558D02*
X16337217Y-13364796D01*
X16327693Y-13345749D01*
X16308645Y-13336225D01*
X16280074Y-13336225D01*
X16261026Y-13345749D01*
X16251502Y-13355272D01*
X16461026Y-13469558D02*
X16441979Y-13460034D01*
X16432455Y-13450511D01*
X16422931Y-13431463D01*
X16422931Y-13374320D01*
X16432455Y-13355272D01*
X16441979Y-13345749D01*
X16461026Y-13336225D01*
X16489598Y-13336225D01*
X16508645Y-13345749D01*
X16518169Y-13355272D01*
X16527693Y-13374320D01*
X16527693Y-13431463D01*
X16518169Y-13450511D01*
X16508645Y-13460034D01*
X16489598Y-13469558D01*
X16461026Y-13469558D01*
X16641979Y-13469558D02*
X16622931Y-13460034D01*
X16613407Y-13440987D01*
X16613407Y-13269558D01*
X16794360Y-13460034D02*
X16775312Y-13469558D01*
X16737217Y-13469558D01*
X16718169Y-13460034D01*
X16708645Y-13440987D01*
X16708645Y-13364796D01*
X16718169Y-13345749D01*
X16737217Y-13336225D01*
X16775312Y-13336225D01*
X16794360Y-13345749D01*
X16803883Y-13364796D01*
X16803883Y-13383844D01*
X16708645Y-13402892D01*
X16880074Y-13460034D02*
X16899122Y-13469558D01*
X16937217Y-13469558D01*
X16956264Y-13460034D01*
X16965788Y-13440987D01*
X16965788Y-13431463D01*
X16956264Y-13412415D01*
X16937217Y-13402892D01*
X16908645Y-13402892D01*
X16889598Y-13393368D01*
X16880074Y-13374320D01*
X16880074Y-13364796D01*
X16889598Y-13345749D01*
X16908645Y-13336225D01*
X16937217Y-13336225D01*
X16956264Y-13345749D01*
X17032455Y-13545749D02*
X17041979Y-13536225D01*
X17061026Y-13507653D01*
X17070550Y-13488606D01*
X17080074Y-13460034D01*
X17089598Y-13412415D01*
X17089598Y-13374320D01*
X17080074Y-13326701D01*
X17070550Y-13298130D01*
X17061026Y-13279082D01*
X17041979Y-13250511D01*
X17032455Y-13240987D01*
D13*
X11879598Y-13643082D02*
G75*
G03*
X11879598Y-13643082I-47500J0D01*
G01*
D11*
X12175312Y-13533558D02*
X12194360Y-13533558D01*
X12213407Y-13543082D01*
X12222931Y-13552606D01*
X12232455Y-13571653D01*
X12241979Y-13609749D01*
X12241979Y-13657368D01*
X12232455Y-13695463D01*
X12222931Y-13714511D01*
X12213407Y-13724034D01*
X12194360Y-13733558D01*
X12175312Y-13733558D01*
X12156264Y-13724034D01*
X12146740Y-13714511D01*
X12137217Y-13695463D01*
X12127693Y-13657368D01*
X12127693Y-13609749D01*
X12137217Y-13571653D01*
X12146740Y-13552606D01*
X12156264Y-13543082D01*
X12175312Y-13533558D01*
X12327693Y-13714511D02*
X12337217Y-13724034D01*
X12327693Y-13733558D01*
X12318169Y-13724034D01*
X12327693Y-13714511D01*
X12327693Y-13733558D01*
X12432455Y-13733558D02*
X12470550Y-13733558D01*
X12489598Y-13724034D01*
X12499121Y-13714511D01*
X12518169Y-13685939D01*
X12527693Y-13647844D01*
X12527693Y-13571653D01*
X12518169Y-13552606D01*
X12508645Y-13543082D01*
X12489598Y-13533558D01*
X12451502Y-13533558D01*
X12432455Y-13543082D01*
X12422931Y-13552606D01*
X12413407Y-13571653D01*
X12413407Y-13619272D01*
X12422931Y-13638320D01*
X12432455Y-13647844D01*
X12451502Y-13657368D01*
X12489598Y-13657368D01*
X12508645Y-13647844D01*
X12518169Y-13638320D01*
X12527693Y-13619272D01*
X12708645Y-13533558D02*
X12613407Y-13533558D01*
X12603883Y-13628796D01*
X12613407Y-13619272D01*
X12632455Y-13609749D01*
X12680074Y-13609749D01*
X12699121Y-13619272D01*
X12708645Y-13628796D01*
X12718169Y-13647844D01*
X12718169Y-13695463D01*
X12708645Y-13714511D01*
X12699121Y-13724034D01*
X12680074Y-13733558D01*
X12632455Y-13733558D01*
X12613407Y-13724034D01*
X12603883Y-13714511D01*
X12841979Y-13533558D02*
X12861026Y-13533558D01*
X12880074Y-13543082D01*
X12889598Y-13552606D01*
X12899121Y-13571653D01*
X12908645Y-13609749D01*
X12908645Y-13657368D01*
X12899121Y-13695463D01*
X12889598Y-13714511D01*
X12880074Y-13724034D01*
X12861026Y-13733558D01*
X12841979Y-13733558D01*
X12822931Y-13724034D01*
X12813407Y-13714511D01*
X12803883Y-13695463D01*
X12794360Y-13657368D01*
X12794360Y-13609749D01*
X12803883Y-13571653D01*
X12813407Y-13552606D01*
X12822931Y-13543082D01*
X12841979Y-13533558D01*
X12994360Y-13733558D02*
X12994360Y-13600225D01*
X12994360Y-13619272D02*
X13003883Y-13609749D01*
X13022931Y-13600225D01*
X13051502Y-13600225D01*
X13070550Y-13609749D01*
X13080074Y-13628796D01*
X13080074Y-13733558D01*
X13080074Y-13628796D02*
X13089598Y-13609749D01*
X13108645Y-13600225D01*
X13137217Y-13600225D01*
X13156264Y-13609749D01*
X13165788Y-13628796D01*
X13165788Y-13733558D01*
X13261026Y-13733558D02*
X13261026Y-13600225D01*
X13261026Y-13619272D02*
X13270550Y-13609749D01*
X13289598Y-13600225D01*
X13318169Y-13600225D01*
X13337217Y-13609749D01*
X13346740Y-13628796D01*
X13346740Y-13733558D01*
X13346740Y-13628796D02*
X13356264Y-13609749D01*
X13375312Y-13600225D01*
X13403883Y-13600225D01*
X13422931Y-13609749D01*
X13432455Y-13628796D01*
X13432455Y-13733558D01*
X13822931Y-13524034D02*
X13651502Y-13781177D01*
X14080074Y-13533558D02*
X14099121Y-13533558D01*
X14118169Y-13543082D01*
X14127693Y-13552606D01*
X14137217Y-13571653D01*
X14146740Y-13609749D01*
X14146740Y-13657368D01*
X14137217Y-13695463D01*
X14127693Y-13714511D01*
X14118169Y-13724034D01*
X14099121Y-13733558D01*
X14080074Y-13733558D01*
X14061026Y-13724034D01*
X14051502Y-13714511D01*
X14041979Y-13695463D01*
X14032455Y-13657368D01*
X14032455Y-13609749D01*
X14041979Y-13571653D01*
X14051502Y-13552606D01*
X14061026Y-13543082D01*
X14080074Y-13533558D01*
X14232455Y-13714511D02*
X14241979Y-13724034D01*
X14232455Y-13733558D01*
X14222931Y-13724034D01*
X14232455Y-13714511D01*
X14232455Y-13733558D01*
X14365788Y-13533558D02*
X14384836Y-13533558D01*
X14403883Y-13543082D01*
X14413407Y-13552606D01*
X14422931Y-13571653D01*
X14432455Y-13609749D01*
X14432455Y-13657368D01*
X14422931Y-13695463D01*
X14413407Y-13714511D01*
X14403883Y-13724034D01*
X14384836Y-13733558D01*
X14365788Y-13733558D01*
X14346740Y-13724034D01*
X14337217Y-13714511D01*
X14327693Y-13695463D01*
X14318169Y-13657368D01*
X14318169Y-13609749D01*
X14327693Y-13571653D01*
X14337217Y-13552606D01*
X14346740Y-13543082D01*
X14365788Y-13533558D01*
X14499121Y-13533558D02*
X14622931Y-13533558D01*
X14556264Y-13609749D01*
X14584836Y-13609749D01*
X14603883Y-13619272D01*
X14613407Y-13628796D01*
X14622931Y-13647844D01*
X14622931Y-13695463D01*
X14613407Y-13714511D01*
X14603883Y-13724034D01*
X14584836Y-13733558D01*
X14527693Y-13733558D01*
X14508645Y-13724034D01*
X14499121Y-13714511D01*
X14689598Y-13533558D02*
X14822931Y-13533558D01*
X14737217Y-13733558D01*
X14984836Y-13600225D02*
X14984836Y-13733558D01*
X14937217Y-13524034D02*
X14889598Y-13666892D01*
X15013407Y-13666892D01*
X15080074Y-13533558D02*
X15080074Y-13571653D01*
X15156264Y-13533558D02*
X15156264Y-13571653D01*
X15451502Y-13809749D02*
X15441979Y-13800225D01*
X15422931Y-13771653D01*
X15413407Y-13752606D01*
X15403883Y-13724034D01*
X15394360Y-13676415D01*
X15394360Y-13638320D01*
X15403883Y-13590701D01*
X15413407Y-13562130D01*
X15422931Y-13543082D01*
X15441979Y-13514511D01*
X15451502Y-13504987D01*
X15632455Y-13733558D02*
X15518169Y-13733558D01*
X15575312Y-13733558D02*
X15575312Y-13533558D01*
X15556264Y-13562130D01*
X15537217Y-13581177D01*
X15518169Y-13590701D01*
X15756264Y-13533558D02*
X15775312Y-13533558D01*
X15794360Y-13543082D01*
X15803883Y-13552606D01*
X15813407Y-13571653D01*
X15822931Y-13609749D01*
X15822931Y-13657368D01*
X15813407Y-13695463D01*
X15803883Y-13714511D01*
X15794360Y-13724034D01*
X15775312Y-13733558D01*
X15756264Y-13733558D01*
X15737217Y-13724034D01*
X15727693Y-13714511D01*
X15718169Y-13695463D01*
X15708645Y-13657368D01*
X15708645Y-13609749D01*
X15718169Y-13571653D01*
X15727693Y-13552606D01*
X15737217Y-13543082D01*
X15756264Y-13533558D01*
X16061026Y-13733558D02*
X16061026Y-13533558D01*
X16146740Y-13733558D02*
X16146740Y-13628796D01*
X16137217Y-13609749D01*
X16118169Y-13600225D01*
X16089598Y-13600225D01*
X16070550Y-13609749D01*
X16061026Y-13619272D01*
X16270550Y-13733558D02*
X16251502Y-13724034D01*
X16241979Y-13714511D01*
X16232455Y-13695463D01*
X16232455Y-13638320D01*
X16241979Y-13619272D01*
X16251502Y-13609749D01*
X16270550Y-13600225D01*
X16299121Y-13600225D01*
X16318169Y-13609749D01*
X16327693Y-13619272D01*
X16337217Y-13638320D01*
X16337217Y-13695463D01*
X16327693Y-13714511D01*
X16318169Y-13724034D01*
X16299121Y-13733558D01*
X16270550Y-13733558D01*
X16451502Y-13733558D02*
X16432455Y-13724034D01*
X16422931Y-13704987D01*
X16422931Y-13533558D01*
X16603883Y-13724034D02*
X16584836Y-13733558D01*
X16546740Y-13733558D01*
X16527693Y-13724034D01*
X16518169Y-13704987D01*
X16518169Y-13628796D01*
X16527693Y-13609749D01*
X16546740Y-13600225D01*
X16584836Y-13600225D01*
X16603883Y-13609749D01*
X16613407Y-13628796D01*
X16613407Y-13647844D01*
X16518169Y-13666892D01*
X16689598Y-13724034D02*
X16708645Y-13733558D01*
X16746740Y-13733558D01*
X16765788Y-13724034D01*
X16775312Y-13704987D01*
X16775312Y-13695463D01*
X16765788Y-13676415D01*
X16746740Y-13666892D01*
X16718169Y-13666892D01*
X16699121Y-13657368D01*
X16689598Y-13638320D01*
X16689598Y-13628796D01*
X16699121Y-13609749D01*
X16718169Y-13600225D01*
X16746740Y-13600225D01*
X16765788Y-13609749D01*
X16841979Y-13809749D02*
X16851502Y-13800225D01*
X16870550Y-13771653D01*
X16880074Y-13752606D01*
X16889598Y-13724034D01*
X16899122Y-13676415D01*
X16899122Y-13638320D01*
X16889598Y-13590701D01*
X16880074Y-13562130D01*
X16870550Y-13543082D01*
X16851502Y-13514511D01*
X16841979Y-13504987D01*
M02*
