%TF.GenerationSoftware,KiCad,Pcbnew,(6.0.6)*%
%TF.CreationDate,2023-05-08T04:54:07+09:00*%
%TF.ProjectId,128KB_64pin_Touch_R_halfduplex_x2,3132384b-425f-4363-9470-696e5f546f75,rev?*%
%TF.SameCoordinates,Original*%
%TF.FileFunction,Paste,Bot*%
%TF.FilePolarity,Positive*%
%FSLAX46Y46*%
G04 Gerber Fmt 4.6, Leading zero omitted, Abs format (unit mm)*
G04 Created by KiCad (PCBNEW (6.0.6)) date 2023-05-08 04:54:07*
%MOMM*%
%LPD*%
G01*
G04 APERTURE LIST*
%ADD10R,0.600000X0.750000*%
%ADD11R,0.620000X0.600000*%
%ADD12R,0.850000X1.200000*%
%ADD13R,0.800000X1.000000*%
%ADD14R,0.500000X1.000000*%
%ADD15R,0.600000X0.620000*%
%ADD16R,1.475000X0.300000*%
%ADD17R,0.300000X1.475000*%
%ADD18R,1.140000X1.340000*%
%ADD19R,1.000000X0.800000*%
%ADD20R,1.528000X0.650000*%
%ADD21R,0.420000X0.870000*%
%ADD22R,0.700000X0.450000*%
%ADD23R,1.000000X1.400000*%
%ADD24R,0.700000X0.650000*%
%ADD25R,0.250000X1.100000*%
%ADD26R,1.700000X1.500000*%
%ADD27R,0.450000X0.700000*%
%ADD28R,0.940000X0.540000*%
%ADD29R,0.650000X1.425000*%
%ADD30R,2.950000X2.750000*%
%ADD31R,0.540000X0.940000*%
%ADD32R,1.850000X3.500000*%
G04 APERTURE END LIST*
D10*
%TO.C,R46*%
X136765000Y-114220000D03*
X136765000Y-115320000D03*
%TD*%
D11*
%TO.C,C13*%
X154519994Y-100800000D03*
X154519994Y-101720000D03*
%TD*%
D12*
%TO.C,Z1*%
X166309994Y-99105000D03*
X163259994Y-99105000D03*
%TD*%
D13*
%TO.C,R20*%
X144960000Y-104580000D03*
X146560000Y-104580000D03*
%TD*%
D14*
%TO.C,Q3*%
X144115000Y-99925000D03*
X145415000Y-99925000D03*
X144765000Y-101825000D03*
%TD*%
D10*
%TO.C,R45*%
X135765000Y-114220000D03*
X135765000Y-115320000D03*
%TD*%
%TO.C,R40*%
X130265000Y-114220000D03*
X130265000Y-115320000D03*
%TD*%
D11*
%TO.C,C15*%
X149630000Y-108660000D03*
X149630000Y-109580000D03*
%TD*%
D15*
%TO.C,C9*%
X158110000Y-98530000D03*
X159030000Y-98530000D03*
%TD*%
D16*
%TO.C,IC4*%
X141953000Y-101320000D03*
X141953000Y-101820000D03*
X141953000Y-102320000D03*
X141953000Y-102820000D03*
X141953000Y-103320000D03*
X141953000Y-103820000D03*
X141953000Y-104320000D03*
X141953000Y-104820000D03*
X141953000Y-105320000D03*
X141953000Y-105820000D03*
X141953000Y-106320000D03*
X141953000Y-106820000D03*
X141953000Y-107320000D03*
X141953000Y-107820000D03*
X141953000Y-108320000D03*
X141953000Y-108820000D03*
D17*
X139965000Y-110808000D03*
X139465000Y-110808000D03*
X138965000Y-110808000D03*
X138465000Y-110808000D03*
X137965000Y-110808000D03*
X137465000Y-110808000D03*
X136965000Y-110808000D03*
X136465000Y-110808000D03*
X135965000Y-110808000D03*
X135465000Y-110808000D03*
X134965000Y-110808000D03*
X134465000Y-110808000D03*
X133965000Y-110808000D03*
X133465000Y-110808000D03*
X132965000Y-110808000D03*
X132465000Y-110808000D03*
D16*
X130477000Y-108820000D03*
X130477000Y-108320000D03*
X130477000Y-107820000D03*
X130477000Y-107320000D03*
X130477000Y-106820000D03*
X130477000Y-106320000D03*
X130477000Y-105820000D03*
X130477000Y-105320000D03*
X130477000Y-104820000D03*
X130477000Y-104320000D03*
X130477000Y-103820000D03*
X130477000Y-103320000D03*
X130477000Y-102820000D03*
X130477000Y-102320000D03*
X130477000Y-101820000D03*
X130477000Y-101320000D03*
D17*
X132465000Y-99332000D03*
X132965000Y-99332000D03*
X133465000Y-99332000D03*
X133965000Y-99332000D03*
X134465000Y-99332000D03*
X134965000Y-99332000D03*
X135465000Y-99332000D03*
X135965000Y-99332000D03*
X136465000Y-99332000D03*
X136965000Y-99332000D03*
X137465000Y-99332000D03*
X137965000Y-99332000D03*
X138465000Y-99332000D03*
X138965000Y-99332000D03*
X139465000Y-99332000D03*
X139965000Y-99332000D03*
%TD*%
D18*
%TO.C,D3*%
X162289994Y-94730000D03*
X162289994Y-91630000D03*
%TD*%
D19*
%TO.C,R23*%
X142030000Y-99190000D03*
X142030000Y-97590000D03*
%TD*%
D10*
%TO.C,R47*%
X137765000Y-114220000D03*
X137765000Y-115320000D03*
%TD*%
D13*
%TO.C,R16*%
X126120000Y-100540000D03*
X124520000Y-100540000D03*
%TD*%
%TO.C,R8*%
X156930000Y-104090000D03*
X155330000Y-104090000D03*
%TD*%
D11*
%TO.C,C16*%
X160080000Y-116130000D03*
X160080000Y-117050000D03*
%TD*%
D10*
%TO.C,R38*%
X128265000Y-114220000D03*
X128265000Y-115320000D03*
%TD*%
D13*
%TO.C,R17*%
X148250000Y-102660000D03*
X149850000Y-102660000D03*
%TD*%
D11*
%TO.C,C19*%
X134370000Y-97370000D03*
X134370000Y-96450000D03*
%TD*%
D20*
%TO.C,IC2*%
X147494004Y-100994996D03*
X147494004Y-99724996D03*
X147494004Y-98454996D03*
X147494004Y-97184996D03*
X152916004Y-97184996D03*
X152916004Y-98454996D03*
X152916004Y-99724996D03*
X152916004Y-100994996D03*
%TD*%
D10*
%TO.C,R43*%
X133765000Y-114220000D03*
X133765000Y-115320000D03*
%TD*%
%TO.C,R44*%
X134765000Y-114220000D03*
X134765000Y-115320000D03*
%TD*%
D21*
%TO.C,Z6*%
X148300000Y-107490000D03*
X148300000Y-105240000D03*
%TD*%
D22*
%TO.C,Q1*%
X153280000Y-108030000D03*
X153280000Y-109330000D03*
X151280000Y-108680000D03*
%TD*%
D23*
%TO.C,R14*%
X153170000Y-111290000D03*
X151270000Y-111290000D03*
%TD*%
D15*
%TO.C,C10*%
X156390000Y-102720000D03*
X155470000Y-102720000D03*
%TD*%
D24*
%TO.C,FB1*%
X164474994Y-94915000D03*
X164474994Y-96265000D03*
%TD*%
D25*
%TO.C,J2*%
X146399994Y-118720000D03*
X145899994Y-118720000D03*
X145399994Y-118720000D03*
X144899994Y-118720000D03*
X144399994Y-118720000D03*
X143899994Y-118720000D03*
X143399994Y-118720000D03*
X142899994Y-118720000D03*
X142399994Y-118720000D03*
X141899994Y-118720000D03*
X141399994Y-118720000D03*
X140899994Y-118720000D03*
X140399994Y-118720000D03*
X139899994Y-118720000D03*
X139399994Y-118720000D03*
X138899994Y-118720000D03*
X138399994Y-118720000D03*
X137899994Y-118720000D03*
X137399994Y-118720000D03*
X136899994Y-118720000D03*
X136399994Y-118720000D03*
X135899994Y-118720000D03*
X135399994Y-118720000D03*
X134899994Y-118720000D03*
X134399994Y-118720000D03*
X133899994Y-118720000D03*
X133399994Y-118720000D03*
X132899994Y-118720000D03*
X132399994Y-118720000D03*
X131899994Y-118720000D03*
X131399994Y-118720000D03*
X130899994Y-118720000D03*
X130399994Y-118720000D03*
X129899994Y-118720000D03*
X129399994Y-118720000D03*
X128899994Y-118720000D03*
X128399994Y-118720000D03*
X127899994Y-118720000D03*
D26*
X148049994Y-122620000D03*
X126249994Y-122620000D03*
%TD*%
D10*
%TO.C,R36*%
X126265000Y-114220000D03*
X126265000Y-115320000D03*
%TD*%
D27*
%TO.C,Q2*%
X151930000Y-104410000D03*
X153230000Y-104410000D03*
X152580000Y-106410000D03*
%TD*%
D10*
%TO.C,R53*%
X144775000Y-114220000D03*
X144775000Y-115320000D03*
%TD*%
D28*
%TO.C,C17*%
X128060000Y-98900000D03*
X128060000Y-100500000D03*
%TD*%
D10*
%TO.C,R39*%
X129265000Y-114220000D03*
X129265000Y-115320000D03*
%TD*%
D29*
%TO.C,IC1*%
X155715000Y-108708000D03*
X156985000Y-108708000D03*
X158255000Y-108708000D03*
X159525000Y-108708000D03*
X159525000Y-114532000D03*
X158255000Y-114532000D03*
X156985000Y-114532000D03*
X155715000Y-114532000D03*
D30*
X157620000Y-111620000D03*
%TD*%
D10*
%TO.C,R49*%
X139765000Y-114220000D03*
X139765000Y-115320000D03*
%TD*%
%TO.C,R50*%
X141765000Y-114220000D03*
X141765000Y-115320000D03*
%TD*%
D19*
%TO.C,R18*%
X145550000Y-98590000D03*
X145550000Y-96990000D03*
%TD*%
D10*
%TO.C,R48*%
X138765000Y-114220000D03*
X138765000Y-115320000D03*
%TD*%
D11*
%TO.C,C12*%
X159920000Y-103080000D03*
X159920000Y-102160000D03*
%TD*%
%TO.C,C18*%
X153970000Y-114320000D03*
X153970000Y-113400000D03*
%TD*%
%TO.C,C7*%
X160730000Y-98520000D03*
X160730000Y-97600000D03*
%TD*%
D10*
%TO.C,R51*%
X142765000Y-114220000D03*
X142765000Y-115320000D03*
%TD*%
D31*
%TO.C,C24*%
X131260000Y-97560000D03*
X129660000Y-97560000D03*
%TD*%
D13*
%TO.C,R7*%
X158360000Y-99910000D03*
X159960000Y-99910000D03*
%TD*%
D32*
%TO.C,C3*%
X164689994Y-104250000D03*
X164689994Y-109550000D03*
%TD*%
D15*
%TO.C,C11*%
X159890000Y-104210000D03*
X158970000Y-104210000D03*
%TD*%
D19*
%TO.C,R24*%
X143890000Y-98510000D03*
X143890000Y-96910000D03*
%TD*%
D13*
%TO.C,R11*%
X156260000Y-99600000D03*
X154660000Y-99600000D03*
%TD*%
D10*
%TO.C,R41*%
X131265000Y-114220000D03*
X131265000Y-115320000D03*
%TD*%
D28*
%TO.C,C21*%
X135630000Y-97870000D03*
X135630000Y-96270000D03*
%TD*%
D10*
%TO.C,R37*%
X127265000Y-114220000D03*
X127265000Y-115320000D03*
%TD*%
%TO.C,R52*%
X143765000Y-114220000D03*
X143765000Y-115320000D03*
%TD*%
D19*
%TO.C,R15*%
X150270000Y-104860000D03*
X150270000Y-106460000D03*
%TD*%
D13*
%TO.C,R10*%
X156270000Y-97920000D03*
X154670000Y-97920000D03*
%TD*%
D15*
%TO.C,C22*%
X131110000Y-96370000D03*
X130190000Y-96370000D03*
%TD*%
D10*
%TO.C,R42*%
X132765000Y-114220000D03*
X132765000Y-115320000D03*
%TD*%
M02*
